<svg width="33" height="33" viewBox="0 0 33 33" fill="none" xmlns="http://www.w3.org/2000/svg">
<path d="M24.1753 22.806C22.8928 24.0884 20.2111 26.77 18.3657 28.6154C17.2963 29.6848 15.5643 29.6854 14.4948 28.6159C12.6817 26.8027 10.0519 24.173 8.68485 22.806C4.4073 18.5284 4.4073 11.5931 8.68485 7.31558C12.9624 3.03803 19.8977 3.03803 24.1753 7.31558C28.4527 11.5931 28.4527 18.5284 24.1753 22.806Z" stroke="#6D24F5" stroke-width="2" stroke-linecap="round" stroke-linejoin="round"/>
<path d="M20.5375 15.0609C20.5375 17.3294 18.6986 19.1684 16.43 19.1684C14.1614 19.1684 12.3225 17.3294 12.3225 15.0609C12.3225 12.7924 14.1614 10.9534 16.43 10.9534C18.6986 10.9534 20.5375 12.7924 20.5375 15.0609Z" stroke="#6D24F5" stroke-width="2" stroke-linecap="round" stroke-linejoin="round"/>
</svg>
