<svg width="25" height="25" viewBox="0 0 25 25" fill="none" xmlns="http://www.w3.org/2000/svg">
<path d="M12.1815 0C15.469 0 15.8791 0.0120994 17.1689 0.0725969C18.4575 0.133094 19.3347 0.335156 20.1067 0.635223C20.9053 0.94255 21.578 1.35877 22.2507 2.03029C22.866 2.63514 23.342 3.36679 23.6458 4.17432C23.9446 4.94506 24.1479 5.82348 24.2084 7.11208C24.2653 8.40189 24.281 8.81206 24.281 12.0995C24.281 15.3869 24.2689 15.7971 24.2084 17.0869C24.1479 18.3755 23.9446 19.2527 23.6458 20.0247C23.3429 20.8326 22.8667 21.5645 22.2507 22.1687C21.6457 22.7837 20.9141 23.2598 20.1067 23.5638C19.3359 23.8626 18.4575 24.0659 17.1689 24.1264C15.8791 24.1832 15.469 24.199 12.1815 24.199C8.89409 24.199 8.48392 24.1869 7.19411 24.1264C5.90552 24.0659 5.0283 23.8626 4.25635 23.5638C3.4485 23.2606 2.71673 22.7845 2.11233 22.1687C1.49695 21.5639 1.02087 20.8323 0.717255 20.0247C0.417187 19.2539 0.215126 18.3755 0.154628 17.0869C0.0977605 15.7971 0.0820312 15.3869 0.0820312 12.0995C0.0820312 8.81206 0.0941307 8.40189 0.154628 7.11208C0.215126 5.82227 0.417187 4.94627 0.717255 4.17432C1.02003 3.36629 1.49622 2.63445 2.11233 2.03029C2.7169 1.41471 3.44863 0.938593 4.25635 0.635223C5.0283 0.335156 5.9043 0.133094 7.19411 0.0725969C8.48392 0.0157293 8.89409 0 12.1815 0ZM12.1815 6.04974C10.577 6.04974 9.03825 6.68713 7.9037 7.82167C6.76916 8.95622 6.13178 10.495 6.13178 12.0995C6.13178 13.704 6.76916 15.2428 7.9037 16.3773C9.03825 17.5119 10.577 18.1492 12.1815 18.1492C13.786 18.1492 15.3248 17.5119 16.4593 16.3773C17.5939 15.2428 18.2313 13.704 18.2313 12.0995C18.2313 10.495 17.5939 8.95622 16.4593 7.82167C15.3248 6.68713 13.786 6.04974 12.1815 6.04974ZM20.0462 5.74726C20.0462 5.34613 19.8868 4.96144 19.6032 4.6778C19.3196 4.39417 18.9349 4.23482 18.5338 4.23482C18.1326 4.23482 17.7479 4.39417 17.4643 4.6778C17.1807 4.96144 17.0213 5.34613 17.0213 5.74726C17.0213 6.14838 17.1807 6.53307 17.4643 6.81671C17.7479 7.10035 18.1326 7.25969 18.5338 7.25969C18.9349 7.25969 19.3196 7.10035 19.6032 6.81671C19.8868 6.53307 20.0462 6.14838 20.0462 5.74726ZM12.1815 8.46964C13.1442 8.46964 14.0675 8.85207 14.7482 9.5328C15.4289 10.2135 15.8114 11.1368 15.8114 12.0995C15.8114 13.0622 15.4289 13.9855 14.7482 14.6662C14.0675 15.3469 13.1442 15.7293 12.1815 15.7293C11.2188 15.7293 10.2956 15.3469 9.61483 14.6662C8.9341 13.9855 8.55167 13.0622 8.55167 12.0995C8.55167 11.1368 8.9341 10.2135 9.61483 9.5328C10.2956 8.85207 11.2188 8.46964 12.1815 8.46964Z" fill="#351E72"/>
</svg>
