<svg width="21" height="21" viewBox="0 0 21 21" fill="none" xmlns="http://www.w3.org/2000/svg">
<path fill-rule="evenodd" clip-rule="evenodd" d="M1.86458 0C0.924866 0 0.163086 0.76178 0.163086 1.70149V18.7164C0.163086 19.6561 0.924866 20.4179 1.86458 20.4179H18.8795C19.8192 20.4179 20.581 19.6561 20.581 18.7164V1.70149C20.581 0.76178 19.8192 0 18.8795 0H1.86458ZM6.42543 4.54039C6.43182 5.62509 5.61989 6.29346 4.65642 6.28868C3.74877 6.28389 2.95758 5.56129 2.96237 4.54199C2.96715 3.5833 3.72485 2.81285 4.70906 2.83518C5.70762 2.85752 6.43182 3.58969 6.42543 4.54039ZM10.6893 7.67005H7.83081H7.82921V17.3797H10.8504V17.1532C10.8504 16.7222 10.85 16.2912 10.8497 15.86C10.8488 14.7101 10.8478 13.5588 10.8537 12.4092C10.8553 12.13 10.868 11.8398 10.9398 11.5733C11.2093 10.5779 12.1043 9.93512 13.1028 10.0931C13.744 10.1935 14.1683 10.5652 14.3469 11.1698C14.4571 11.5478 14.5065 11.9546 14.5113 12.3486C14.5242 13.5369 14.5224 14.7253 14.5206 15.9137C14.5199 16.3332 14.5192 16.7529 14.5192 17.1723V17.3781H17.5501V17.1452C17.5501 16.6325 17.5498 16.1199 17.5495 15.6073C17.5489 14.3261 17.5482 13.0449 17.5516 11.7632C17.5532 11.1841 17.4911 10.6131 17.3491 10.0532C17.1369 9.22049 16.6983 8.53139 15.9852 8.03376C15.4796 7.67961 14.9244 7.45151 14.3039 7.42599C14.2333 7.42305 14.162 7.4192 14.0905 7.41533C13.7732 7.39818 13.4507 7.38076 13.1474 7.44193C12.2796 7.6158 11.5172 8.013 10.9413 8.71322C10.8744 8.79353 10.809 8.87509 10.7113 8.9968L10.6893 9.02437V7.67005ZM3.20494 17.3829H6.2118V7.67637H3.20494V17.3829Z" fill="#324846"/>
</svg>
