<svg width="33" height="33" viewBox="0 0 33 33" fill="none" xmlns="http://www.w3.org/2000/svg">
<g clip-path="url(#clip0_581_5029)">
<path d="M6.95805 5.58862H12.4341L15.1721 12.4337L11.7496 14.4872C13.2157 17.46 15.6218 19.8661 18.5946 21.3323L20.6482 17.9097L27.4932 20.6477V26.1238C27.4932 26.85 27.2047 27.5464 26.6913 28.0599C26.1778 28.5733 25.4814 28.8618 24.7552 28.8618C19.415 28.5373 14.3783 26.2696 10.5953 22.4866C6.81226 18.7035 4.54456 13.6668 4.22003 8.32665C4.22003 7.60048 4.5085 6.90405 5.02198 6.39057C5.53546 5.87709 6.23189 5.58862 6.95805 5.58862Z" stroke="#6D24F5" stroke-width="2" stroke-linecap="round" stroke-linejoin="round"/>
</g>
<defs>
<clipPath id="clip0_581_5029">
<rect width="32.8563" height="32.8563" fill="white" transform="translate(0.11261 0.112549)"/>
</clipPath>
</defs>
</svg>
