<svg width="1920" height="1020" viewBox="0 0 1920 1020" fill="none" xmlns="http://www.w3.org/2000/svg">
<path d="M-423.864 659.231C-456.682 654.642 -479.566 624.318 -474.977 591.5L-399.591 52.4226C-395.002 19.6049 -364.678 -3.27891 -331.86 1.31036L2238.55 360.759C2271.37 365.349 2294.25 395.673 2289.67 428.491L2214.28 967.568C2209.69 1000.39 2179.37 1023.27 2146.55 1018.68L-423.864 659.231Z" fill="#6655D5" fill-opacity="0.06"/>
<path d="M-423.864 659.231C-456.682 654.642 -479.566 624.318 -474.977 591.5L-399.591 52.4226C-395.002 19.6049 -364.678 -3.27891 -331.86 1.31036L2238.55 360.759C2271.37 365.349 2294.25 395.673 2289.67 428.491L2214.28 967.568C2209.69 1000.39 2179.37 1023.27 2146.55 1018.68L-423.864 659.231Z" fill="#EFEAE4"/>
</svg>
