<svg width="31" height="22" viewBox="0 0 31 22" fill="none" xmlns="http://www.w3.org/2000/svg">
<path d="M29.6543 3.33191C29.4821 2.69276 29.1454 2.10987 28.6779 1.64126C28.2103 1.17265 27.6282 0.834665 26.9894 0.660946C24.6209 0.0105982 15.1455 1.14892e-05 15.1455 1.14892e-05C15.1455 1.14892e-05 5.67164 -0.0105759 3.30165 0.611035C2.66329 0.792749 2.08236 1.13551 1.61463 1.60642C1.1469 2.07733 0.808075 2.66057 0.630688 3.30015C0.00605224 5.66862 2.21594e-06 10.581 2.21594e-06 10.581C2.21594e-06 10.581 -0.0060475 15.5176 0.614051 17.8619C0.961912 19.158 1.98281 20.182 3.28048 20.5313C5.67315 21.1817 15.1229 21.1923 15.1229 21.1923C15.1229 21.1923 24.5983 21.2029 26.9667 20.5828C27.6057 20.4093 28.1884 20.0721 28.6571 19.6045C29.1258 19.1368 29.4643 18.5549 29.6392 17.9163C30.2654 15.5494 30.2699 10.6385 30.2699 10.6385C30.2699 10.6385 30.3001 5.70038 29.6543 3.33191ZM12.1146 15.1319L12.1222 6.05732L19.9974 10.6022L12.1146 15.1319Z" fill="#351E72"/>
</svg>
