<svg width="20" height="25" viewBox="0 0 20 25" fill="none" xmlns="http://www.w3.org/2000/svg">
<path fill-rule="evenodd" clip-rule="evenodd" d="M2.40259 0C5.00674 0 7.61093 0 10.2151 0C10.2151 3.43424 10.2151 6.8685 10.2151 10.3027C8.68505 10.2946 7.15512 10.3027 5.62524 10.3271C5.0728 10.5851 4.95073 10.9838 5.25903 11.5234C5.36928 11.6177 5.49135 11.6909 5.62524 11.7432C7.15512 11.7676 8.68505 11.7757 10.2151 11.7676C10.2151 12.2559 10.2151 12.7441 10.2151 13.2324C8.68505 13.2243 7.15512 13.2324 5.62524 13.2568C5.0728 13.5147 4.95073 13.9135 5.25903 14.4531C5.36928 14.5474 5.49135 14.6206 5.62524 14.6728C7.15512 14.6973 8.68505 14.7054 10.2151 14.6973C10.2151 15.1855 10.2151 15.6738 10.2151 16.1621C8.68505 16.1539 7.15512 16.1621 5.62524 16.1865C5.0728 16.4444 4.95073 16.8432 5.25903 17.3828C5.36928 17.477 5.49135 17.5503 5.62524 17.6025C7.15512 17.6269 8.68505 17.6351 10.2151 17.6269C10.2151 18.1152 10.2151 18.6035 10.2151 19.0918C8.68505 19.0836 7.15512 19.0918 5.62524 19.1162C5.0728 19.3741 4.95073 19.7729 5.25903 20.3125C5.36928 20.4067 5.49135 20.48 5.62524 20.5322C7.15512 20.5566 8.68505 20.5648 10.2151 20.5566C10.2151 22.0377 10.2151 23.5189 10.2151 25C7.61093 25 5.00674 25 2.40259 25C1.52445 24.7484 0.962926 24.1788 0.718019 23.291C0.685465 16.097 0.685465 8.90297 0.718019 1.70898C0.962926 0.821206 1.52445 0.251545 2.40259 0Z" fill="white"/>
<path fill-rule="evenodd" clip-rule="evenodd" d="M10.2151 0C11.1916 0 12.1682 0 13.1448 0C13.1366 1.80671 13.1448 3.61335 13.1692 5.41992C13.3189 6.00918 13.6852 6.39165 14.2678 6.56738C16.0907 6.59179 17.9136 6.59995 19.7366 6.59179C19.7447 12.1582 19.7366 17.7246 19.7122 23.291C19.4672 24.1788 18.9057 24.7484 18.0276 25C15.4234 25 12.8192 25 10.2151 25C10.2151 23.5189 10.2151 22.0377 10.2151 20.5566C10.821 20.5781 11.4232 20.5536 12.0217 20.4834C12.4246 20.1978 12.5141 19.8316 12.2903 19.3848C12.1877 19.2399 12.0494 19.1504 11.8752 19.1162C11.3221 19.0918 10.7687 19.0836 10.2151 19.0918C10.2151 18.6035 10.2151 18.1152 10.2151 17.6269C11.7451 17.6351 13.275 17.6269 14.8049 17.6025C15.1704 17.4972 15.3494 17.2531 15.342 16.8701C15.3272 16.5135 15.1481 16.2856 14.8049 16.1865C13.275 16.1621 11.7451 16.1539 10.2151 16.1621C10.2151 15.6738 10.2151 15.1855 10.2151 14.6973C11.7451 14.7054 13.275 14.6973 14.8049 14.6728C15.1704 14.5675 15.3494 14.3234 15.342 13.9404C15.3272 13.5838 15.1481 13.3559 14.8049 13.2568C13.275 13.2324 11.7451 13.2243 10.2151 13.2324C10.2151 12.7441 10.2151 12.2559 10.2151 11.7676C11.7451 11.7757 13.275 11.7676 14.8049 11.7432C15.1704 11.6378 15.3494 11.3937 15.342 11.0107C15.3272 10.6541 15.1481 10.4262 14.8049 10.3271C13.275 10.3027 11.7451 10.2946 10.2151 10.3027C10.2151 6.8685 10.2151 3.43424 10.2151 0Z" fill="#E5D8FF"/>
<path opacity="0.994" fill-rule="evenodd" clip-rule="evenodd" d="M13.1458 0C13.2434 0 13.3411 0 13.4387 0C15.519 2.0559 17.5942 4.12296 19.6643 6.20117C19.7254 6.32392 19.7499 6.4541 19.7376 6.59179C17.9146 6.59995 16.0917 6.59179 14.2688 6.56738C13.6861 6.39165 13.3199 6.00918 13.1702 5.41992C13.1458 3.61335 13.1376 1.80671 13.1458 0Z" fill="#9460F5"/>
<path fill-rule="evenodd" clip-rule="evenodd" d="M10.2139 10.3024C10.2139 10.7907 10.2139 11.2789 10.2139 11.7672C8.68383 11.7754 7.1539 11.7672 5.62401 11.7428C5.49013 11.6906 5.36806 11.6173 5.2578 11.5231C4.9495 10.9835 5.07157 10.5847 5.62401 10.3268C7.1539 10.3024 8.68383 10.2942 10.2139 10.3024Z" fill="#6A44CC"/>
<path fill-rule="evenodd" clip-rule="evenodd" d="M10.2151 10.3024C11.7451 10.2942 13.275 10.3024 14.8049 10.3268C15.1481 10.4259 15.3272 10.6537 15.342 11.0104C15.3494 11.3933 15.1704 11.6375 14.8049 11.7428C13.275 11.7672 11.7451 11.7754 10.2151 11.7672C10.2151 11.2789 10.2151 10.7907 10.2151 10.3024Z" fill="#9460F5"/>
<path fill-rule="evenodd" clip-rule="evenodd" d="M10.2139 13.2321C10.2139 13.7203 10.2139 14.2086 10.2139 14.6969C8.68383 14.7051 7.1539 14.6969 5.62401 14.6725C5.49013 14.6202 5.36806 14.547 5.2578 14.4528C4.9495 13.9132 5.07157 13.5144 5.62401 13.2565C7.1539 13.2321 8.68383 13.2239 10.2139 13.2321Z" fill="#6A44CC"/>
<path fill-rule="evenodd" clip-rule="evenodd" d="M10.2151 13.2321C11.7451 13.2239 13.275 13.2321 14.8049 13.2565C15.1481 13.3555 15.3272 13.5834 15.342 13.9401C15.3494 14.323 15.1704 14.5672 14.8049 14.6725C13.275 14.6969 11.7451 14.7051 10.2151 14.6969C10.2151 14.2086 10.2151 13.7203 10.2151 13.2321Z" fill="#9460F5"/>
<path fill-rule="evenodd" clip-rule="evenodd" d="M10.2139 16.1618C10.2139 16.65 10.2139 17.1383 10.2139 17.6266C8.68383 17.6347 7.1539 17.6266 5.62401 17.6022C5.49013 17.5499 5.36806 17.4767 5.2578 17.3825C4.9495 16.8429 5.07157 16.4441 5.62401 16.1862C7.1539 16.1618 8.68383 16.1536 10.2139 16.1618Z" fill="#6A44CC"/>
<path fill-rule="evenodd" clip-rule="evenodd" d="M10.2151 16.1618C11.7451 16.1536 13.275 16.1618 14.8049 16.1862C15.1481 16.2852 15.3272 16.5131 15.342 16.8698C15.3494 17.2527 15.1704 17.4969 14.8049 17.6022C13.275 17.6266 11.7451 17.6347 10.2151 17.6266C10.2151 17.1383 10.2151 16.65 10.2151 16.1618Z" fill="#9460F5"/>
<path fill-rule="evenodd" clip-rule="evenodd" d="M10.2139 19.0914C10.2139 19.5797 10.2139 20.068 10.2139 20.5563C8.68383 20.5644 7.1539 20.5563 5.62401 20.5319C5.49013 20.4796 5.36806 20.4064 5.2578 20.3121C4.9495 19.7725 5.07157 19.3738 5.62401 19.1159C7.1539 19.0914 8.68383 19.0833 10.2139 19.0914Z" fill="#6A44CC"/>
<path fill-rule="evenodd" clip-rule="evenodd" d="M10.2151 19.0914C10.7687 19.0833 11.3221 19.0914 11.8752 19.1159C12.0494 19.15 12.1877 19.2395 12.2903 19.3844C12.5141 19.8312 12.4246 20.1974 12.0217 20.483C11.4232 20.5533 10.821 20.5777 10.2151 20.5563C10.2151 20.068 10.2151 19.5797 10.2151 19.0914Z" fill="#9460F5"/>
</svg>
