<svg width="25" height="24" viewBox="0 0 25 24" fill="none" xmlns="http://www.w3.org/2000/svg">
<g clip-path="url(#clip0_1078_2204)">
<path d="M21.3174 19H23.3174V21H1.31738V19H3.31738V4C3.31738 3.73478 3.42274 3.48043 3.61028 3.29289C3.79781 3.10536 4.05217 3 4.31738 3H14.3174C14.5826 3 14.837 3.10536 15.0245 3.29289C15.212 3.48043 15.3174 3.73478 15.3174 4V19H19.3174V11H17.3174V9H20.3174C20.5826 9 20.837 9.10536 21.0245 9.29289C21.212 9.48043 21.3174 9.73478 21.3174 10V19ZM5.31738 5V19H13.3174V5H5.31738ZM7.31738 11H11.3174V13H7.31738V11ZM7.31738 7H11.3174V9H7.31738V7Z" fill="#324846"/>
</g>
<defs>
<clipPath id="clip0_1078_2204">
<rect width="24" height="24" fill="white" transform="translate(0.317383)"/>
</clipPath>
</defs>
</svg>
