<svg width="25" height="24" viewBox="0 0 25 24" fill="none" xmlns="http://www.w3.org/2000/svg">
<path fill-rule="evenodd" clip-rule="evenodd" d="M4.81738 6.9987C4.81738 6.07822 5.56357 5.33203 6.48405 5.33203H18.1507C19.0712 5.33203 19.8174 6.07822 19.8174 6.9987V13.6654C19.8174 14.5859 19.0712 15.332 18.1507 15.332H6.48405C5.56357 15.332 4.81738 14.5859 4.81738 13.6654V6.9987ZM6.48405 6.9987H18.1507V13.6654H6.48405V6.9987Z" fill="#324846"/>
<path d="M3.98372 17C3.52349 17 3.15039 17.3731 3.15039 17.8333C3.15039 18.2936 3.52349 18.6667 3.98372 18.6667H20.6504C21.1106 18.6667 21.4837 18.2936 21.4837 17.8333C21.4837 17.3731 21.1106 17 20.6504 17H3.98372Z" fill="#324846"/>
</svg>
