<svg width="25" height="24" viewBox="0 0 25 24" fill="none" xmlns="http://www.w3.org/2000/svg">
<g clip-path="url(#clip0_1078_2231)">
<path d="M20.3174 6H23.3174V8H22.3174V19H23.3174V21H1.31738V19H2.31738V8H1.31738V6H4.31738V4C4.31738 3.73478 4.42274 3.48043 4.61028 3.29289C4.79781 3.10536 5.05217 3 5.31738 3H19.3174C19.5826 3 19.837 3.10536 20.0245 3.29289C20.212 3.48043 20.3174 3.73478 20.3174 4V6ZM20.3174 8H4.31738V19H7.31738V12H9.31738V19H11.3174V12H13.3174V19H15.3174V12H17.3174V19H20.3174V8ZM6.31738 5V6H18.3174V5H6.31738Z" fill="#351E72"/>
</g>
<defs>
<clipPath id="clip0_1078_2231">
<rect width="24" height="24" fill="white" transform="translate(0.317383)"/>
</clipPath>
</defs>
</svg>
