<svg width="24" height="26" viewBox="0 0 24 26" fill="none" xmlns="http://www.w3.org/2000/svg">
<path d="M12.3531 16.0566L13.3572 18.0912C13.4258 18.2302 13.5585 18.3267 13.7119 18.349L15.9572 18.6752C16.3437 18.7313 16.498 19.2063 16.2184 19.4788L14.5937 21.0625C14.4826 21.1708 14.432 21.3268 14.4583 21.4796L14.8417 23.7158C14.9077 24.1006 14.5038 24.3941 14.1581 24.2124L12.1499 23.1567C12.0126 23.0846 11.8486 23.0846 11.7114 23.1567L9.70306 24.2124C9.35749 24.3941 8.95349 24.1006 9.01944 23.7158L9.40308 21.4796C9.42934 21.3268 9.37859 21.1708 9.26763 21.0625L7.64277 19.4788C7.36316 19.2063 7.5175 18.7313 7.90394 18.6752L10.1493 18.349C10.3027 18.3267 10.4354 18.2302 10.504 18.0912L11.5081 16.0566C11.681 15.7065 12.1803 15.7065 12.3531 16.0566Z" stroke="#351E72" stroke-width="1.5" stroke-miterlimit="10" stroke-linecap="round" stroke-linejoin="round"/>
<path d="M19.4092 13.8235L20.2851 15.5984C20.345 15.7197 20.4607 15.8038 20.5947 15.8231L22.5533 16.1078C22.8905 16.1568 23.025 16.5711 22.7811 16.8088L21.3637 18.1903C21.2669 18.2848 21.2227 18.4208 21.2455 18.5542L21.5802 20.5049C21.6377 20.8407 21.2854 21.0967 20.9838 20.9382L19.2319 20.0172C19.1122 19.9542 18.9692 19.9542 18.8494 20.0172L17.0975 20.9382C16.7961 21.0967 16.4437 20.8407 16.5013 20.5049L16.8358 18.5542C16.8586 18.4208 16.8145 18.2848 16.7176 18.1903L15.3003 16.8088C15.0564 16.5711 15.191 16.1568 15.5282 16.1078L17.4868 15.8231C17.6206 15.8038 17.7363 15.7197 17.7962 15.5984L18.6722 13.8235C18.8229 13.5181 19.2584 13.5181 19.4092 13.8235Z" stroke="#351E72" stroke-width="1.5" stroke-miterlimit="10" stroke-linecap="round" stroke-linejoin="round"/>
<path d="M5.46492 13.8235L6.34079 15.5984C6.4007 15.7197 6.51638 15.8038 6.65036 15.8231L8.60898 16.1078C8.94614 16.1568 9.08071 16.5711 8.8368 16.8088L7.41941 18.1903C7.32261 18.2848 7.27835 18.4208 7.30122 18.5542L7.63587 20.5049C7.69341 20.8407 7.34106 21.0967 7.03946 20.9382L5.28756 20.0172C5.16789 19.9542 5.02491 19.9542 4.9051 20.0172L3.1532 20.9382C2.85175 21.0967 2.49925 20.8407 2.55694 20.5049L2.89144 18.5542C2.91431 18.4208 2.8702 18.2848 2.77325 18.1903L1.356 16.8088C1.1121 16.5711 1.24667 16.1568 1.58368 16.1078L3.54245 15.8231C3.67628 15.8038 3.79196 15.7197 3.85187 15.5984L4.72789 13.8235C4.87854 13.5181 5.31412 13.5181 5.46492 13.8235Z" stroke="#351E72" stroke-width="1.5" stroke-miterlimit="10" stroke-linecap="round" stroke-linejoin="round"/>
<path d="M16.8433 5.47879C16.8433 7.95208 14.8384 9.95703 12.3651 9.95703C9.89182 9.95703 7.88672 7.95208 7.88672 5.47879C7.88672 3.00551 9.89182 1.00056 12.3651 1.00056C14.8384 1.00056 16.8433 3.00551 16.8433 5.47879Z" stroke="#351E72" stroke-width="1.5" stroke-miterlimit="10" stroke-linecap="round" stroke-linejoin="round"/>
<path d="M18.4137 14.3516C16.8309 12.5609 14.5105 11.4839 11.9236 11.4839C9.43803 11.4839 7.19862 12.4779 5.62305 14.1441" stroke="#351E72" stroke-width="1.5" stroke-miterlimit="10" stroke-linecap="round" stroke-linejoin="round"/>
</svg>
