<svg width="24" height="24" viewBox="0 0 24 24" fill="none" xmlns="http://www.w3.org/2000/svg">
<g clip-path="url(#clip0_1078_2250)">
<path d="M23.4291 22.0376H22.3863V9.39723C22.3863 9.08187 22.1306 8.82617 21.8154 8.82617H17.2631C16.9477 8.82617 16.692 9.08179 16.692 9.39723V22.0375H14.7992V13.1908C14.7992 12.8754 14.5435 12.6197 14.2283 12.6197H9.67591C9.36055 12.6197 9.10486 12.8753 9.10486 13.1908V22.0375H7.21199V16.9844C7.21199 16.669 6.95637 16.4134 6.64093 16.4134H2.0885C1.77315 16.4134 1.51745 16.669 1.51745 16.9844V22.0375H0.571055C0.255696 22.0375 0 22.2932 0 22.6085C7.96562e-05 22.924 0.255696 23.1797 0.571055 23.1797H23.429C23.7444 23.1797 24.0001 22.924 24.0001 22.6086C24.0001 22.2932 23.7444 22.0376 23.4291 22.0376ZM6.06988 22.0376H2.65956V21.7733L4.78654 19.6463C5.00957 19.4233 5.00957 19.0618 4.78654 18.8388C4.5635 18.6158 4.20202 18.6158 3.97898 18.8388L2.65956 20.1582V17.5555H6.06988V22.0376ZM13.657 22.0376H10.6491L12.432 20.2547C12.6551 20.0317 12.6551 19.6702 12.432 19.4471C12.2091 19.2241 11.8475 19.2241 11.6245 19.4471L10.2467 20.8249V17.9797L12.432 15.7944C12.6551 15.5715 12.6551 15.2099 12.432 14.9869C12.2091 14.7638 11.8475 14.7638 11.6245 14.9869L10.2467 16.3646V13.7618H13.657V22.0376ZM21.2443 22.0376H19.3882L19.9218 21.504C20.1448 21.281 20.1448 20.9195 19.9219 20.6965C19.699 20.4734 19.3374 20.4734 19.1144 20.6965L17.8341 21.9768V18.9913L19.9219 16.9035C20.1449 16.6804 20.1449 16.3189 19.9219 16.0959C19.6989 15.8729 19.3374 15.8729 19.1143 16.0959L17.8341 17.3762V14.2704L19.9218 12.1826C20.1448 11.9595 20.1448 11.598 19.9219 11.375C19.6989 11.152 19.3374 11.1521 19.1143 11.375L17.8341 12.6553V9.96828H21.2443V22.0376Z" fill="#324846"/>
<path d="M23.6009 1.69624L21.2988 0.855152C21.0025 0.746899 20.6747 0.899361 20.5665 1.19552C20.4582 1.49176 20.6106 1.81963 20.9069 1.9278L21.9897 2.32345L0.459773 13.1144C0.17787 13.2557 0.0638816 13.5988 0.205192 13.8808C0.305319 14.0806 0.506849 14.196 0.716026 14.196C0.802055 14.196 0.889358 14.1765 0.971484 14.1353L22.3995 3.39555L22.0219 4.42908C21.9136 4.72533 22.0661 5.05319 22.3623 5.16136C22.6585 5.2697 22.9863 5.11723 23.0945 4.82099L23.9653 2.43736C24.0755 2.13586 23.907 1.79294 23.6009 1.69624Z" fill="#324846"/>
</g>
<defs>
<clipPath id="clip0_1078_2250">
<rect width="24" height="24" fill="white"/>
</clipPath>
</defs>
</svg>
