<svg width="78" height="78" viewBox="0 0 78 78" fill="none" xmlns="http://www.w3.org/2000/svg">
<g filter="url(#filter0_d_1078_1480)">
<path d="M38.7076 3.51295C20.7463 3.51295 6.18581 18.0735 6.18581 36.0348C6.18581 53.9961 20.7463 68.5566 38.7076 68.5566C56.669 68.5566 71.2295 53.9961 71.2295 36.0348C71.2295 18.0735 56.669 3.51295 38.7076 3.51295Z" fill="url(#paint0_linear_1078_1480)"/>
</g>
<mask id="mask0_1078_1480" style="mask-type:luminance" maskUnits="userSpaceOnUse" x="34" y="22" width="15" height="28">
<path fill-rule="evenodd" clip-rule="evenodd" d="M34.6406 22.0332L48.1914 35.584L34.6406 49.1347V22.0332Z" fill="white"/>
</mask>
<g mask="url(#mask0_1078_1480)">
<mask id="mask1_1078_1480" style="mask-type:luminance" maskUnits="userSpaceOnUse" x="-383" y="-778" width="586" height="1367">
<path d="M-382.722 -777.461L-382.722 588.457H202.671L202.671 -777.461H-382.722Z" fill="white"/>
</mask>
<g mask="url(#mask1_1078_1480)">
<path d="M21.0899 8.48438V62.6875H61.7422V8.48438L21.0899 8.48438Z" fill="#7A48F5"/>
</g>
</g>
<defs>
<filter id="filter0_d_1078_1480" x="0.185547" y="0.513672" width="77.0439" height="77.043" filterUnits="userSpaceOnUse" color-interpolation-filters="sRGB">
<feFlood flood-opacity="0" result="BackgroundImageFix"/>
<feColorMatrix in="SourceAlpha" type="matrix" values="0 0 0 0 0 0 0 0 0 0 0 0 0 0 0 0 0 0 127 0" result="hardAlpha"/>
<feOffset dy="3"/>
<feGaussianBlur stdDeviation="3"/>
<feColorMatrix type="matrix" values="0 0 0 0 0 0 0 0 0 0 0 0 0 0 0 0 0 0 0.039 0"/>
<feBlend mode="normal" in2="BackgroundImageFix" result="effect1_dropShadow_1078_1480"/>
<feBlend mode="normal" in="SourceGraphic" in2="effect1_dropShadow_1078_1480" result="shape"/>
</filter>
<linearGradient id="paint0_linear_1078_1480" x1="7.16146" y1="62.7678" x2="70.9693" y2="4.94391" gradientUnits="userSpaceOnUse">
<stop stop-color="white"/>
<stop offset="1" stop-color="white"/>
</linearGradient>
</defs>
</svg>
