<svg width="24" height="24" viewBox="0 0 24 24" fill="none" xmlns="http://www.w3.org/2000/svg">
<path fill-rule="evenodd" clip-rule="evenodd" d="M20.4004 5.9998C20.4004 5.33707 19.8631 4.7998 19.2004 4.7998H4.80039C4.13763 4.7998 3.60039 5.33707 3.60039 5.9998C3.60039 6.66254 4.13763 7.1998 4.80039 7.1998H19.2004C19.8631 7.1998 20.4004 6.66254 20.4004 5.9998Z" fill="#6C2AEC"/>
<path fill-rule="evenodd" clip-rule="evenodd" d="M20.4004 11.9998C20.4004 11.3371 19.8631 10.7998 19.2004 10.7998H4.80039C4.13763 10.7998 3.60039 11.3371 3.60039 11.9998C3.60039 12.6626 4.13763 13.1998 4.80039 13.1998H19.2004C19.8631 13.1998 20.4004 12.6626 20.4004 11.9998Z" fill="#6C2AEC"/>
<path fill-rule="evenodd" clip-rule="evenodd" d="M13.2002 17.9998C13.2002 17.337 12.6629 16.7998 12.0002 16.7998H4.80019C4.13743 16.7998 3.60019 17.337 3.60019 17.9998C3.60019 18.6626 4.13743 19.1998 4.80019 19.1998H12.0002C12.6629 19.1998 13.2002 18.6626 13.2002 17.9998Z" fill="#6C2AEC"/>
</svg>
