<svg width="217" height="44" viewBox="0 0 217 44" fill="none" xmlns="http://www.w3.org/2000/svg">
<g clip-path="url(#clip0_1013_392)">
<path d="M15.2354 5.42627H14.1907C13.8586 5.42627 13.6472 5.64502 13.6472 5.97923V13.4412C13.6472 13.7693 13.5687 14.0124 13.4178 14.1643C13.291 14.298 13.0494 14.3709 12.7052 14.377H5.01796C4.21482 14.377 3.55056 14.0974 2.98897 13.5202C2.40925 12.949 2.13147 12.2684 2.13147 11.4602C2.13147 10.9012 2.28244 10.3665 2.57834 9.88035C2.87423 9.40031 3.27882 9.02356 3.78003 8.76227L4.20878 8.53744C4.34767 8.48275 4.45637 8.37338 4.49864 8.24577C4.52883 8.17893 4.54695 8.10601 4.54695 8.03309C4.54695 7.93587 4.51675 7.84472 4.47448 7.78396L4.0095 6.86033C3.91289 6.68411 3.78003 6.61119 3.67134 6.58081C3.54453 6.55042 3.42375 6.5565 3.26675 6.62334L2.80177 6.85425C1.96239 7.29176 1.27398 7.93587 0.760694 8.76835C0.259484 9.60691 0.00585938 10.5123 0.00585938 11.4663C0.00585938 12.8639 0.501031 14.0731 1.4793 15.0515C2.45756 16.0359 3.65322 16.5341 5.03004 16.5341H12.7233C13.6352 16.5341 14.384 16.2546 14.9516 15.7016C15.5072 15.1426 15.791 14.383 15.791 13.4473V5.98531C15.791 5.64502 15.5796 5.43235 15.2415 5.43235" fill="#565656"/>
<path d="M6.93855 5.24413H8.02551C8.36368 5.24413 8.57503 5.02538 8.57503 4.67902V3.50017C8.57503 3.15381 8.36368 2.93506 8.02551 2.93506H6.93855C6.59435 2.93506 6.37695 3.15381 6.37695 3.50017V4.67902C6.37695 5.02538 6.59435 5.24413 6.93855 5.24413Z" fill="#565656"/>
<path d="M9.8669 5.24413H10.9539C11.292 5.24413 11.5034 5.02538 11.5034 4.67902V3.50017C11.5034 3.15381 11.292 2.93506 10.9539 2.93506H9.8669C9.52874 2.93506 9.31738 3.15381 9.31738 3.50017V4.67902C9.31738 5.02538 9.52874 5.24413 9.8669 5.24413Z" fill="#565656"/>
<path d="M28.6901 3.32985H29.7771C30.1213 3.32985 30.3387 3.11718 30.3387 2.77689V1.47044C30.3387 1.13016 30.1213 0.91748 29.7771 0.91748H28.6901C28.352 0.91748 28.1406 1.13016 28.1406 1.47044V2.77689C28.1406 3.11718 28.352 3.32985 28.6901 3.32985Z" fill="#565656"/>
<path d="M31.6368 3.32985H32.7117C33.0619 3.32985 33.2733 3.11718 33.2733 2.77689V1.47044C33.2733 1.13016 33.0559 0.91748 32.7117 0.91748H31.6368C31.2865 0.91748 31.0752 1.13016 31.0752 1.47044V2.77689C31.0752 3.11718 31.2926 3.32985 31.6368 3.32985Z" fill="#565656"/>
<path d="M44.8612 19.9797V18.6794C44.8612 18.333 44.6438 18.1143 44.2996 18.1143H43.2247C42.8805 18.1143 42.6631 18.333 42.6631 18.6794V19.9797C42.6631 20.32 42.8805 20.5327 43.2247 20.5327H44.2996C44.6438 20.5327 44.8612 20.32 44.8612 19.9797Z" fill="#565656"/>
<path d="M41.365 20.5327C41.7092 20.5327 41.9266 20.32 41.9266 19.9797V18.6794C41.9266 18.333 41.7092 18.1143 41.365 18.1143H40.278C39.9399 18.1143 39.7285 18.333 39.7285 18.6794V19.9797C39.7285 20.32 39.9399 20.5327 40.278 20.5327H41.365Z" fill="#565656"/>
<path d="M50.7374 17.9619H51.8123C52.1202 17.9619 52.3739 18.2171 52.3739 18.527V19.8152C52.3739 20.1252 52.1202 20.3804 51.8123 20.3804H50.7374C50.4294 20.3804 50.1758 20.1252 50.1758 19.8152V18.527C50.1758 18.2171 50.4294 17.9619 50.7374 17.9619Z" fill="#565656"/>
<path d="M77.9714 3.32985H79.0463C79.3905 3.32985 79.6079 3.11718 79.6079 2.77689V1.47044C79.6079 1.13016 79.3905 0.91748 79.0463 0.91748H77.9714C77.6332 0.91748 77.4219 1.13016 77.4219 1.47044V2.77689C77.4219 3.11718 77.6332 3.32985 77.9714 3.32985Z" fill="#565656"/>
<path d="M75.0362 3.32985H76.1292C76.4674 3.32985 76.6787 3.11718 76.6787 2.77689V1.47044C76.6787 1.13016 76.4674 0.91748 76.1292 0.91748H75.0362C74.692 0.91748 74.4746 1.13016 74.4746 1.47044V2.77689C74.4746 3.11718 74.692 3.32985 75.0362 3.32985Z" fill="#565656"/>
<path d="M79.6257 16.5342H82.3854C83.2972 16.5342 84.046 16.2547 84.6136 15.7017C85.1692 15.1427 85.453 14.3831 85.453 13.4473V0.577268C85.453 0.230907 85.2417 0.012153 84.9035 0.012153H83.8709C83.5327 0.012153 83.3214 0.230907 83.3214 0.577268V13.4595C83.3214 13.7937 83.2489 14.0367 83.104 14.1826C82.9892 14.3041 82.79 14.3709 82.5182 14.3892H80.6462L79.354 14.3831C78.6474 14.3831 78.3576 14.2373 78.2308 14.1097C78.1583 14.0367 78.1221 13.9152 78.1221 13.739V5.99751C78.1221 5.65115 77.9107 5.4324 77.5726 5.4324H76.5399C76.2078 5.4324 75.9965 5.65115 75.9965 5.99751V13.4412C75.9965 13.7815 75.924 14.0307 75.767 14.1765C75.6341 14.3163 75.4047 14.3892 75.0967 14.3892H70.7851C70.3443 14.3892 70.0242 14.2798 69.7947 14.055C69.6438 13.9091 69.5713 13.7086 69.5713 13.4473V10.3848C69.5713 8.77448 69.1305 7.46195 68.2669 6.48971C67.4034 5.50532 66.2379 5.00704 64.8007 5.00704C63.2609 5.00704 61.4372 5.93067 59.3901 7.7597V0.552962C59.3901 0.212678 59.1787 0 58.8466 0H57.814C57.4758 0 57.2645 0.212678 57.2645 0.552962V14.3831H53.5628C52.814 14.377 52.5483 14.219 52.4516 14.1218C52.3792 14.0489 52.3429 13.9213 52.3429 13.739V5.98536C52.3429 5.64508 52.1256 5.4324 51.7813 5.4324H50.7608C50.4226 5.4324 50.2113 5.64508 50.2113 5.98536V13.4473C50.2113 13.7876 50.1388 14.0307 50.006 14.1704C49.861 14.3041 49.6255 14.377 49.3115 14.3831H45.6159C44.9033 14.3831 44.6134 14.2373 44.4927 14.1157C44.4202 14.0428 44.384 13.9213 44.384 13.739V5.99751C44.384 5.65115 44.1666 5.4324 43.8224 5.4324H42.8018C42.4637 5.4324 42.2523 5.65115 42.2523 5.99751V13.4412C42.2523 13.7876 42.1798 14.0367 42.0349 14.1765C41.9021 14.3163 41.6726 14.3892 41.3646 14.3892H35.7064V9.93509C35.7064 8.58003 35.2233 7.40726 34.2631 6.45325C33.309 5.49316 32.1375 5.00097 30.7909 5.00097C29.4443 5.00097 28.2728 5.48709 27.3187 6.45325C26.3585 7.40726 25.8754 8.58003 25.8754 9.94117V11.6061C25.8754 12.627 26.1653 13.5628 26.7389 14.3952H21.9744C21.6664 14.3952 21.437 14.3223 21.292 14.1826C21.1532 14.0367 21.0867 13.7937 21.0867 13.4595V0.577268C21.0867 0.230907 20.8693 0.012153 20.5251 0.012153H19.5046C19.1664 0.012153 18.9551 0.230907 18.9551 0.577268V13.4473C18.9551 14.3892 19.2389 15.1487 19.7945 15.7017C20.344 16.2547 21.0928 16.5342 22.0107 16.5342H41.3224C42.1798 16.5342 42.8803 16.2972 43.4419 15.7928C44.0156 16.279 44.8188 16.5281 45.8393 16.5342H45.8876H49.2813C50.1569 16.5342 50.8695 16.279 51.4009 15.7807C51.9746 16.2729 52.7777 16.522 53.7983 16.5281H53.8466H65.5616C66.8056 16.5281 67.7839 16.1696 68.4783 15.4647C68.5145 15.5073 68.5508 15.5437 68.581 15.5802C69.209 16.206 70.0302 16.522 71.0206 16.5281H71.0568H75.0665C75.93 16.5281 76.6426 16.279 77.18 15.7868C77.7537 16.2668 78.5629 16.516 79.5834 16.522H79.6317L79.6257 16.5342ZM62.1437 8.17898C63.2246 7.49841 64.1184 7.14597 64.8068 7.14597C65.8635 7.14597 66.5822 7.56525 67.0109 8.44027C67.2826 8.98716 67.4215 9.63734 67.4215 10.3787V12.5115C67.4215 13.1799 67.2766 13.66 66.9807 13.9517C66.6969 14.2433 66.2198 14.3892 65.5556 14.3892H59.3901V10.6217C60.1449 9.67988 61.0688 8.85347 62.1437 8.17898ZM30.7788 7.14597C31.5518 7.14597 32.1919 7.41334 32.7353 7.9663C33.2849 8.51319 33.5506 9.15122 33.5506 9.92902V14.3831H30.7788C30.0119 14.3831 29.3718 14.1157 28.8223 13.5628C28.2728 13.0098 28.0071 12.3657 28.0071 11.594V9.92902C28.0071 9.1573 28.2728 8.51319 28.8223 7.9663C29.3718 7.41334 30.0119 7.14597 30.7788 7.14597Z" fill="#565656"/>
<path d="M89.1608 16.5342H90.2055C90.5377 16.5342 90.749 16.3155 90.749 15.9813V0.565169C90.749 0.224885 90.5377 0.012207 90.2055 0.012207H89.1608C88.8227 0.012207 88.6113 0.224885 88.6113 0.565169V15.9752C88.6113 16.3155 88.8227 16.5282 89.1608 16.5282" fill="#565656"/>
<path d="M113.696 18.1143C113.358 18.1143 113.146 18.333 113.146 18.6794V19.9797C113.146 20.32 113.358 20.5327 113.696 20.5327H114.783C115.127 20.5327 115.345 20.32 115.345 19.9797V18.6794C115.345 18.333 115.127 18.1143 114.783 18.1143H113.696Z" fill="#565656"/>
<path d="M116.644 18.1143C116.299 18.1143 116.082 18.333 116.082 18.6794V19.9797C116.082 20.32 116.299 20.5327 116.644 20.5327H117.719C118.063 20.5327 118.28 20.32 118.28 19.9797V18.6794C118.28 18.333 118.063 18.1143 117.719 18.1143H116.644Z" fill="#565656"/>
<path d="M116.849 15.7867C117.422 16.2728 118.225 16.5219 119.246 16.528H119.294H131.342C131.637 16.528 131.891 16.4247 132.096 16.212C132.302 15.9993 132.41 15.7502 132.41 15.4525V9.92284C132.41 8.56778 131.927 7.38894 130.979 6.42885C130.019 5.46876 128.854 4.97656 127.507 4.97656C126.16 4.97656 124.989 5.46268 124.035 6.42885C123.087 7.38894 122.604 8.56778 122.604 9.92284V11.5757C122.604 12.6087 122.887 13.5505 123.449 14.3708H119.023C118.31 14.3708 118.02 14.225 117.899 14.1035C117.827 14.0306 117.791 13.909 117.791 13.7267V5.98526C117.791 5.6389 117.573 5.42015 117.229 5.42015H116.209C115.87 5.42015 115.659 5.6389 115.659 5.98526V13.429C115.659 13.7753 115.587 14.0245 115.442 14.1642C115.309 14.304 115.079 14.3769 114.771 14.3769H110.943C110.496 14.3769 110.17 14.2675 109.946 14.0427C109.789 13.8847 109.711 13.6842 109.711 13.429V9.24227C109.711 8.06951 109.294 7.06081 108.473 6.2344C107.646 5.40799 106.637 4.98872 105.484 4.98872C104.149 4.98872 103.074 5.27431 102.289 5.83943L101.885 6.1311C101.758 6.22225 101.673 6.34985 101.649 6.49569V6.59899C101.649 6.73267 101.692 6.8542 101.758 6.91497L102.35 7.7596C102.446 7.89936 102.579 7.97836 102.736 7.99051H102.803C102.911 7.99051 103.014 7.96013 103.123 7.89329L103.545 7.60161C103.962 7.30387 104.62 7.15195 105.49 7.15195C106.07 7.15195 106.553 7.35248 106.969 7.76568C107.386 8.18496 107.591 8.67108 107.591 9.25442V12.8031C107.591 13.3682 107.483 13.7632 107.259 13.9819C107 14.2554 106.474 14.3891 105.713 14.3891H100.985C100.647 14.3891 100.436 14.6078 100.436 14.9542V15.9811C100.436 16.3214 100.647 16.5341 100.985 16.5341H105.713C107.006 16.5341 108.008 16.2059 108.702 15.5558C108.709 15.5618 108.715 15.574 108.721 15.5801C109.343 16.1999 110.17 16.5159 111.166 16.528H111.221H114.723C115.581 16.528 116.281 16.291 116.843 15.7867M127.507 7.14588C128.28 7.14588 128.926 7.41324 129.47 7.95405C130.019 8.50701 130.285 9.15112 130.285 9.92892V14.383H127.507C126.734 14.383 126.094 14.1156 125.544 13.5627C125.001 13.0097 124.741 12.3656 124.741 11.5878V9.93499C124.741 9.1572 125.007 8.50701 125.544 7.96013C126.094 7.41324 126.734 7.15195 127.507 7.15195" fill="#565656"/>
<path d="M128.364 3.32985H129.439C129.783 3.32985 130.001 3.11718 130.001 2.77689V1.47044C130.001 1.13016 129.783 0.91748 129.439 0.91748H128.364C128.02 0.91748 127.803 1.13016 127.803 1.47044V2.77689C127.803 3.11718 128.02 3.32985 128.364 3.32985Z" fill="#565656"/>
<path d="M125.436 3.32985H126.523C126.861 3.32985 127.072 3.11718 127.072 2.77689V1.47044C127.072 1.13016 126.861 0.91748 126.523 0.91748H125.436C125.091 0.91748 124.874 1.13016 124.874 1.47044V2.77689C124.874 3.11718 125.091 3.32985 125.436 3.32985Z" fill="#565656"/>
<path d="M144.052 3.32985H145.139C145.484 3.32985 145.701 3.11718 145.701 2.77689V1.47044C145.701 1.13016 145.484 0.91748 145.139 0.91748H144.052C143.714 0.91748 143.503 1.13016 143.503 1.47044V2.77689C143.503 3.11718 143.714 3.32985 144.052 3.32985Z" fill="#565656"/>
<path d="M160.073 14.3832H154.53C154.041 14.3832 153.66 14.1765 153.352 13.7573C153.068 13.3684 152.929 12.9066 152.929 12.3536V9.92907C152.929 9.15128 153.195 8.50109 153.733 7.9542C154.282 7.40732 154.922 7.14603 155.689 7.14603C156.245 7.14603 156.758 7.29794 157.223 7.60177C157.682 7.89344 157.948 8.23372 158.032 8.64085L158.147 9.12697C158.195 9.41257 158.388 9.58271 158.654 9.58271C158.696 9.58271 158.745 9.58271 158.811 9.56448L159.826 9.32749C160.091 9.26065 160.254 9.07836 160.254 8.8353C160.254 8.78061 160.254 8.732 160.236 8.67123L160.128 8.1608C159.922 7.25541 159.385 6.49584 158.539 5.89427C157.694 5.29269 156.74 4.98887 155.689 4.98887C154.348 4.98887 153.183 5.47499 152.223 6.44115C151.275 7.40124 150.792 8.58008 150.792 9.93515V12.3597C150.792 13.0767 150.949 13.7573 151.257 14.3892H146.897C146.19 14.3892 145.894 14.2434 145.774 14.1219C145.701 14.0489 145.665 13.9274 145.665 13.7451V6.00364C145.665 5.65728 145.447 5.43853 145.103 5.43853H144.083C143.745 5.43853 143.533 5.65728 143.533 6.00364V13.4413C143.533 13.7877 143.461 14.0368 143.316 14.1765C143.183 14.3163 142.953 14.3892 142.646 14.3892H138.594C138.286 14.3892 138.056 14.3163 137.911 14.1765C137.772 14.0368 137.706 13.7877 137.706 13.4534V0.577322C137.706 0.224885 137.488 0.012207 137.144 0.012207H136.124C135.786 0.012207 135.574 0.230961 135.574 0.577322V13.4474C135.574 14.3892 135.858 15.1488 136.414 15.7018C136.963 16.2547 137.712 16.5342 138.63 16.5342H142.609C143.467 16.5342 144.167 16.2973 144.729 15.7929C145.303 16.279 146.106 16.5282 147.126 16.5342H147.175H160.079C160.417 16.5342 160.629 16.3216 160.629 15.9813V14.9422C160.629 14.6019 160.417 14.3892 160.079 14.3892" fill="#565656"/>
<path d="M6.44931 28.9482L0 43.8357H1.17754C1.50363 43.8357 1.79349 43.7506 2.05919 43.5744C2.32489 43.4043 2.51813 43.1673 2.64494 42.8756L3.66548 40.5058H11.2199L12.2525 42.8756C12.3853 43.1733 12.5786 43.4103 12.8382 43.5744C13.0979 43.7445 13.3938 43.8296 13.7138 43.8296H14.8914L8.44208 28.9482H6.44931ZM4.56524 38.4519L7.25849 32.2296C7.3068 32.102 7.34907 31.9683 7.37927 31.8224C7.40946 31.6766 7.43362 31.5186 7.44569 31.3424C7.46381 31.6887 7.53023 31.9804 7.63893 32.2235L10.3322 38.4458H4.56524V38.4519Z" fill="#565656"/>
<path d="M25.7123 30.3215C25.2956 29.9023 24.8004 29.568 24.2388 29.3189C23.6772 29.0758 23.0734 28.9482 22.4333 28.9482H17.1494V43.8296H19.1905V38.2939H22.4333C23.0734 38.2939 23.6772 38.1724 24.2388 37.9232C24.8004 37.6802 25.2956 37.346 25.7123 36.9206C26.1289 36.5013 26.4611 36.0031 26.7086 35.438C26.9502 34.8728 27.077 34.2652 27.077 33.6211C27.077 32.977 26.9562 32.3693 26.7086 31.8042C26.4611 31.2391 26.1289 30.7408 25.7123 30.3215ZM24.8246 34.648C24.6917 34.964 24.5045 35.2374 24.269 35.4805C24.0335 35.7175 23.7557 35.9058 23.4357 36.0395C23.1217 36.1732 22.7835 36.2401 22.4272 36.2401H19.1844V31.0082H22.4272C22.7835 31.0082 23.1217 31.075 23.4357 31.2087C23.7497 31.3424 24.0275 31.5308 24.269 31.7677C24.5045 32.0047 24.6917 32.2842 24.8246 32.6063C24.9574 32.9223 25.0239 33.2626 25.0239 33.6211C25.0239 33.9796 24.9574 34.332 24.8246 34.6419" fill="#565656"/>
<path d="M38.9496 30.3215C38.5329 29.9023 38.0377 29.568 37.4761 29.3189C36.9145 29.0758 36.3107 28.9482 35.6706 28.9482H30.3867V43.8296H32.4278V38.2939H35.6706C36.3107 38.2939 36.9145 38.1724 37.4761 37.9232C38.0377 37.6802 38.5329 37.346 38.9496 36.9206C39.3662 36.5013 39.6984 36.0031 39.946 35.438C40.1875 34.8728 40.3143 34.2652 40.3143 33.6211C40.3143 32.977 40.1935 32.3693 39.946 31.8042C39.6984 31.2391 39.3662 30.7408 38.9496 30.3215ZM38.0679 34.648C37.9351 34.964 37.7479 35.2374 37.5124 35.4805C37.2769 35.7175 36.9991 35.9058 36.679 36.0395C36.365 36.1732 36.0268 36.2401 35.6706 36.2401H32.4278V31.0082H35.6706C36.0268 31.0082 36.365 31.075 36.679 31.2087C36.993 31.3424 37.2708 31.5308 37.5124 31.7677C37.7479 32.0047 37.9351 32.2842 38.0679 32.6063C38.2008 32.9223 38.2672 33.2626 38.2672 33.6211C38.2672 33.9796 38.2008 34.332 38.0679 34.6419" fill="#565656"/>
<path d="M50.2719 36.1733C50.0666 36.0153 49.8492 35.8755 49.6197 35.7601C49.3902 35.6446 49.1608 35.5352 48.9313 35.4319C48.6958 35.3286 48.4603 35.2375 48.2127 35.1524C47.9651 35.0673 47.7236 34.9762 47.482 34.879C46.9929 34.7149 46.5762 34.5569 46.238 34.4111C45.8999 34.2652 45.6221 34.1133 45.4047 33.9493C45.1933 33.7852 45.0363 33.6029 44.9397 33.3963C44.8431 33.1897 44.7948 32.9345 44.7948 32.6367C44.7948 32.3815 44.8552 32.1445 44.988 31.9258C45.1148 31.707 45.29 31.5187 45.5013 31.3607C45.7127 31.2027 45.9663 31.0751 46.2562 30.9839C46.54 30.8928 46.8479 30.8502 47.168 30.8502C47.4095 30.8502 47.6692 30.911 47.9409 31.0265C48.2187 31.1419 48.4905 31.2999 48.7562 31.4944C49.0098 31.6584 49.2997 31.7374 49.6257 31.7374C50.0062 31.7374 50.3383 31.6098 50.6282 31.3607L51.1535 30.9657C50.9663 30.7348 50.7308 30.4978 50.453 30.2365C50.1692 29.9813 49.8552 29.7443 49.505 29.5316C49.1547 29.319 48.7803 29.1427 48.3818 29.003C47.9832 28.8632 47.5786 28.7964 47.174 28.7964C46.6185 28.7964 46.075 28.8815 45.5436 29.0577C45.0122 29.2278 44.5412 29.483 44.1305 29.8112C43.7199 30.1393 43.3878 30.5403 43.1342 31.0204C42.8805 31.5004 42.7598 32.0412 42.7598 32.6489C42.7598 33.3112 42.8745 33.8703 43.104 34.3139C43.3334 34.7574 43.6414 35.1403 44.0218 35.4441C44.4023 35.754 44.8371 36.0153 45.3202 36.228C45.8033 36.4406 46.3045 36.6472 46.8117 36.8538C47.1559 36.9936 47.5062 37.1273 47.8564 37.261C48.2127 37.3946 48.5327 37.5526 48.8166 37.741C49.1004 37.9294 49.3359 38.1542 49.511 38.4155C49.6922 38.6768 49.7767 39.011 49.7767 39.412C49.7767 39.8131 49.6801 40.1959 49.4929 40.5058C49.3057 40.8157 49.0641 41.0831 48.7682 41.2958C48.4724 41.5084 48.1523 41.6664 47.79 41.7758C47.4337 41.8852 47.0835 41.9399 46.7453 41.9399C46.3347 41.9399 45.9663 41.8791 45.6462 41.7576C45.3262 41.6361 45.0363 41.4659 44.7767 41.2411L44.6136 41.1074C44.3057 40.7793 43.9252 40.6213 43.4784 40.6213C43.1945 40.6213 42.9228 40.7003 42.6631 40.8583L42.168 41.1195C42.2102 41.2046 42.2646 41.3079 42.331 41.4294C42.3974 41.5571 42.482 41.6907 42.5846 41.8427C42.6813 41.9946 42.802 42.1526 42.9409 42.3166C43.0798 42.4807 43.2368 42.6387 43.418 42.7967C44.3117 43.5927 45.4228 43.9937 46.7513 43.9937C47.4156 43.9937 48.0557 43.8783 48.6716 43.6534C49.2815 43.4286 49.825 43.1126 50.29 42.7055C50.755 42.2984 51.1294 41.8183 51.4071 41.2532C51.6849 40.6942 51.8178 40.0744 51.8178 39.3938C51.8178 38.0448 51.2985 36.9693 50.2598 36.1733" fill="#565656"/>
<path d="M70.9903 36.4287C70.9118 36.3619 70.8273 36.3011 70.7367 36.2646C70.6461 36.2221 70.5495 36.1856 70.4589 36.1613C70.3684 36.1309 70.2778 36.1127 70.1932 36.1066C70.1087 36.0945 70.0483 36.0884 70 36.0884C70.2234 36.0763 70.4348 35.973 70.6401 35.7846C70.8454 35.5962 71.0266 35.3532 71.1836 35.0676C71.3406 34.782 71.4734 34.466 71.57 34.1196C71.6667 33.7793 71.715 33.4451 71.715 33.1292C71.715 32.5519 71.6063 32.0111 71.3889 31.5067C71.1715 30.9963 70.8756 30.5527 70.5012 30.176C70.1268 29.7992 69.686 29.5015 69.1787 29.2827C68.6715 29.064 68.134 28.9546 67.5604 28.9546H61.7451V43.836H63.7862L68.1522 43.8238C68.7439 43.8238 69.2995 43.7083 69.8128 43.4835C70.3261 43.2587 70.779 42.9549 71.1655 42.572C71.5519 42.1892 71.8539 41.7335 72.0773 41.217C72.3007 40.7005 72.4094 40.1414 72.4094 39.5459C72.4094 38.9504 72.2766 38.3489 72.0048 37.8141C71.7391 37.2855 71.3949 36.8237 70.9843 36.4287M63.7862 31.0084H67.5543C67.8442 31.0084 68.1159 31.0631 68.3756 31.1725C68.6353 31.2819 68.8587 31.4338 69.0519 31.6283C69.2452 31.8227 69.3961 32.0475 69.5048 32.3088C69.6135 32.5701 69.6679 32.8436 69.6679 33.1352C69.6679 33.4269 69.6135 33.7003 69.5048 33.9556C69.3961 34.2108 69.2452 34.4356 69.0519 34.63C68.8587 34.8245 68.6353 34.9764 68.3756 35.0858C68.1159 35.1952 67.8442 35.2499 67.5543 35.2499H63.7862V31.0024V31.0084ZM70.1932 40.4027C70.0785 40.6762 69.9155 40.9132 69.7162 41.1137C69.5169 41.3203 69.2814 41.4783 69.0157 41.5998C68.75 41.7153 68.4601 41.776 68.1461 41.776H63.7802V37.3098H68.1582C68.4601 37.3098 68.7439 37.3706 69.0157 37.486C69.2814 37.6015 69.5169 37.7655 69.7162 37.9661C69.9155 38.1666 70.0725 38.4036 70.1932 38.6709C70.308 38.9444 70.3684 39.23 70.3684 39.5338C70.3684 39.8376 70.308 40.1293 70.1932 40.3967" fill="#565656"/>
<path d="M85.5019 38.0144C85.5019 38.5552 85.3992 39.0656 85.1999 39.5396C84.9946 40.0196 84.7168 40.4328 84.3666 40.7914C84.0103 41.1499 83.5997 41.4294 83.1226 41.6299C82.6456 41.8365 82.1444 41.9337 81.6069 41.9337C81.0695 41.9337 80.5622 41.8304 80.0912 41.6299C79.6142 41.4233 79.2035 41.1438 78.8473 40.7914C78.491 40.4328 78.2132 40.0196 78.0139 39.5396C77.8086 39.0596 77.712 38.5552 77.712 38.0144V28.9482H75.6709V38.0144C75.6709 38.5613 75.7434 39.0899 75.8823 39.6004C76.0211 40.1108 76.2204 40.5908 76.4801 41.0344C76.7397 41.478 77.0477 41.8791 77.41 42.2436C77.7724 42.6082 78.177 42.9181 78.6178 43.1794C79.0586 43.4407 79.5296 43.6412 80.0369 43.781C80.5441 43.9208 81.0695 43.9937 81.613 43.9937C82.1564 43.9937 82.6878 43.9208 83.1951 43.781C83.7023 43.6412 84.1734 43.4407 84.6142 43.1794C85.055 42.9181 85.4536 42.6082 85.8219 42.2436C86.1842 41.8791 86.4983 41.478 86.7579 41.0344C87.0176 40.5908 87.2169 40.1169 87.3558 39.6064C87.4946 39.096 87.5671 38.5674 87.5671 38.0144V28.9482H85.526V38.0144H85.5019Z" fill="#565656"/>
<path d="M101.818 40.5121C101.776 40.0989 101.661 39.7525 101.48 39.4852L94.3061 29.544C94.1612 29.3435 93.968 29.1976 93.7204 29.1004C93.4728 29.0032 93.183 28.9546 92.8508 28.9546H91.3955V43.836H93.4366V31.3427C93.4547 31.4581 93.4789 31.5736 93.509 31.6769C93.5392 31.7741 93.5694 31.8713 93.6057 31.9625C93.6419 32.0536 93.6902 32.1387 93.7446 32.2177L102.199 43.842H103.859V28.9607H101.818V40.5182V40.5121Z" fill="#565656"/>
<path d="M110.768 32.4668C111.269 31.9624 111.849 31.5674 112.519 31.2758C113.183 30.9841 113.902 30.8383 114.663 30.8383C115.248 30.8383 115.804 30.9233 116.329 31.0995C116.855 31.2697 117.344 31.5127 117.803 31.8287C118.062 32.011 118.352 32.0961 118.66 32.0961C118.902 32.0961 119.113 32.0536 119.3 31.9685C119.488 31.8834 119.657 31.7619 119.814 31.5978L120.194 31.215C119.85 30.8383 119.469 30.504 119.053 30.2002C118.636 29.8964 118.195 29.6473 117.724 29.4346C117.253 29.228 116.764 29.0639 116.251 28.9485C115.737 28.833 115.206 28.7783 114.663 28.7783C113.968 28.7783 113.298 28.8695 112.658 29.0457C112.012 29.228 111.414 29.4832 110.852 29.8113C110.291 30.1455 109.783 30.5405 109.324 31.0023C108.865 31.4641 108.473 31.9746 108.141 32.5397C107.809 33.1048 107.555 33.7124 107.38 34.3566C107.199 35.0067 107.114 35.6752 107.114 36.374C107.114 37.4252 107.314 38.4157 107.706 39.3332C108.105 40.2568 108.642 41.0589 109.324 41.7456C110.007 42.4322 110.81 42.9791 111.722 43.3741C112.64 43.7751 113.618 43.9696 114.663 43.9696C115.206 43.9696 115.737 43.9149 116.251 43.7994C116.764 43.684 117.259 43.526 117.724 43.3194C118.189 43.1128 118.636 42.8576 119.053 42.5538C119.469 42.2499 119.85 41.9157 120.194 41.539L119.814 41.1562C119.657 40.9982 119.488 40.8766 119.3 40.7916C119.119 40.7065 118.902 40.664 118.654 40.664C118.34 40.664 118.05 40.749 117.797 40.9253C117.344 41.2352 116.855 41.4782 116.329 41.6544C115.804 41.8246 115.248 41.9157 114.657 41.9157C113.896 41.9157 113.177 41.7699 112.513 41.4782C111.849 41.1866 111.263 40.7916 110.762 40.2872C110.26 39.7829 109.868 39.1995 109.578 38.525C109.288 37.8505 109.143 37.1335 109.143 36.3618C109.143 35.5901 109.288 34.8731 109.578 34.2046C109.868 33.5362 110.26 32.9468 110.762 32.4425" fill="#565656"/>
<path d="M133.388 35.3164H125.423V28.9482H123.376V43.8357H125.423V37.3703H133.388V43.8357H135.429V28.9482H133.388V35.3164Z" fill="#565656"/>
<path d="M139.56 43.8357H148.702V41.7758H141.601V37.3521H147.349V35.2982H141.601V31.0082H148.702V28.9482H139.56V43.8357Z" fill="#565656"/>
<path d="M159.016 36.1733C158.811 36.0153 158.593 35.8755 158.364 35.7601C158.135 35.6446 157.905 35.5352 157.67 35.4319C157.434 35.3286 157.199 35.2375 156.951 35.1524C156.703 35.0673 156.462 34.9762 156.22 34.879C155.731 34.7149 155.314 34.5569 154.976 34.4111C154.638 34.2652 154.36 34.1133 154.143 33.9493C153.932 33.7852 153.775 33.6029 153.678 33.3963C153.581 33.1897 153.533 32.9345 153.533 32.6367C153.533 32.3815 153.593 32.1445 153.726 31.9258C153.853 31.707 154.028 31.5187 154.24 31.3607C154.451 31.2027 154.705 31.0751 154.994 30.9839C155.278 30.8928 155.586 30.8502 155.906 30.8502C156.148 30.8502 156.407 30.911 156.679 31.0265C156.957 31.1419 157.229 31.2999 157.494 31.4944C157.748 31.6584 158.038 31.7374 158.364 31.7374C158.744 31.7374 159.077 31.6098 159.366 31.3607L159.892 30.9657C159.705 30.7348 159.469 30.4978 159.191 30.2365C158.908 29.9813 158.593 29.7443 158.243 29.5316C157.893 29.319 157.519 29.1427 157.12 29.003C156.722 28.8632 156.317 28.7964 155.912 28.7964C155.357 28.7964 154.813 28.8815 154.282 29.0577C153.75 29.2278 153.279 29.483 152.869 29.8112C152.458 30.1393 152.126 30.5403 151.872 31.0204C151.619 31.5004 151.498 32.0412 151.498 32.6489C151.498 33.3112 151.613 33.8703 151.842 34.3139C152.072 34.7574 152.38 35.1403 152.76 35.4441C153.141 35.754 153.575 36.0153 154.058 36.228C154.542 36.4406 155.043 36.6472 155.55 36.8538C155.894 36.9936 156.244 37.1273 156.595 37.261C156.951 37.3946 157.271 37.5526 157.555 37.741C157.839 37.9294 158.074 38.1542 158.249 38.4155C158.43 38.6768 158.515 39.011 158.515 39.412C158.515 39.8131 158.418 40.1959 158.231 40.5058C158.044 40.8157 157.802 41.0831 157.507 41.2958C157.211 41.5084 156.891 41.6664 156.528 41.7758C156.172 41.8852 155.822 41.9399 155.484 41.9399C155.073 41.9399 154.705 41.8791 154.385 41.7576C154.064 41.6361 153.775 41.4659 153.515 41.2411L153.352 41.1074C153.044 40.7793 152.664 40.6213 152.217 40.6213C151.933 40.6213 151.661 40.7003 151.401 40.8583L150.906 41.1195C150.949 41.2046 151.003 41.3079 151.069 41.4294C151.136 41.5571 151.22 41.6907 151.323 41.8427C151.42 41.9946 151.54 42.1526 151.679 42.3166C151.818 42.4807 151.975 42.6387 152.156 42.7967C153.05 43.5927 154.161 43.9937 155.49 43.9937C156.154 43.9937 156.794 43.8783 157.41 43.6534C158.02 43.4286 158.563 43.1126 159.028 42.7055C159.493 42.2984 159.868 41.8183 160.145 41.2532C160.423 40.6942 160.556 40.0744 160.556 39.3938C160.556 38.0448 160.037 36.9693 158.998 36.1733" fill="#565656"/>
<path d="M215.737 14.0671L203.038 1.27607C202.229 0.461815 201.13 0 199.983 0H177.591C175.206 0 173.273 1.94448 173.273 4.3447V26.8582C173.273 28.0127 173.726 29.1186 174.536 29.9329L187.247 42.7239C188.056 43.5382 189.155 43.9939 190.303 43.9939H212.676C215.061 43.9939 216.993 42.0494 216.993 39.6492V17.1358C216.993 15.9873 216.541 14.8814 215.731 14.0671M206.39 33.3783C206.39 34.9703 205.109 36.2585 203.527 36.2585H198.358C197.265 36.2585 196.269 35.6387 195.774 34.6604L195.115 33.354C195.115 33.354 199.819 33.354 202.271 33.354C203.068 33.354 203.708 32.7038 203.708 31.9077V22.1732C203.708 21.3711 203.062 20.7209 202.271 20.7209H195.139L194.511 21.9787C194.01 22.9814 192.996 23.6194 191.879 23.6194H185.327C184.53 23.6194 183.889 22.9692 183.889 22.1671V10.804C183.889 10.0019 184.536 9.35782 185.327 9.35782H191.879C192.99 9.35782 194.01 9.98978 194.511 10.9924L195.139 12.2563H188.008C187.211 12.2563 186.565 12.9065 186.565 13.7086V19.2747C186.565 20.0768 187.211 20.7209 188.008 20.7209H195.133L195.761 19.457C196.263 18.4544 197.277 17.8224 198.394 17.8224H203.527C205.109 17.8224 206.39 19.1106 206.39 20.7027V33.3843V33.3783Z" fill="#8800FF"/>
</g>
<defs>
<clipPath id="clip0_1013_392">
<rect width="217" height="44" fill="white"/>
</clipPath>
</defs>
</svg>
