<svg width="766" height="1056" viewBox="0 0 766 1056" fill="none" xmlns="http://www.w3.org/2000/svg">
<path d="M23.9578 220.024C68.7752 232.063 326.722 312.75 294.374 568.049C294.374 568.049 110.865 558.581 19.1429 224.836C18.3431 221.917 21.0305 219.237 23.9578 220.024Z" fill="#F1F1F1"/>
<path d="M52.8952 256.522C64.5845 265.646 76.0658 275.002 87.4751 284.462C98.8764 293.926 110.17 303.518 121.351 313.245C143.71 332.696 165.641 352.647 186.94 373.264C208.223 393.893 228.922 415.156 248.425 437.519C258.211 448.668 267.597 460.176 276.535 472.032C285.452 483.9 293.922 496.147 301.389 509.037C301.833 509.804 301.573 510.786 300.801 511.234C300.033 511.677 299.049 511.417 298.601 510.646L298.597 510.639L298.593 510.631C291.279 497.856 282.941 485.657 274.139 473.817C265.317 461.985 256.031 450.477 246.342 439.316C227.026 416.933 206.479 395.606 185.34 374.901C164.181 354.208 142.382 334.166 120.147 314.619C109.03 304.844 97.7966 295.2 86.4513 285.688C75.106 276.18 63.6687 266.764 52.0554 257.6L52.0514 257.596C51.7555 257.364 51.7075 256.937 51.9395 256.641C52.1754 256.342 52.6033 256.294 52.8952 256.522Z" fill="white"/>
<path d="M212.677 98.0917C250.148 131.627 460.215 335.673 303.868 566.904C303.868 566.904 130.94 468.12 205.663 100.4C206.315 97.1813 210.23 95.8995 212.677 98.0917Z" fill="#D3D3D3"/>
<path d="M222.747 147.568C229.581 162.108 236.108 176.771 242.51 191.494C248.905 206.221 255.131 221.02 261.182 235.89C267.232 250.761 273.111 265.704 278.81 280.714C284.5 295.729 289.963 310.831 295.23 325.998C305.711 356.354 315.321 387.034 323.227 418.193C327.23 433.759 330.673 449.476 333.509 465.309C336.32 481.146 338.515 497.127 339.423 513.24C339.475 514.126 338.795 514.885 337.908 514.933C337.02 514.985 336.26 514.306 336.212 513.42V513.412V513.404C335.388 497.463 333.289 481.586 330.569 465.824C327.826 450.063 324.475 434.394 320.556 418.86C312.822 387.765 303.38 357.097 293.062 326.736C287.871 311.566 282.493 296.456 276.878 281.433C271.259 266.411 265.461 251.456 259.486 236.569C253.512 221.683 247.365 206.868 241.046 192.121C234.72 177.382 228.265 162.687 221.515 148.147L221.511 148.143C221.351 147.804 221.503 147.397 221.843 147.241C222.187 147.081 222.591 147.225 222.747 147.568Z" fill="white"/>
<path d="M192.272 652.411C192.272 652.411 188.541 629.434 163.259 614.312C139.8 600.283 82.586 568.941 67.1016 545.46C66.4178 544.422 64.7422 545.436 64.9181 546.79C66.8217 561.302 74.2799 596.654 102.917 623.772C139.848 658.736 192.272 652.411 192.272 652.411Z" fill="#F1F1F1"/>
<path d="M78.7782 568.309C79.7659 571.005 81.0536 573.577 82.4573 576.064C83.1331 577.322 83.9049 578.528 84.6528 579.738C85.4046 580.948 86.2604 582.094 87.0402 583.284C90.3434 587.928 94.1185 592.213 98.2216 596.13L99.7452 597.616C100.257 598.103 100.809 598.554 101.341 599.025C102.417 599.952 103.468 600.902 104.564 601.805L107.939 604.4C109.039 605.299 110.219 606.089 111.39 606.892C112.562 607.691 113.718 608.517 114.906 609.292L118.557 611.488C120.952 612.986 123.508 614.339 125.999 615.753C131.022 618.52 136.093 621.204 141.195 623.835C146.298 626.463 151.445 629.018 156.592 631.594C159.167 632.876 161.747 634.158 164.306 635.495C165.59 636.154 166.869 636.821 168.141 637.508L170.053 638.53L171.94 639.609C174.46 641.034 176.919 642.595 179.306 644.257C181.674 645.958 183.905 647.866 185.853 650.051C186.001 650.218 185.985 650.47 185.821 650.618C185.665 650.758 185.429 650.754 185.277 650.61L185.265 650.598C183.202 648.641 180.902 646.972 178.515 645.431C176.087 643.945 173.596 642.559 171.024 641.298C165.918 638.726 160.667 636.378 155.456 633.938L147.622 630.284C145.027 629.026 142.427 627.781 139.848 626.487C137.26 625.213 134.689 623.899 132.13 622.565C129.582 621.208 127.031 619.85 124.503 618.456C114.378 612.97 104.448 606.397 96.45 597.895C92.4149 593.694 88.7518 589.122 85.7085 584.167C84.2129 581.675 82.7932 579.139 81.6095 576.492C80.4138 573.856 79.366 571.141 78.6942 568.329C78.6862 568.301 78.7062 568.278 78.7302 568.27C78.7422 568.27 78.7702 568.285 78.7782 568.309Z" fill="white"/>
<path d="M73.7 404.581C73.8319 402.385 76.8312 401.822 77.743 403.826C86.5449 423.201 111.223 473.288 141.036 497.303C189.581 536.405 228.583 606.007 207.848 648.331C207.848 648.335 59.3153 643.943 73.7 404.581Z" fill="#D3D3D3"/>
<path d="M82.91 432.753C83.0459 433.232 83.2499 433.819 83.4338 434.366L84.0137 436.027L85.2094 439.337L87.6688 445.938C89.3444 450.327 91.072 454.691 92.8436 459.04C96.3668 467.745 100.042 476.391 103.893 484.952C111.627 502.063 119.821 518.97 128.907 535.394C133.482 543.585 138.097 551.755 143.052 559.725C148.003 567.692 153.141 575.542 158.58 583.181C169.406 598.491 181.395 613.011 194.936 626.037C195.096 626.188 195.104 626.444 194.952 626.604C194.804 626.759 194.556 626.767 194.392 626.628C187.337 620.366 180.755 613.59 174.476 606.55C168.246 599.462 162.435 592.022 156.829 584.439C145.775 569.149 135.817 553.096 126.78 536.56C122.245 528.298 117.982 519.897 113.843 511.435C109.708 502.973 105.757 494.42 102.049 485.763C98.3303 477.113 94.7392 468.408 91.392 459.611C89.7244 455.211 88.1007 450.79 86.5331 446.354C85.7573 444.133 84.9775 441.909 84.2377 439.677L83.1459 436.319L82.618 434.629C82.4501 434.054 82.2741 433.527 82.1222 432.868C82.0742 432.653 82.2061 432.441 82.4181 432.389C82.626 432.341 82.834 432.465 82.89 432.665L82.91 432.753Z" fill="white"/>
<path d="M752.706 1055.1H486.074V262.21C486.074 244.808 496.829 230.711 510.091 230.711H728.683C741.951 230.711 752.7 244.816 752.7 262.21V1055.1H752.706Z" fill="#351E72"/>
<path d="M686.851 1055.1H420.22V262.208C420.22 244.806 430.974 230.709 444.236 230.709H662.829C676.097 230.709 686.845 244.814 686.845 262.208V1055.1H686.851Z" fill="#604899"/>
<path d="M601.722 1055.1H343.121V431.731C343.121 412.827 353.868 397.514 367.121 397.514H577.716C590.975 397.514 601.716 412.836 601.716 431.731V1055.1H601.722Z" fill="url(#paint0_linear_1078_357)"/>
<path d="M601.722 1055.1H343.121V431.731C343.121 412.827 353.868 397.514 367.121 397.514H577.716C590.975 397.514 601.716 412.836 601.716 431.731V1055.1H601.722Z" fill="#FFC269"/>
<path d="M601.722 1055.1H343.121V431.731C343.121 412.827 353.868 397.514 367.121 397.514H577.716C590.975 397.514 601.716 412.836 601.716 431.731V1055.1H601.722Z" fill="#D3B626"/>
<path d="M601.722 1055.1H343.121V431.731C343.121 412.827 353.868 397.514 367.121 397.514H577.716C590.975 397.514 601.716 412.836 601.716 431.731V1055.1H601.722Z" fill="url(#paint1_linear_1078_357)"/>
<path d="M601.722 1055.1H343.121V431.731C343.121 412.827 353.868 397.514 367.121 397.514H577.716C590.975 397.514 601.716 412.836 601.716 431.731V1055.1H601.722Z" fill="#B3A2DF"/>
<path d="M535.867 1055.1H277.267V431.731C277.267 412.827 288.014 397.514 301.266 397.514H511.861C525.12 397.514 535.861 412.836 535.861 431.731V1055.1H535.867Z" fill="url(#paint2_linear_1078_357)"/>
<path d="M535.867 1055.1H277.267V431.731C277.267 412.827 288.014 397.514 301.266 397.514H511.861C525.12 397.514 535.861 412.836 535.861 431.731V1055.1H535.867Z" fill="#FFBF61"/>
<path d="M535.867 1055.1H277.267V431.731C277.267 412.827 288.014 397.514 301.266 397.514H511.861C525.12 397.514 535.861 412.836 535.861 431.731V1055.1H535.867Z" fill="url(#paint3_linear_1078_357)"/>
<path d="M535.867 1055.1H277.267V431.731C277.267 412.827 288.014 397.514 301.266 397.514H511.861C525.12 397.514 535.861 412.836 535.861 431.731V1055.1H535.867Z" fill="#F2EBFF"/>
<path d="M451.688 1055H229.524V570.448C229.524 549.159 240.239 531.912 253.452 531.912H427.755C440.974 531.912 451.682 549.169 451.682 570.448V1055H451.688Z" fill="#351E72"/>
<path d="M386.05 1055H163.886V570.448C163.886 549.159 174.601 531.912 187.814 531.912H362.121C375.341 531.912 386.05 549.169 386.05 570.448V1055Z" fill="#604899"/>
<path d="M320.635 1055.1H98.9775V749.091C98.9775 719.668 109.668 695.832 122.851 695.832H296.756C309.945 695.832 320.629 719.681 320.629 749.091V1055.1H320.635Z" fill="url(#paint4_linear_1078_357)"/>
<path d="M320.635 1055.1H98.9775V749.091C98.9775 719.668 109.668 695.832 122.851 695.832H296.756C309.945 695.832 320.629 719.681 320.629 749.091V1055.1H320.635Z" fill="#D3B626"/>
<path d="M320.635 1055.1H98.9775V749.091C98.9775 719.668 109.668 695.832 122.851 695.832H296.756C309.945 695.832 320.629 719.681 320.629 749.091V1055.1H320.635Z" fill="url(#paint5_linear_1078_357)"/>
<path d="M320.635 1055.1H98.9775V749.091C98.9775 719.668 109.668 695.832 122.851 695.832H296.756C309.945 695.832 320.629 719.681 320.629 749.091V1055.1H320.635Z" fill="#A16DFF"/>
<path d="M320.635 1055.1H98.9775V749.091C98.9775 719.668 109.668 695.832 122.851 695.832H296.756C309.945 695.832 320.629 719.681 320.629 749.091V1055.1H320.635Z" fill="#B3A2DF"/>
<path d="M254.78 1055.1H33.1221V749.091C33.1221 719.668 43.8128 695.832 56.996 695.832H230.906C244.095 695.832 254.78 719.681 254.78 749.091V1055.1Z" fill="url(#paint6_linear_1078_357)"/>
<path d="M254.78 1055.1H33.1221V749.091C33.1221 719.668 43.8128 695.832 56.996 695.832H230.906C244.095 695.832 254.78 719.681 254.78 749.091V1055.1Z" fill="#FFC269"/>
<path d="M254.78 1055.1H33.1221V749.091C33.1221 719.668 43.8128 695.832 56.996 695.832H230.906C244.095 695.832 254.78 719.681 254.78 749.091V1055.1Z" fill="#FDDF4D"/>
<path d="M254.78 1055.1H33.1221V749.091C33.1221 719.668 43.8128 695.832 56.996 695.832H230.906C244.095 695.832 254.78 719.681 254.78 749.091V1055.1Z" fill="url(#paint7_linear_1078_357)"/>
<path d="M254.78 1055.1H33.1221V749.091C33.1221 719.668 43.8128 695.832 56.996 695.832H230.906C244.095 695.832 254.78 719.681 254.78 749.091V1055.1Z" fill="#F2EBFF"/>
<path d="M438.894 321.655C437.902 321.655 437.101 320.854 437.101 319.864V281.31C437.101 260.812 453.799 244.139 474.327 244.139H532.924C533.916 244.139 534.717 244.939 534.717 245.929C534.717 246.92 533.916 247.72 532.924 247.72H474.327C455.776 247.72 440.687 262.787 440.687 281.31V319.864C440.687 320.854 439.886 321.655 438.894 321.655Z" fill="#BDD0FB"/>
<path d="M438.894 362.531C437.902 362.531 437.101 361.73 437.101 360.74V345.033C437.101 344.043 437.902 343.242 438.894 343.242C439.886 343.242 440.687 344.043 440.687 345.033V360.74C440.687 361.73 439.886 362.531 438.894 362.531Z" fill="#BDD0FB"/>
<path d="M294.39 483.297C293.398 483.297 292.597 482.496 292.597 481.506V448.829C292.597 431.307 306.872 417.053 324.419 417.053H374.086C375.077 417.053 375.879 417.853 375.879 418.843C375.879 419.834 375.077 420.634 374.086 420.634H324.425C308.855 420.634 296.183 433.288 296.183 448.835V481.512C296.183 482.496 295.382 483.297 294.39 483.297Z" fill="url(#paint8_linear_1078_357)"/>
<path d="M294.39 483.297C293.398 483.297 292.597 482.496 292.597 481.506V448.829C292.597 431.307 306.872 417.053 324.419 417.053H374.086C375.077 417.053 375.879 417.853 375.879 418.843C375.879 419.834 375.077 420.634 374.086 420.634H324.425C308.855 420.634 296.183 433.288 296.183 448.835V481.512C296.183 482.496 295.382 483.297 294.39 483.297Z" fill="#351E72"/>
<path d="M294.39 517.95C293.398 517.95 292.597 517.149 292.597 516.159V502.847C292.597 501.857 293.398 501.057 294.39 501.057C295.382 501.057 296.183 501.857 296.183 502.847V516.159C296.183 517.149 295.382 517.95 294.39 517.95Z" fill="url(#paint9_linear_1078_357)"/>
<path d="M294.39 517.95C293.398 517.95 292.597 517.149 292.597 516.159V502.847C292.597 501.857 293.398 501.057 294.39 501.057C295.382 501.057 296.183 501.857 296.183 502.847V516.159C296.183 517.149 295.382 517.95 294.39 517.95Z" fill="#351E72"/>
<path d="M182.129 624.549C181.138 624.549 180.336 623.749 180.336 622.758V584.205C180.336 563.707 197.034 547.033 217.562 547.033H276.159C277.151 547.033 277.953 547.834 277.953 548.824C277.953 549.814 277.151 550.615 276.159 550.615H217.562C199.011 550.615 183.923 565.681 183.923 584.205V622.758C183.923 623.749 183.121 624.549 182.129 624.549Z" fill="url(#paint10_linear_1078_357)"/>
<path d="M182.129 665.433C181.138 665.433 180.336 664.633 180.336 663.642V647.935C180.336 646.945 181.138 646.145 182.129 646.145C183.121 646.145 183.923 646.945 183.923 647.935V663.642C183.923 664.633 183.121 665.433 182.129 665.433Z" fill="url(#paint11_linear_1078_357)"/>
<path d="M48.3744 785.539C47.3827 785.539 46.5811 784.739 46.5811 783.749V745.195C46.5811 724.697 63.2791 708.023 83.8072 708.023H142.405C143.396 708.023 144.198 708.824 144.198 709.814C144.198 710.804 143.396 711.605 142.405 711.605H83.8072C65.2565 711.605 50.1677 726.672 50.1677 745.195V783.749C50.1617 784.739 49.3601 785.539 48.3744 785.539Z" fill="url(#paint12_linear_1078_357)"/>
<path d="M48.3744 785.539C47.3827 785.539 46.5811 784.739 46.5811 783.749V745.195C46.5811 724.697 63.2791 708.023 83.8072 708.023H142.405C143.396 708.023 144.198 708.824 144.198 709.814C144.198 710.804 143.396 711.605 142.405 711.605H83.8072C65.2565 711.605 50.1677 726.672 50.1677 745.195V783.749C50.1617 784.739 49.3601 785.539 48.3744 785.539Z" fill="#351E72"/>
<path d="M48.3744 826.423C47.3827 826.423 46.5811 825.623 46.5811 824.633V808.925C46.5811 807.935 47.3827 807.135 48.3744 807.135C49.366 807.135 50.1677 807.935 50.1677 808.925V824.633C50.1617 825.617 49.3601 826.423 48.3744 826.423Z" fill="url(#paint13_linear_1078_357)"/>
<path d="M48.3744 826.423C47.3827 826.423 46.5811 825.623 46.5811 824.633V808.925C46.5811 807.935 47.3827 807.135 48.3744 807.135C49.366 807.135 50.1677 807.935 50.1677 808.925V824.633C50.1617 825.617 49.3601 826.423 48.3744 826.423Z" fill="#351E72"/>
<path d="M319.426 531.911C318.982 531.911 318.533 531.8 318.138 531.583C316.762 530.844 316.226 529.084 316.938 527.657L443.863 273.829C444.575 272.402 446.273 271.846 447.649 272.584C449.025 273.323 449.561 275.083 448.849 276.51L321.924 530.338C321.436 531.309 320.48 531.911 319.426 531.911Z" fill="#BDD0FB"/>
<path d="M393.831 531.913C393.456 531.913 393.09 531.832 392.744 531.672C392.074 531.366 391.556 530.799 391.29 530.081C391.024 529.363 391.034 528.581 391.328 527.868L496.942 271.474C497.545 270.014 499.155 269.342 500.537 269.979C501.92 270.616 502.556 272.323 501.953 273.783L396.339 530.176C395.907 531.235 394.919 531.913 393.831 531.913Z" fill="#BDD0FB"/>
<path d="M474.417 332.55H420.855C419.674 332.55 418.718 331.596 418.718 330.416C418.718 329.236 419.674 328.281 420.855 328.281H474.417C475.599 328.281 476.555 329.236 476.555 330.416C476.555 331.596 475.599 332.55 474.417 332.55Z" fill="#BDD0FB"/>
<path d="M460.106 365.679H406.544C405.362 365.679 404.406 364.725 404.406 363.545C404.406 362.365 405.362 361.41 406.544 361.41H460.106C461.288 361.41 462.244 362.365 462.244 363.545C462.244 364.725 461.288 365.679 460.106 365.679Z" fill="#BDD0FB"/>
<path d="M441.235 405.353H384.265C383.083 405.353 382.127 404.399 382.127 403.219C382.127 402.039 383.083 401.084 384.265 401.084H441.235C442.417 401.084 443.373 402.039 443.373 403.219C443.367 404.399 442.411 405.353 441.235 405.353Z" fill="#BDD0FB"/>
<path d="M488.651 300.416H437.554C436.372 300.416 435.416 299.461 435.416 298.281C435.416 297.101 436.372 296.146 437.554 296.146H488.651C489.833 296.146 490.789 297.101 490.789 298.281C490.789 299.461 489.833 300.416 488.651 300.416Z" fill="#BDD0FB"/>
<path d="M422.435 450.998H360.536C359.354 450.998 358.398 450.043 358.398 448.863C358.398 447.683 359.354 446.729 360.536 446.729H422.435C423.617 446.729 424.573 447.683 424.573 448.863C424.573 450.043 423.617 450.998 422.435 450.998Z" fill="#BDD0FB"/>
<path d="M407.892 486.404H341.498C340.316 486.404 339.36 485.449 339.36 484.269C339.36 483.089 340.316 482.135 341.498 482.135H407.892C409.074 482.135 410.03 483.089 410.03 484.269C410.03 485.449 409.068 486.404 407.892 486.404Z" fill="#BDD0FB"/>
<path d="M474.998 380.623C474.939 380.623 474.874 380.611 474.814 380.581L466.008 377.196C462.225 375.393 459.767 371.527 459.743 367.341C459.743 367.104 459.933 366.914 460.171 366.914C460.444 366.914 460.598 367.104 460.598 367.341C460.616 371.201 462.884 374.771 466.376 376.431L475.182 379.817C475.396 379.917 475.485 380.172 475.384 380.386C475.313 380.534 475.159 380.623 474.998 380.623Z" fill="url(#paint14_linear_1078_357)"/>
<path d="M521.312 176.991C521.312 176.991 523.627 174.507 527.909 175.29C532.19 176.072 536.008 177.555 538.675 175.29C541.347 173.025 542.285 176.066 542.285 176.066L534.292 182.132L521.312 176.991Z" fill="url(#paint15_linear_1078_357)"/>
<path d="M394.835 443.355C388.001 437.414 373.31 432.652 373.31 432.652L364.468 432.848C362.223 435.368 361.208 440.254 360.78 443.314C362.443 444.31 365.56 445.181 371.285 445.454C381.867 445.952 390.412 444.41 394.835 443.355Z" fill="url(#paint16_linear_1078_357)"/>
<path d="M394.835 443.354C390.417 444.404 381.866 445.951 371.279 445.447C365.56 445.174 362.443 444.303 360.774 443.307C360.738 443.55 360.709 443.793 360.679 444.012C360.519 445.269 361.297 446.449 362.508 446.817C370.584 449.289 388.339 448.495 395.263 448.062C396.741 447.973 397.519 446.236 396.569 445.097C396.082 444.51 395.494 443.929 394.835 443.354Z" fill="url(#paint17_linear_1078_357)"/>
<path d="M365.192 425.229V432.249C365.192 433.601 366.137 434.763 367.461 435.048C368.832 435.344 370.65 435.534 372.413 435.095C373.518 434.822 374.325 433.874 374.456 432.747L375.347 425.223H365.192V425.229Z" fill="url(#paint18_linear_1078_357)"/>
<path d="M409.883 389.265C407.14 383.17 407.924 380.43 402.496 381.035C401.843 381.106 401.303 381.237 400.845 381.397C400.501 382.405 400.483 383.514 400.851 384.569C402.223 388.512 405.091 395.248 410.352 401.883C411.457 403.277 413.149 404.083 414.931 404.113L420.916 404.213C415.239 399.689 412.163 394.323 409.883 389.265Z" fill="url(#paint19_linear_1078_357)"/>
<path d="M421.296 395.184C416.7 391.952 414.99 378.765 414.99 378.765L407.912 375.166L402.574 379.032C401.748 379.643 401.166 380.479 400.852 381.404C401.309 381.244 401.849 381.113 402.502 381.042C407.93 380.437 407.146 383.177 409.889 389.272C412.164 394.33 415.246 399.696 420.922 404.226L425.038 404.297C426.884 404.327 427.953 402.222 426.831 400.752C425.424 398.902 423.5 396.726 421.296 395.184Z" fill="url(#paint20_linear_1078_357)"/>
<path d="M412.181 368.523L407.906 375.164C407.365 376 407.549 377.115 408.333 377.732C409.705 378.805 412.074 380.009 414.984 378.764L421.848 374.068L412.181 368.523Z" fill="url(#paint21_linear_1078_357)"/>
<path d="M459.923 296.576C459.923 296.576 469.192 289.567 473.414 290.883C477.636 292.2 480.748 296.149 480.748 296.149H471.425C471.425 296.149 469.204 300.412 471.425 300.412H474.715C474.715 300.412 466.009 309.52 459.923 296.576Z" fill="url(#paint22_linear_1078_357)"/>
<path d="M444.223 230.486C444.223 230.486 455.101 273.445 469.84 290.718C469.84 290.718 465.849 295.26 459.923 296.576C459.923 296.576 437.299 276.778 430.411 263.021C423.522 249.259 444.223 230.486 444.223 230.486Z" fill="url(#paint23_linear_1078_357)"/>
<path d="M429.68 189.598L418.873 209.343H435.927C435.927 209.343 437.299 200.318 441.782 194.887L429.68 189.598Z" fill="url(#paint24_linear_1078_357)"/>
<path d="M446.062 166.088C446.062 166.088 451.478 178.51 451.84 185.033C452.203 191.555 453.61 195.783 446.062 197.099C438.515 198.409 432.155 194.656 428.705 188.163C428.705 188.163 423.308 178.154 424.519 174.057C425.73 169.948 446.062 166.088 446.062 166.088Z" fill="url(#paint25_linear_1078_357)"/>
<path d="M431.289 183.484H432.245C432.245 183.484 428.314 175.432 431.77 174.015C435.226 172.598 448.914 169.811 451.865 164.961C454.709 160.288 452.174 154.246 448.373 152.556C448.136 152.449 447.851 152.562 447.726 152.793L447.411 153.386C447.198 153.795 446.592 153.73 446.467 153.291C446.348 152.87 445.778 152.781 445.547 153.149C444.644 154.602 442.198 156.956 435.63 158.165C426.313 159.885 420.155 163.644 420.007 170.078C419.995 170.487 419.562 170.712 419.211 170.499C418.522 170.078 417.424 169.882 415.951 171.121C413.392 173.268 414.443 178.841 420.049 183.425C420.316 183.644 420.316 184.059 420.025 184.243C419.009 184.901 417.495 186.479 421.42 188.572C425.434 190.718 427.816 190.481 428.712 190.25C428.956 190.19 429.116 189.971 429.098 189.722L428.748 184.024C428.73 183.727 428.962 183.478 429.259 183.478H431.289V183.484Z" fill="url(#paint26_linear_1078_357)"/>
<path d="M431.521 184.675C431.521 184.675 429.454 176.742 425.892 178.965C422.329 181.189 427.738 187.854 430.606 188.15L431.521 184.675Z" fill="url(#paint27_linear_1078_357)"/>
<path d="M515.789 181.094C515.789 181.094 517.375 174.471 522.155 175.378C526.935 176.286 537.784 182.179 540.581 181.094C543.378 180.009 546.952 177.412 548.787 178.331L545.557 182.345C545.557 182.345 553.864 177.56 555.295 180.501L541.471 188.269C541.471 188.263 521.246 186.241 515.789 181.094Z" fill="url(#paint28_linear_1078_357)"/>
<path d="M416.474 207.794C416.474 207.794 421.295 199.884 452.815 201.823C469.198 202.831 506.05 188.571 514.257 181.402C514.257 181.402 519.607 181.367 524.536 186.519C524.536 186.519 490.498 222.387 450.814 226.97C450.814 226.97 420.696 288.945 420.909 299.001C420.909 299.001 403.036 310.979 378.778 302.405C378.778 302.405 378.036 285.18 387.501 261.379C399.793 230.486 416.474 207.794 416.474 207.794Z" fill="url(#paint29_linear_1078_357)"/>
<path d="M430.767 229.171C430.547 229.171 430.357 228.999 430.339 228.779C430.321 228.542 430.493 228.341 430.731 228.317C430.885 228.305 446.016 227.078 448.373 226.811C448.605 226.787 448.819 226.953 448.848 227.184C448.872 227.422 448.706 227.629 448.474 227.659C446.099 227.926 430.957 229.153 430.802 229.171C430.79 229.171 430.779 229.171 430.767 229.171Z" fill="url(#paint30_linear_1078_357)"/>
<path d="M380.096 298.449C380.096 298.449 377.845 304.776 374.585 327.006C371.325 349.235 369.176 365.399 367.4 374.216C365.773 382.274 363.208 411.311 363.362 424.006C363.38 425.713 364.793 427.071 366.503 427.018L374.918 426.757C376.218 426.715 377.305 425.773 377.525 424.492C379.751 411.417 395.137 343.97 404.418 324.569C404.418 324.569 429.103 331.536 435.255 334.34C435.255 334.34 427.298 337.518 410.992 368.043C410.992 368.043 418.034 373.629 423.022 374.797C423.022 374.797 458.705 345.245 462.475 342.155C466.246 339.066 469.678 333.735 460.059 324.029C450.439 314.322 420.914 299.013 420.914 299.013L380.096 298.449Z" fill="url(#paint31_linear_1078_357)"/>
<path d="M576.647 141.33C576.656 143.387 575.277 144.95 573.196 144.948C567.348 144.945 561.626 144.946 556.03 144.952C554.794 144.954 553.971 144.488 553.079 143.588C549.999 140.489 546.845 137.338 543.618 134.135C542.802 133.325 542.572 132.335 542.574 131.228C542.589 125.34 542.593 119.859 542.587 114.786C542.585 114.042 542.665 113.236 543.059 112.581C543.719 111.481 544.731 110.93 546.095 110.928C551.996 110.918 557.779 110.917 563.443 110.926C564.341 110.927 565.139 111.275 565.837 111.968C569.303 115.413 572.564 118.675 575.621 121.754C576.386 122.523 576.66 123.344 576.656 124.416C576.63 130.374 576.627 136.012 576.647 141.33ZM559.721 126.949C561.57 126.945 563.39 126.948 565.181 126.958C565.783 126.96 566.279 127.397 566.288 128.008C566.324 130.622 566.325 133.164 566.292 135.635C566.283 136.229 565.803 136.679 565.216 136.688C563.536 136.711 561.712 136.714 559.743 136.698C559.723 136.698 559.704 136.703 559.687 136.713C559.67 136.722 559.655 136.736 559.645 136.753C559.635 136.77 559.63 136.789 559.629 136.809C559.629 136.828 559.634 136.848 559.643 136.865C560.347 138.112 560.747 139 562.402 138.979C563.565 138.963 564.677 138.964 565.738 138.983C567.286 139.013 568.403 138.185 568.392 136.562C568.371 133.777 568.375 130.951 568.405 128.084C568.417 127.022 568.334 126.305 568.158 125.933C567.783 125.145 567.048 124.74 565.952 124.717C565.028 124.695 564.098 124.692 563.162 124.708C562.034 124.727 561.25 124.676 560.568 125.341C560.18 125.717 559.951 126.331 559.689 126.811C559.653 126.877 559.598 126.911 559.524 126.912C557.876 126.948 556.228 126.952 554.579 126.923C553.681 126.908 552.94 126.852 552.93 125.741C552.915 124.264 552.92 122.893 552.945 121.628C552.961 120.83 553.373 120.427 554.183 120.418C555.834 120.401 557.546 120.404 559.319 120.429C559.485 120.43 559.541 120.353 559.487 120.198C558.948 118.594 558.007 118.103 556.363 118.129C554.786 118.154 553.341 118.161 552.029 118.151C551.072 118.142 550.858 118.834 550.855 119.683C550.848 122.267 550.849 124.918 550.858 127.636C550.86 128.471 551.04 129.16 551.975 129.164C553.43 129.17 554.983 129.177 556.634 129.184C558.258 129.193 558.953 128.585 559.513 127.094C559.55 126.997 559.619 126.949 559.721 126.949Z" fill="#351E72"/>
<path d="M538.414 101.395C538.335 101.395 538.258 101.361 538.204 101.296C538.107 101.179 538.123 101.008 538.24 100.912C538.523 100.678 538.81 100.449 539.1 100.225C539.22 100.133 539.391 100.155 539.484 100.274C539.576 100.393 539.554 100.564 539.435 100.657C539.148 100.878 538.867 101.103 538.588 101.332C538.538 101.374 538.477 101.395 538.414 101.395Z" fill="#351E72"/>
<path d="M592.525 128.802C592.52 128.802 592.514 128.802 592.509 128.802C592.358 128.793 592.244 128.663 592.252 128.513C592.29 127.874 592.309 127.225 592.309 126.586L592.308 126.319C592.307 126.168 592.427 126.045 592.578 126.043C592.58 126.043 592.58 126.043 592.581 126.043C592.731 126.043 592.853 126.164 592.854 126.313L592.856 126.586C592.856 127.236 592.836 127.895 592.797 128.545C592.79 128.69 592.669 128.802 592.525 128.802ZM592.354 123C592.217 123 592.1 122.898 592.082 122.76C591.997 122.036 591.885 121.306 591.749 120.589C591.722 120.441 591.819 120.298 591.968 120.27C592.118 120.241 592.259 120.339 592.288 120.488C592.425 121.217 592.538 121.96 592.626 122.696C592.644 122.845 592.536 122.981 592.387 122.998C592.376 122.998 592.365 123 592.354 123ZM591.164 117.316C591.047 117.316 590.938 117.24 590.903 117.122C590.767 116.673 590.619 116.218 590.463 115.773C590.377 115.528 590.287 115.283 590.196 115.042C590.143 114.901 590.215 114.743 590.355 114.69C590.497 114.637 590.654 114.708 590.707 114.849C590.8 115.095 590.891 115.343 590.978 115.593C591.135 116.045 591.286 116.506 591.425 116.963C591.468 117.107 591.387 117.26 591.243 117.304C591.217 117.312 591.191 117.316 591.164 117.316ZM589.006 111.926C588.905 111.926 588.81 111.872 588.761 111.777C588.433 111.126 588.076 110.479 587.704 109.852C587.627 109.722 587.67 109.555 587.801 109.477C587.93 109.4 588.098 109.443 588.176 109.572C588.553 110.21 588.915 110.868 589.251 111.529C589.318 111.663 589.264 111.827 589.13 111.895C589.089 111.917 589.047 111.926 589.006 111.926ZM585.936 106.996C585.853 106.996 585.772 106.958 585.718 106.887C585.279 106.305 584.815 105.73 584.338 105.179C584.239 105.065 584.253 104.893 584.367 104.793C584.481 104.694 584.654 104.708 584.753 104.822C585.238 105.382 585.709 105.967 586.155 106.559C586.246 106.679 586.222 106.85 586.101 106.941C586.052 106.978 585.995 106.996 585.936 106.996ZM582.049 102.686C581.982 102.686 581.916 102.662 581.863 102.613C581.329 102.118 580.771 101.633 580.203 101.173C580.087 101.078 580.069 100.906 580.164 100.789C580.259 100.673 580.432 100.655 580.549 100.75C581.125 101.218 581.693 101.711 582.235 102.214C582.345 102.317 582.352 102.49 582.248 102.599C582.194 102.656 582.122 102.686 582.049 102.686ZM577.461 99.1232C577.411 99.1232 577.359 99.1096 577.313 99.0798C576.7 98.6849 576.066 98.305 575.427 97.9509C575.295 97.8776 575.248 97.7121 575.321 97.5804C575.394 97.4488 575.56 97.4013 575.692 97.4746C576.342 97.8342 576.986 98.2209 577.609 98.6225C577.736 98.7039 577.772 98.8735 577.691 98.9997C577.638 99.0784 577.551 99.1232 577.461 99.1232ZM542.235 98.6754C542.142 98.6754 542.053 98.6293 542.001 98.5452C541.922 98.4163 541.963 98.248 542.092 98.1707C542.724 97.7853 543.379 97.4163 544.038 97.073C544.171 97.0038 544.337 97.0553 544.406 97.1883C544.476 97.3226 544.424 97.4868 544.291 97.556C543.643 97.8939 542.998 98.2575 542.376 98.6361C542.333 98.6618 542.284 98.6754 542.235 98.6754ZM572.321 96.4122C572.285 96.4122 572.25 96.4054 572.215 96.3905C571.542 96.1083 570.851 95.8437 570.16 95.6062C570.018 95.5574 569.941 95.4013 569.99 95.2589C570.039 95.1164 570.194 95.0404 570.338 95.0893C571.039 95.3308 571.742 95.5981 572.427 95.8857C572.565 95.9441 572.631 96.1042 572.572 96.2426C572.529 96.3484 572.427 96.4122 572.321 96.4122ZM547.445 96.0987C547.336 96.0987 547.233 96.0323 547.19 95.9251C547.136 95.7853 547.205 95.6266 547.345 95.5709C547.72 95.4244 548.105 95.2819 548.49 95.149C548.81 95.0363 549.132 94.9305 549.454 94.8287C549.598 94.784 549.752 94.8627 549.797 95.0065C549.842 95.1503 549.763 95.3036 549.619 95.3484C549.302 95.4488 548.986 95.5533 548.669 95.6646C548.291 95.7962 547.912 95.9359 547.544 96.0798C547.511 96.092 547.477 96.0987 547.445 96.0987ZM566.785 94.6361C566.765 94.6361 566.744 94.6333 566.724 94.6293C566.012 94.4678 565.285 94.3281 564.563 94.2154C564.414 94.1924 564.312 94.0526 564.336 93.9034C564.359 93.7541 564.499 93.6523 564.649 93.6768C565.383 93.7921 566.122 93.9332 566.845 94.0974C566.991 94.1313 567.084 94.2765 567.051 94.4244C567.023 94.5506 566.91 94.6361 566.785 94.6361ZM553.024 94.4624C552.896 94.4624 552.782 94.3728 552.756 94.2426C552.726 94.0947 552.823 93.9509 552.971 93.921C553.698 93.7745 554.44 93.6523 555.176 93.5546C555.326 93.5357 555.463 93.6401 555.483 93.7894C555.504 93.9386 555.398 94.0757 555.248 94.096C554.524 94.191 553.794 94.3118 553.078 94.4556C553.059 94.461 553.042 94.4624 553.024 94.4624ZM561.023 93.8545C561.019 93.8545 561.015 93.8545 561.01 93.8545C560.503 93.8315 559.985 93.8125 559.48 93.8192C559.257 93.8192 559.033 93.8219 558.81 93.826C558.667 93.8342 558.534 93.7093 558.531 93.5587C558.529 93.4081 558.648 93.2833 558.799 93.2806C559.033 93.2751 559.266 93.2724 559.499 93.2738C560.01 93.2738 560.527 93.286 561.037 93.3091C561.188 93.3158 561.305 93.4434 561.298 93.594C561.288 93.7405 561.167 93.8545 561.023 93.8545Z" fill="#351E72"/>
<path d="M557.727 159.849C557.722 159.849 557.718 159.849 557.712 159.849C556.984 159.81 556.246 159.746 555.521 159.658C555.371 159.64 555.264 159.503 555.281 159.354C555.299 159.205 555.435 159.097 555.586 159.116C556.301 159.202 557.025 159.266 557.742 159.305C557.893 159.313 558.009 159.442 558 159.593C557.991 159.736 557.871 159.849 557.727 159.849ZM561.272 159.849C561.128 159.849 561.008 159.736 560.999 159.591C560.991 159.441 561.107 159.312 561.258 159.304C561.976 159.264 562.702 159.2 563.413 159.115C563.561 159.099 563.698 159.203 563.717 159.352C563.735 159.502 563.629 159.637 563.479 159.656C562.755 159.745 562.018 159.808 561.287 159.848C561.282 159.849 561.278 159.849 561.272 159.849ZM552.061 159.047C552.041 159.047 552.02 159.044 551.998 159.04C551.288 158.876 550.573 158.685 549.873 158.475C549.729 158.431 549.646 158.279 549.691 158.134C549.735 157.99 549.888 157.907 550.032 157.952C550.721 158.16 551.424 158.347 552.123 158.508C552.27 158.542 552.363 158.689 552.329 158.835C552.297 158.962 552.185 159.047 552.061 159.047ZM566.937 159.044C566.814 159.044 566.701 158.959 566.671 158.833C566.637 158.686 566.728 158.54 566.875 158.506C567.573 158.344 568.276 158.157 568.966 157.948C569.112 157.905 569.264 157.986 569.307 158.13C569.351 158.274 569.269 158.427 569.125 158.471C568.424 158.682 567.709 158.872 567 159.038C566.978 159.042 566.958 159.044 566.937 159.044ZM546.619 157.282C546.583 157.282 546.547 157.275 546.513 157.26C545.84 156.977 545.169 156.666 544.517 156.339C544.382 156.271 544.328 156.107 544.396 155.973C544.464 155.838 544.628 155.784 544.763 155.852C545.404 156.173 546.064 156.479 546.726 156.758C546.865 156.816 546.93 156.977 546.872 157.116C546.827 157.219 546.725 157.282 546.619 157.282ZM572.38 157.281C572.274 157.281 572.172 157.218 572.128 157.114C572.07 156.975 572.135 156.815 572.274 156.757C572.935 156.479 573.597 156.173 574.238 155.852C574.374 155.784 574.537 155.838 574.605 155.974C574.673 156.108 574.619 156.272 574.483 156.34C573.831 156.667 573.158 156.977 572.486 157.26C572.452 157.274 572.415 157.281 572.38 157.281ZM541.561 154.613C541.511 154.613 541.459 154.599 541.413 154.57C540.8 154.175 540.192 153.754 539.604 153.32C539.484 153.23 539.458 153.059 539.547 152.939C539.637 152.818 539.808 152.792 539.929 152.882C540.507 153.309 541.105 153.723 541.708 154.111C541.834 154.192 541.871 154.362 541.79 154.488C541.739 154.568 541.651 154.613 541.561 154.613ZM537.039 151.118C536.972 151.118 536.906 151.093 536.854 151.046C536.317 150.551 535.79 150.032 535.289 149.504C535.186 149.395 535.19 149.222 535.298 149.119C535.407 149.016 535.581 149.02 535.684 149.129C536.178 149.648 536.695 150.158 537.224 150.646C537.335 150.747 537.342 150.921 537.239 151.031C537.186 151.088 537.112 151.118 537.039 151.118ZM533.191 146.895C533.108 146.895 533.028 146.859 532.973 146.788C532.532 146.209 532.102 145.608 531.699 145C531.616 144.873 531.65 144.705 531.776 144.621C531.903 144.537 532.071 144.572 532.155 144.698C532.552 145.297 532.973 145.888 533.408 146.457C533.499 146.576 533.476 146.749 533.357 146.84C533.306 146.878 533.248 146.895 533.191 146.895ZM530.132 142.07C530.033 142.07 529.938 142.016 529.889 141.922C529.555 141.276 529.237 140.609 528.943 139.94C528.883 139.802 528.946 139.641 529.084 139.58C529.223 139.521 529.383 139.583 529.444 139.721C529.733 140.38 530.045 141.036 530.374 141.671C530.443 141.806 530.39 141.97 530.257 142.039C530.216 142.061 530.174 142.07 530.132 142.07ZM527.95 136.791C527.834 136.791 527.726 136.716 527.689 136.599C527.469 135.902 527.269 135.191 527.095 134.484C527.06 134.338 527.149 134.19 527.295 134.154C527.442 134.119 527.59 134.207 527.625 134.354C527.796 135.048 527.992 135.749 528.209 136.434C528.254 136.578 528.175 136.731 528.031 136.776C528.004 136.787 527.977 136.791 527.95 136.791ZM526.701 131.215C526.566 131.215 526.448 131.116 526.431 130.979C526.334 130.257 526.259 129.522 526.21 128.793C526.201 128.643 526.314 128.513 526.465 128.503C526.617 128.489 526.746 128.606 526.755 128.757C526.803 129.473 526.876 130.196 526.971 130.906C526.992 131.055 526.886 131.192 526.736 131.213C526.725 131.214 526.713 131.215 526.701 131.215ZM526.437 125.507C526.433 125.507 526.429 125.507 526.427 125.507C526.276 125.5 526.159 125.374 526.164 125.224C526.194 124.495 526.25 123.757 526.327 123.032C526.344 122.883 526.478 122.774 526.629 122.791C526.778 122.807 526.887 122.941 526.871 123.092C526.793 123.804 526.739 124.53 526.71 125.247C526.705 125.393 526.584 125.507 526.437 125.507Z" fill="#351E72"/>
<path d="M527.174 119.821C527.155 119.821 527.135 119.82 527.116 119.814C526.968 119.782 526.875 119.636 526.908 119.489C526.987 119.13 527.072 118.771 527.162 118.418C527.199 118.271 527.347 118.185 527.495 118.221C527.642 118.258 527.73 118.407 527.692 118.554C527.604 118.9 527.519 119.254 527.443 119.607C527.413 119.734 527.299 119.821 527.174 119.821Z" fill="#351E72"/>
<defs>
<linearGradient id="paint0_linear_1078_357" x1="515.898" y1="779.947" x2="836.074" y2="943.824" gradientUnits="userSpaceOnUse">
<stop stop-color="#FE7062"/>
<stop offset="1" stop-color="#FF928E"/>
</linearGradient>
<linearGradient id="paint1_linear_1078_357" x1="363.702" y1="1309.74" x2="-85.3406" y2="2142.89" gradientUnits="userSpaceOnUse">
<stop stop-color="#E1473D"/>
<stop offset="1" stop-color="#E9605A"/>
</linearGradient>
<linearGradient id="paint2_linear_1078_357" x1="174.798" y1="1148.81" x2="700.599" y2="689.624" gradientUnits="userSpaceOnUse">
<stop stop-color="#FE7062"/>
<stop offset="1" stop-color="#FF928E"/>
</linearGradient>
<linearGradient id="paint3_linear_1078_357" x1="620.447" y1="262.806" x2="836.638" y2="216.853" gradientUnits="userSpaceOnUse">
<stop stop-color="#FE7062"/>
<stop offset="1" stop-color="#FF928E"/>
</linearGradient>
<linearGradient id="paint4_linear_1078_357" x1="226.486" y1="931.817" x2="540.446" y2="1083.7" gradientUnits="userSpaceOnUse">
<stop stop-color="#FE7062"/>
<stop offset="1" stop-color="#FF928E"/>
</linearGradient>
<linearGradient id="paint5_linear_1078_357" x1="116.619" y1="1194.22" x2="-63.8779" y2="1719.62" gradientUnits="userSpaceOnUse">
<stop stop-color="#E1473D"/>
<stop offset="1" stop-color="#E9605A"/>
</linearGradient>
<linearGradient id="paint6_linear_1078_357" x1="2.91307" y1="1106.95" x2="309.611" y2="1011.36" gradientUnits="userSpaceOnUse">
<stop stop-color="#FE7062"/>
<stop offset="1" stop-color="#FF928E"/>
</linearGradient>
<linearGradient id="paint7_linear_1078_357" x1="327.277" y1="622.235" x2="501.573" y2="564.112" gradientUnits="userSpaceOnUse">
<stop stop-color="#FE7062"/>
<stop offset="1" stop-color="#FF928E"/>
</linearGradient>
<linearGradient id="paint8_linear_1078_357" x1="344.895" y1="217.977" x2="337.791" y2="362.057" gradientUnits="userSpaceOnUse">
<stop stop-color="#FF928E"/>
<stop offset="1" stop-color="#FEB3B1"/>
</linearGradient>
<linearGradient id="paint9_linear_1078_357" x1="308.895" y1="216.203" x2="301.79" y2="360.283" gradientUnits="userSpaceOnUse">
<stop stop-color="#FF928E"/>
<stop offset="1" stop-color="#FEB3B1"/>
</linearGradient>
<linearGradient id="paint10_linear_1078_357" x1="180.337" y1="585.794" x2="277.949" y2="585.794" gradientUnits="userSpaceOnUse">
<stop stop-color="#DAE3FE"/>
<stop offset="1" stop-color="#E9EFFD"/>
</linearGradient>
<linearGradient id="paint11_linear_1078_357" x1="180.337" y1="655.789" x2="183.92" y2="655.789" gradientUnits="userSpaceOnUse">
<stop stop-color="#DAE3FE"/>
<stop offset="1" stop-color="#E9EFFD"/>
</linearGradient>
<linearGradient id="paint12_linear_1078_357" x1="88.4099" y1="529.396" x2="92.8504" y2="668.139" gradientUnits="userSpaceOnUse">
<stop stop-color="#FF928E"/>
<stop offset="1" stop-color="#FEB3B1"/>
</linearGradient>
<linearGradient id="paint13_linear_1078_357" x1="39.1991" y1="530.971" x2="43.6396" y2="669.714" gradientUnits="userSpaceOnUse">
<stop stop-color="#FF928E"/>
<stop offset="1" stop-color="#FEB3B1"/>
</linearGradient>
<linearGradient id="paint14_linear_1078_357" x1="448.715" y1="413.988" x2="467.751" y2="373.299" gradientUnits="userSpaceOnUse">
<stop stop-color="#4042E2"/>
<stop offset="1" stop-color="#4F52FF"/>
</linearGradient>
<linearGradient id="paint15_linear_1078_357" x1="527.032" y1="200.544" x2="501.569" y2="329.228" gradientUnits="userSpaceOnUse">
<stop stop-color="#FF928E"/>
<stop offset="1" stop-color="#FEB3B1"/>
</linearGradient>
<linearGradient id="paint16_linear_1078_357" x1="380.221" y1="425.552" x2="376.813" y2="450.722" gradientUnits="userSpaceOnUse">
<stop stop-color="#09005D"/>
<stop offset="1" stop-color="#1A0F91"/>
</linearGradient>
<linearGradient id="paint17_linear_1078_357" x1="378.932" y1="444.546" x2="371.051" y2="494.673" gradientUnits="userSpaceOnUse">
<stop stop-color="#020039"/>
<stop offset="1" stop-color="#090056"/>
</linearGradient>
<linearGradient id="paint18_linear_1078_357" x1="320.502" y1="350.013" x2="352.501" y2="401.048" gradientUnits="userSpaceOnUse">
<stop stop-color="#FF928E"/>
<stop offset="1" stop-color="#FEB3B1"/>
</linearGradient>
<linearGradient id="paint19_linear_1078_357" x1="408.665" y1="394.659" x2="385.238" y2="414.282" gradientUnits="userSpaceOnUse">
<stop stop-color="#020039"/>
<stop offset="1" stop-color="#090056"/>
</linearGradient>
<linearGradient id="paint20_linear_1078_357" x1="400.848" y1="389.725" x2="427.284" y2="389.725" gradientUnits="userSpaceOnUse">
<stop stop-color="#09005D"/>
<stop offset="1" stop-color="#1A0F91"/>
</linearGradient>
<linearGradient id="paint21_linear_1078_357" x1="357.35" y1="226.352" x2="386.966" y2="303.464" gradientUnits="userSpaceOnUse">
<stop stop-color="#FF928E"/>
<stop offset="1" stop-color="#FEB3B1"/>
</linearGradient>
<linearGradient id="paint22_linear_1078_357" x1="459.922" y1="297.12" x2="480.745" y2="297.12" gradientUnits="userSpaceOnUse">
<stop stop-color="#FF928E"/>
<stop offset="1" stop-color="#FEB3B1"/>
</linearGradient>
<linearGradient id="paint23_linear_1078_357" x1="432.257" y1="322.169" x2="399.09" y2="418.848" gradientUnits="userSpaceOnUse">
<stop stop-color="#E1473D"/>
<stop offset="1" stop-color="#E9605A"/>
</linearGradient>
<linearGradient id="paint24_linear_1078_357" x1="434.305" y1="192.937" x2="417.127" y2="233.868" gradientUnits="userSpaceOnUse">
<stop stop-color="#FF928E"/>
<stop offset="1" stop-color="#FEB3B1"/>
</linearGradient>
<linearGradient id="paint25_linear_1078_357" x1="419.006" y1="188.9" x2="446.91" y2="181.171" gradientUnits="userSpaceOnUse">
<stop stop-color="#FF928E"/>
<stop offset="1" stop-color="#FEB3B1"/>
</linearGradient>
<linearGradient id="paint26_linear_1078_357" x1="425.448" y1="158.348" x2="453.431" y2="194.427" gradientUnits="userSpaceOnUse">
<stop stop-color="#09005D"/>
<stop offset="1" stop-color="#1A0F91"/>
</linearGradient>
<linearGradient id="paint27_linear_1078_357" x1="418.274" y1="186.253" x2="446.178" y2="178.523" gradientUnits="userSpaceOnUse">
<stop stop-color="#FF928E"/>
<stop offset="1" stop-color="#FEB3B1"/>
</linearGradient>
<linearGradient id="paint28_linear_1078_357" x1="562.083" y1="116.856" x2="530.097" y2="193.972" gradientUnits="userSpaceOnUse">
<stop stop-color="#FF928E"/>
<stop offset="1" stop-color="#FEB3B1"/>
</linearGradient>
<linearGradient id="paint29_linear_1078_357" x1="572.213" y1="155.981" x2="662.99" y2="98.3456" gradientUnits="userSpaceOnUse">
<stop stop-color="#FE7062"/>
<stop offset="1" stop-color="#FF928E"/>
</linearGradient>
<linearGradient id="paint30_linear_1078_357" x1="439.185" y1="244.333" x2="440.961" y2="173.179" gradientUnits="userSpaceOnUse">
<stop stop-color="#FE7062"/>
<stop offset="1" stop-color="#FF928E"/>
</linearGradient>
<linearGradient id="paint31_linear_1078_357" x1="438.346" y1="309.132" x2="334.455" y2="401.424" gradientUnits="userSpaceOnUse">
<stop stop-color="#09005D"/>
<stop offset="1" stop-color="#1A0F91"/>
</linearGradient>
</defs>
</svg>
