<svg width="173" height="36" viewBox="0 0 173 36" fill="none" xmlns="http://www.w3.org/2000/svg">
<g clip-path="url(#clip0_1078_2259)">
<path d="M12.1464 4.81641H11.3136C11.0488 4.81641 10.8803 4.99042 10.8803 5.25626V11.1919C10.8803 11.4529 10.8177 11.6463 10.6973 11.7671C10.5962 11.8734 10.4037 11.9314 10.1292 11.9363H4.00071C3.36041 11.9363 2.83085 11.7139 2.38312 11.2547C1.92095 10.8004 1.6995 10.259 1.6995 9.61616C1.6995 9.17147 1.81985 8.74611 2.05575 8.35943C2.29165 7.97757 2.61421 7.67789 3.01379 7.47005L3.3556 7.2912C3.46633 7.2477 3.55298 7.1607 3.58668 7.05919C3.61075 7.00602 3.6252 6.94802 3.6252 6.89001C3.6252 6.81268 3.60113 6.74017 3.56743 6.69184L3.19673 5.95713C3.1197 5.81696 3.01379 5.75896 2.92713 5.73479C2.82603 5.71062 2.72975 5.71545 2.60458 5.76862L2.23388 5.9523C1.5647 6.30032 1.01587 6.81268 0.606664 7.47488C0.207081 8.14191 0.00488281 8.86212 0.00488281 9.62099C0.00488281 10.7327 0.399651 11.6946 1.17956 12.4728C1.95947 13.2558 2.91269 13.6522 4.01034 13.6522H10.1437C10.8706 13.6522 11.4676 13.4299 11.9201 12.99C12.3631 12.5453 12.5893 11.9411 12.5893 11.1967V5.2611C12.5893 4.99042 12.4208 4.82124 12.1512 4.82124" fill="white"/>
<path d="M5.53171 4.67075H6.39827C6.66787 4.67075 6.83637 4.49674 6.83637 4.22122V3.28351C6.83637 3.00799 6.66787 2.83398 6.39827 2.83398H5.53171C5.2573 2.83398 5.08398 3.00799 5.08398 3.28351V4.22122C5.08398 4.49674 5.2573 4.67075 5.53171 4.67075Z" fill="white"/>
<path d="M7.86681 4.67075H8.73337C9.00297 4.67075 9.17147 4.49674 9.17147 4.22122V3.28351C9.17147 3.00799 9.00297 2.83398 8.73337 2.83398H7.86681C7.59721 2.83398 7.42871 3.00799 7.42871 3.28351V4.22122C7.42871 4.49674 7.59721 4.67075 7.86681 4.67075Z" fill="white"/>
<path d="M22.8727 3.1494H23.7392C24.0136 3.1494 24.187 2.98023 24.187 2.70955V1.67033C24.187 1.39964 24.0136 1.23047 23.7392 1.23047H22.8727C22.6031 1.23047 22.4346 1.39964 22.4346 1.67033V2.70955C22.4346 2.98023 22.6031 3.1494 22.8727 3.1494Z" fill="white"/>
<path d="M25.2221 3.1494H26.0791C26.3583 3.1494 26.5268 2.98023 26.5268 2.70955V1.67033C26.5268 1.39964 26.3535 1.23047 26.0791 1.23047H25.2221C24.9429 1.23047 24.7744 1.39964 24.7744 1.67033V2.70955C24.7744 2.98023 24.9477 3.1494 25.2221 3.1494Z" fill="white"/>
<path d="M35.7651 16.3921V15.3577C35.7651 15.0822 35.5918 14.9082 35.3174 14.9082H34.4604C34.186 14.9082 34.0127 15.0822 34.0127 15.3577V16.3921C34.0127 16.6628 34.186 16.832 34.4604 16.832H35.3174C35.5918 16.832 35.7651 16.6628 35.7651 16.3921Z" fill="white"/>
<path d="M32.9775 16.832C33.2519 16.832 33.4252 16.6628 33.4252 16.3921V15.3577C33.4252 15.0822 33.2519 14.9082 32.9775 14.9082H32.1109C31.8413 14.9082 31.6729 15.0822 31.6729 15.3577V16.3921C31.6729 16.6628 31.8413 16.832 32.1109 16.832H32.9775Z" fill="white"/>
<path d="M40.4497 14.7871H41.3066C41.5521 14.7871 41.7543 14.9901 41.7543 15.2366V16.2614C41.7543 16.5079 41.5521 16.7109 41.3066 16.7109H40.4497C40.2042 16.7109 40.002 16.5079 40.002 16.2614V15.2366C40.002 14.9901 40.2042 14.7871 40.4497 14.7871Z" fill="white"/>
<path d="M62.1617 3.1494H63.0187C63.2931 3.1494 63.4664 2.98023 63.4664 2.70955V1.67033C63.4664 1.39964 63.2931 1.23047 63.0187 1.23047H62.1617C61.8921 1.23047 61.7236 1.39964 61.7236 1.67033V2.70955C61.7236 2.98023 61.8921 3.1494 62.1617 3.1494Z" fill="white"/>
<path d="M59.8217 3.1494H60.6931C60.9627 3.1494 61.1312 2.98023 61.1312 2.70955V1.67033C61.1312 1.39964 60.9627 1.23047 60.6931 1.23047H59.8217C59.5473 1.23047 59.374 1.39964 59.374 1.67033V2.70955C59.374 2.98023 59.5473 3.1494 59.8217 3.1494Z" fill="white"/>
<path d="M63.481 13.6522H65.6812C66.4081 13.6522 67.0051 13.4298 67.4576 12.99C67.9005 12.5453 68.1268 11.9411 68.1268 11.1967V0.959191C68.1268 0.683676 67.9583 0.509667 67.6887 0.509667H66.8655C66.5959 0.509667 66.4274 0.683676 66.4274 0.959191V11.2064C66.4274 11.4722 66.3696 11.6656 66.2541 11.7816C66.1626 11.8783 66.0037 11.9314 65.7871 11.9459H64.2947L63.2644 11.9411C62.7011 11.9411 62.4701 11.8251 62.369 11.7236C62.3112 11.6656 62.2823 11.5689 62.2823 11.4287V5.27075C62.2823 4.99524 62.1138 4.82123 61.8442 4.82123H61.021C60.7562 4.82123 60.5877 4.99524 60.5877 5.27075V11.1919C60.5877 11.4626 60.5299 11.6608 60.4047 11.7768C60.2988 11.8879 60.1159 11.9459 59.8704 11.9459H56.433C56.0816 11.9459 55.8264 11.8589 55.6435 11.6801C55.5231 11.5641 55.4653 11.4046 55.4653 11.1967V8.7606C55.4653 7.4797 55.1139 6.43564 54.4255 5.66227C53.737 4.87923 52.8079 4.48288 51.6621 4.48288C50.4344 4.48288 48.9805 5.21758 47.3485 6.67249V0.939856C47.3485 0.669176 47.18 0.5 46.9152 0.5H46.092C45.8224 0.5 45.6539 0.669176 45.6539 0.939856V11.9411H42.7028C42.1058 11.9363 41.894 11.8106 41.8169 11.7333C41.7592 11.6753 41.7303 11.5737 41.7303 11.4287V5.26108C41.7303 4.9904 41.557 4.82123 41.2826 4.82123H40.4689C40.1993 4.82123 40.0309 4.9904 40.0309 5.26108V11.1967C40.0309 11.4674 39.9731 11.6608 39.8672 11.7719C39.7516 11.8783 39.5639 11.9363 39.3135 11.9411H36.3672C35.7991 11.9411 35.568 11.8251 35.4718 11.7284C35.414 11.6704 35.3851 11.5737 35.3851 11.4287V5.27075C35.3851 4.99524 35.2118 4.82123 34.9374 4.82123H34.1238C33.8542 4.82123 33.6857 4.99524 33.6857 5.27075V11.1919C33.6857 11.4674 33.6279 11.6656 33.5124 11.7768C33.4064 11.8879 33.2235 11.9459 32.978 11.9459H28.467V8.40291C28.467 7.32502 28.0819 6.39214 27.3164 5.63327C26.5558 4.86956 25.6218 4.47804 24.5482 4.47804C23.4747 4.47804 22.5407 4.86473 21.78 5.63327C21.0146 6.39214 20.6294 7.32502 20.6294 8.40775V9.73215C20.6294 10.5442 20.8605 11.2886 21.3179 11.9508H17.5194C17.2739 11.9508 17.091 11.8928 16.9754 11.7816C16.8647 11.6656 16.8117 11.4722 16.8117 11.2064V0.959191C16.8117 0.683676 16.6384 0.509667 16.364 0.509667H15.5504C15.2808 0.509667 15.1123 0.683676 15.1123 0.959191V11.1967C15.1123 11.9459 15.3386 12.5501 15.7815 12.99C16.2196 13.4298 16.8165 13.6522 17.5483 13.6522H32.9443C33.6279 13.6522 34.1864 13.4637 34.6341 13.0625C35.0914 13.4492 35.7317 13.6474 36.5453 13.6522H36.5838H39.2895C39.9875 13.6522 40.5556 13.4492 40.9793 13.0528C41.4366 13.4443 42.0769 13.6425 42.8905 13.6474H42.929H52.2687C53.2604 13.6474 54.0403 13.3622 54.5939 12.8015C54.6228 12.8353 54.6517 12.8643 54.6758 12.8933C55.1765 13.3912 55.8312 13.6425 56.6207 13.6474H56.6496H59.8463C60.5347 13.6474 61.1028 13.4492 61.5313 13.0577C61.9886 13.4395 62.6337 13.6377 63.4473 13.6425H63.4859L63.481 13.6522ZM49.5438 7.00601C50.4056 6.46465 51.1181 6.1843 51.6669 6.1843C52.5094 6.1843 53.0823 6.51782 53.4241 7.21385C53.6407 7.64887 53.7515 8.16607 53.7515 8.75577V10.4524C53.7515 10.984 53.6359 11.3659 53.4 11.5979C53.1737 11.8299 52.7934 11.9459 52.2639 11.9459H47.3485V8.94911C47.9503 8.1999 48.6869 7.54254 49.5438 7.00601ZM24.5386 6.1843C25.1548 6.1843 25.6651 6.39698 26.0984 6.83683C26.5365 7.27185 26.7483 7.77938 26.7483 8.39808V11.9411H24.5386C23.9272 11.9411 23.4169 11.7284 22.9788 11.2886C22.5407 10.8487 22.3289 10.3363 22.3289 9.72248V8.39808C22.3289 7.78421 22.5407 7.27185 22.9788 6.83683C23.4169 6.39698 23.9272 6.1843 24.5386 6.1843Z" fill="white"/>
<path d="M71.0826 13.6523H71.9155C72.1803 13.6523 72.3488 13.4783 72.3488 13.2124V0.949622C72.3488 0.678941 72.1803 0.509766 71.9155 0.509766H71.0826C70.813 0.509766 70.6445 0.678941 70.6445 0.949622V13.2076C70.6445 13.4783 70.813 13.6475 71.0826 13.6475" fill="white"/>
<path d="M90.6422 14.9082C90.3726 14.9082 90.2041 15.0822 90.2041 15.3577V16.3921C90.2041 16.6628 90.3726 16.832 90.6422 16.832H91.5088C91.7832 16.832 91.9565 16.6628 91.9565 16.3921V15.3577C91.9565 15.0822 91.7832 14.9082 91.5088 14.9082H90.6422Z" fill="white"/>
<path d="M92.9917 14.9082C92.7173 14.9082 92.5439 15.0822 92.5439 15.3577V16.3921C92.5439 16.6628 92.7173 16.832 92.9917 16.832H93.8486C94.123 16.832 94.2963 16.6628 94.2963 16.3921V15.3577C94.2963 15.0822 94.123 14.9082 93.8486 14.9082H92.9917Z" fill="white"/>
<path d="M93.1554 13.0579C93.6128 13.4446 94.2531 13.6428 95.0667 13.6476H95.1052H104.71C104.946 13.6476 105.148 13.5655 105.311 13.3963C105.475 13.2271 105.562 13.0289 105.562 12.7921V8.39352C105.562 7.31563 105.177 6.37792 104.421 5.61421C103.655 4.8505 102.726 4.45898 101.653 4.45898C100.579 4.45898 99.645 4.84567 98.8844 5.61421C98.1286 6.37792 97.7434 7.31563 97.7434 8.39352V9.70826C97.7434 10.53 97.9697 11.2792 98.4174 11.9317H94.8886C94.3205 11.9317 94.0894 11.8157 93.9931 11.719C93.9353 11.661 93.9065 11.5644 93.9065 11.4193V5.26136C93.9065 4.98585 93.7331 4.81184 93.4587 4.81184H92.6451C92.3755 4.81184 92.207 4.98585 92.207 5.26136V11.1825C92.207 11.458 92.1493 11.6562 92.0337 11.7674C91.9278 11.8785 91.7449 11.9365 91.4993 11.9365H88.4471C88.0908 11.9365 87.8309 11.8495 87.6528 11.6707C87.5276 11.545 87.465 11.3855 87.465 11.1825V7.85216C87.465 6.91928 87.1328 6.1169 86.4781 5.45954C85.8185 4.80217 85.0145 4.46865 84.095 4.46865C83.0311 4.46865 82.1741 4.69583 81.5483 5.14535L81.2257 5.37737C81.1246 5.44987 81.0572 5.55137 81.038 5.66738V5.74955C81.038 5.85589 81.0717 5.95256 81.1246 6.0009L81.5964 6.67277C81.6735 6.78394 81.7794 6.84678 81.9045 6.85644H81.9575C82.0442 6.85644 82.126 6.83228 82.2127 6.77911L82.5496 6.54709C82.8818 6.31025 83.4066 6.18941 84.0998 6.18941C84.562 6.18941 84.9471 6.34892 85.2793 6.6776C85.6115 7.01112 85.7752 7.3978 85.7752 7.86183V10.6846C85.7752 11.1342 85.6885 11.4484 85.5104 11.6224C85.3034 11.8399 84.8846 11.9462 84.278 11.9462H80.5084C80.2388 11.9462 80.0703 12.1202 80.0703 12.3957V13.2126C80.0703 13.4833 80.2388 13.6525 80.5084 13.6525H84.278C85.3082 13.6525 86.1074 13.3915 86.661 12.8743C86.6658 12.8791 86.6706 12.8888 86.6755 12.8936C87.1713 13.3866 87.8309 13.638 88.6252 13.6476H88.6686H91.4608C92.1444 13.6476 92.7029 13.4591 93.1506 13.0579M101.653 6.18457C102.269 6.18457 102.784 6.39725 103.217 6.82744C103.655 7.2673 103.867 7.77966 103.867 8.39836V11.9414H101.653C101.036 11.9414 100.526 11.7287 100.088 11.2888C99.6547 10.849 99.4477 10.3366 99.4477 9.71793V8.40319C99.4477 7.78449 99.6595 7.2673 100.088 6.83228C100.526 6.39725 101.036 6.18941 101.653 6.18941" fill="white"/>
<path d="M102.336 3.1494H103.193C103.468 3.1494 103.641 2.98023 103.641 2.70955V1.67033C103.641 1.39964 103.468 1.23047 103.193 1.23047H102.336C102.062 1.23047 101.889 1.39964 101.889 1.67033V2.70955C101.889 2.98023 102.062 3.1494 102.336 3.1494Z" fill="white"/>
<path d="M100.001 3.1494H100.868C101.138 3.1494 101.306 2.98023 101.306 2.70955V1.67033C101.306 1.39964 101.138 1.23047 100.868 1.23047H100.001C99.727 1.23047 99.5537 1.39964 99.5537 1.67033V2.70955C99.5537 2.98023 99.727 3.1494 100.001 3.1494Z" fill="white"/>
<path d="M114.844 3.1494H115.711C115.985 3.1494 116.159 2.98023 116.159 2.70955V1.67033C116.159 1.39964 115.985 1.23047 115.711 1.23047H114.844C114.575 1.23047 114.406 1.39964 114.406 1.67033V2.70955C114.406 2.98023 114.575 3.1494 114.844 3.1494Z" fill="white"/>
<path d="M127.616 11.9412H123.197C122.807 11.9412 122.504 11.7769 122.258 11.4433C122.032 11.134 121.921 10.7666 121.921 10.3268V8.39818C121.921 7.77948 122.133 7.26229 122.561 6.82726C123 6.39224 123.51 6.1844 124.121 6.1844C124.564 6.1844 124.973 6.30524 125.344 6.54692C125.71 6.77893 125.922 7.04961 125.989 7.37346L126.081 7.76015C126.119 7.98732 126.273 8.12266 126.485 8.12266C126.519 8.12266 126.557 8.12266 126.61 8.10816L127.419 7.91965C127.631 7.86648 127.761 7.72148 127.761 7.52813C127.761 7.48463 127.761 7.44596 127.746 7.39763L127.66 6.99161C127.496 6.2714 127.068 5.6672 126.394 5.18868C125.72 4.71015 124.959 4.46847 124.121 4.46847C123.052 4.46847 122.123 4.85516 121.358 5.6237C120.602 6.38741 120.217 7.32512 120.217 8.40301V10.3316C120.217 10.902 120.342 11.4433 120.588 11.946H117.112C116.548 11.946 116.313 11.83 116.216 11.7334C116.158 11.6754 116.13 11.5787 116.13 11.4337V5.27568C116.13 5.00017 115.956 4.82616 115.682 4.82616H114.868C114.599 4.82616 114.43 5.00017 114.43 5.27568V11.192C114.43 11.4675 114.372 11.6657 114.257 11.7769C114.151 11.888 113.968 11.946 113.722 11.946H110.492C110.247 11.946 110.064 11.888 109.948 11.7769C109.837 11.6657 109.784 11.4675 109.784 11.2017V0.959289C109.784 0.678941 109.611 0.509766 109.337 0.509766H108.523C108.253 0.509766 108.085 0.683775 108.085 0.959289V11.1968C108.085 11.946 108.311 12.5502 108.754 12.9901C109.192 13.4299 109.789 13.6523 110.521 13.6523H113.694C114.377 13.6523 114.936 13.4638 115.383 13.0626C115.841 13.4493 116.481 13.6475 117.295 13.6523H117.333H127.621C127.891 13.6523 128.059 13.4831 128.059 13.2124V12.3859C128.059 12.1152 127.891 11.946 127.621 11.946" fill="white"/>
<path d="M5.14162 23.5273L0 35.3696H0.938778C1.19875 35.3696 1.42983 35.302 1.64166 35.1618C1.85349 35.0264 2.00754 34.8379 2.10864 34.6059L2.92225 32.7208H8.94487L9.76811 34.6059C9.87402 34.8428 10.0281 35.0313 10.2351 35.1618C10.4421 35.2971 10.678 35.3648 10.9332 35.3648H11.8719L6.73032 23.5273H5.14162ZM3.63957 31.0871L5.78673 26.1375C5.82524 26.036 5.85894 25.9296 5.88301 25.8136C5.90708 25.6976 5.92634 25.572 5.93597 25.4318C5.95041 25.7073 6.00337 25.9393 6.09002 26.1326L8.23718 31.0822H3.63957V31.0871Z" fill="white"/>
<path d="M20.4995 24.6197C20.1673 24.2862 19.7725 24.0204 19.3248 23.8222C18.8771 23.6288 18.3956 23.5273 17.8853 23.5273H13.6729V35.3648H15.3001V30.9614H17.8853C18.3956 30.9614 18.8771 30.8647 19.3248 30.6666C19.7725 30.4732 20.1673 30.2074 20.4995 29.869C20.8316 29.5355 21.0964 29.1391 21.2938 28.6896C21.4864 28.2401 21.5875 27.7567 21.5875 27.2444C21.5875 26.732 21.4912 26.2487 21.2938 25.7991C21.0964 25.3496 20.8316 24.9533 20.4995 24.6197ZM19.7918 28.0612C19.6858 28.3126 19.5366 28.5301 19.3488 28.7234C19.1611 28.912 18.9396 29.0618 18.6845 29.1681C18.4341 29.2745 18.1645 29.3276 17.8805 29.3276H15.2953V25.1659H17.8805C18.1645 25.1659 18.4341 25.2191 18.6845 25.3254C18.9348 25.4318 19.1563 25.5816 19.3488 25.7701C19.5366 25.9586 19.6858 26.181 19.7918 26.4372C19.8977 26.6885 19.9506 26.9592 19.9506 27.2444C19.9506 27.5296 19.8977 27.8099 19.7918 28.0564" fill="white"/>
<path d="M31.0522 24.6197C30.72 24.2862 30.3252 24.0204 29.8775 23.8222C29.4298 23.6288 28.9484 23.5273 28.4381 23.5273H24.2256V35.3648H25.8528V30.9614H28.4381C28.9484 30.9614 29.4298 30.8647 29.8775 30.6666C30.3252 30.4732 30.72 30.2074 31.0522 29.869C31.3844 29.5355 31.6492 29.1391 31.8465 28.6896C32.0391 28.2401 32.1402 27.7567 32.1402 27.2444C32.1402 26.732 32.0439 26.2487 31.8465 25.7991C31.6492 25.3496 31.3844 24.9533 31.0522 24.6197ZM30.3493 28.0612C30.2434 28.3126 30.0942 28.5301 29.9064 28.7234C29.7186 28.912 29.4972 29.0618 29.242 29.1681C28.9917 29.2745 28.7221 29.3276 28.4381 29.3276H25.8528V25.1659H28.4381C28.7221 25.1659 28.9917 25.2191 29.242 25.3254C29.4924 25.4318 29.7138 25.5816 29.9064 25.7701C30.0942 25.9586 30.2434 26.181 30.3493 26.4372C30.4552 26.6885 30.5082 26.9592 30.5082 27.2444C30.5082 27.5296 30.4552 27.8099 30.3493 28.0564" fill="white"/>
<path d="M40.0789 29.2742C39.9152 29.1486 39.7419 29.0374 39.5589 28.9455C39.376 28.8537 39.1931 28.7667 39.0101 28.6845C38.8224 28.6024 38.6346 28.5299 38.4372 28.4622C38.2398 28.3945 38.0473 28.322 37.8547 28.2447C37.4647 28.1142 37.1326 27.9885 36.863 27.8725C36.5934 27.7565 36.3719 27.6356 36.1986 27.5051C36.0301 27.3746 35.9049 27.2296 35.8279 27.0653C35.7509 26.9009 35.7124 26.6979 35.7124 26.4611C35.7124 26.2581 35.7605 26.0696 35.8664 25.8955C35.9675 25.7215 36.1071 25.5717 36.2756 25.446C36.4441 25.3204 36.6463 25.2188 36.8774 25.1463C37.1037 25.0738 37.3492 25.04 37.6044 25.04C37.7969 25.04 38.0039 25.0883 38.2206 25.1802C38.442 25.272 38.6587 25.3977 38.8705 25.5524C39.0727 25.6829 39.3038 25.7457 39.5638 25.7457C39.8671 25.7457 40.1318 25.6442 40.3629 25.446L40.7818 25.1318C40.6325 24.9482 40.4448 24.7597 40.2233 24.5518C39.997 24.3488 39.7467 24.1603 39.4675 23.9911C39.1883 23.8219 38.8898 23.6818 38.572 23.5706C38.2543 23.4594 37.9317 23.4062 37.6092 23.4062C37.1663 23.4062 36.733 23.4739 36.3093 23.6141C35.8857 23.7494 35.5102 23.9524 35.1828 24.2135C34.8554 24.4745 34.5906 24.7935 34.3884 25.1753C34.1862 25.5572 34.09 25.9874 34.09 26.4707C34.09 26.9976 34.1814 27.4423 34.3644 27.7951C34.5473 28.148 34.7928 28.4525 35.0961 28.6942C35.3994 28.9407 35.7461 29.1486 36.1312 29.3177C36.5163 29.4869 36.9159 29.6512 37.3203 29.8156C37.5947 29.9268 37.874 30.0331 38.1532 30.1394C38.4372 30.2458 38.6924 30.3714 38.9186 30.5213C39.1449 30.6711 39.3327 30.85 39.4723 31.0578C39.6167 31.2657 39.6841 31.5315 39.6841 31.8505C39.6841 32.1695 39.6071 32.4741 39.4578 32.7206C39.3086 32.9671 39.116 33.1798 38.8801 33.3489C38.6442 33.5181 38.3891 33.6438 38.1002 33.7308C37.8162 33.8178 37.537 33.8613 37.2674 33.8613C36.94 33.8613 36.6463 33.813 36.3912 33.7163C36.136 33.6196 35.9049 33.4843 35.6979 33.3054L35.5679 33.1991C35.3224 32.9381 35.0191 32.8124 34.6629 32.8124C34.4366 32.8124 34.2199 32.8752 34.0129 33.0009L33.6182 33.2088C33.6519 33.2764 33.6952 33.3586 33.7481 33.4553C33.8011 33.5568 33.8685 33.6631 33.9503 33.784C34.0274 33.9048 34.1237 34.0305 34.2344 34.161C34.3451 34.2915 34.4703 34.4172 34.6147 34.5428C35.3272 35.176 36.213 35.4951 37.2722 35.4951C37.8017 35.4951 38.3121 35.4032 38.8031 35.2244C39.2893 35.0455 39.7226 34.7942 40.0933 34.4703C40.464 34.1465 40.7625 33.7646 40.984 33.3151C41.2054 32.8704 41.3113 32.3774 41.3113 31.836C41.3113 30.763 40.8973 29.9074 40.0693 29.2742" fill="white"/>
<path d="M56.5962 29.4766C56.5336 29.4234 56.4662 29.3751 56.394 29.3461C56.3218 29.3122 56.2448 29.2832 56.1725 29.2639C56.1003 29.2397 56.0281 29.2252 55.9607 29.2204C55.8933 29.2107 55.8452 29.2059 55.8067 29.2059C55.9848 29.1962 56.1533 29.114 56.317 28.9642C56.4807 28.8144 56.6251 28.621 56.7503 28.3938C56.8754 28.1667 56.9813 27.9153 57.0584 27.6398C57.1354 27.3691 57.1739 27.1033 57.1739 26.8519C57.1739 26.3927 57.0873 25.9625 56.9139 25.5614C56.7406 25.1553 56.5047 24.8025 56.2062 24.5028C55.9078 24.2031 55.5563 23.9663 55.1519 23.7923C54.7475 23.6183 54.3191 23.5312 53.8617 23.5312H49.2256V35.3687H50.8528L54.3335 35.359C54.8053 35.359 55.2482 35.2672 55.6574 35.0884C56.0666 34.9095 56.4277 34.6678 56.7358 34.3633C57.0439 34.0588 57.2846 33.6963 57.4628 33.2854C57.6409 32.8746 57.7275 32.4299 57.7275 31.9562C57.7275 31.4825 57.6216 31.004 57.405 30.5786C57.1932 30.1581 56.9188 29.7907 56.5914 29.4766M50.8528 25.165H53.8569C54.088 25.165 54.3046 25.2085 54.5116 25.2955C54.7186 25.3825 54.8968 25.5034 55.0508 25.658C55.2049 25.8127 55.3252 25.9915 55.4119 26.1994C55.4985 26.4072 55.5419 26.6247 55.5419 26.8568C55.5419 27.0888 55.4985 27.3063 55.4119 27.5093C55.3252 27.7123 55.2049 27.8911 55.0508 28.0458C54.8968 28.2005 54.7186 28.3213 54.5116 28.4083C54.3046 28.4953 54.088 28.5388 53.8569 28.5388H50.8528V25.1602V25.165ZM55.9607 32.6377C55.8692 32.8552 55.7393 33.0437 55.5804 33.2033C55.4215 33.3676 55.2338 33.4933 55.0219 33.5899C54.8101 33.6818 54.579 33.7301 54.3287 33.7301H50.848V30.1774H54.3383C54.579 30.1774 54.8053 30.2258 55.0219 30.3176C55.2338 30.4094 55.4215 30.5399 55.5804 30.6995C55.7393 30.859 55.8644 31.0475 55.9607 31.2602C56.0522 31.4777 56.1003 31.7048 56.1003 31.9465C56.1003 32.1882 56.0522 32.4202 55.9607 32.6329" fill="white"/>
<path d="M68.1647 30.7391C68.1647 31.1692 68.0829 31.5753 67.924 31.9523C67.7603 32.3341 67.5389 32.6628 67.2597 32.948C66.9756 33.2332 66.6483 33.4555 66.2679 33.615C65.8876 33.7794 65.488 33.8567 65.0596 33.8567C64.6311 33.8567 64.2267 33.7745 63.8512 33.615C63.4709 33.4507 63.1435 33.2284 62.8594 32.948C62.5754 32.6628 62.3539 32.3341 62.1951 31.9523C62.0314 31.5704 61.9544 31.1692 61.9544 30.7391V23.5273H60.3271V30.7391C60.3271 31.1741 60.3849 31.5946 60.4957 32.0006C60.6064 32.4066 60.7652 32.7885 60.9723 33.1413C61.1793 33.4942 61.4248 33.8132 61.7137 34.1032C62.0025 34.3932 62.3251 34.6398 62.6765 34.8476C63.0279 35.0554 63.4035 35.215 63.8078 35.3261C64.2122 35.4373 64.6311 35.4953 65.0644 35.4953C65.4976 35.4953 65.9213 35.4373 66.3257 35.3261C66.7301 35.215 67.1056 35.0554 67.457 34.8476C67.8085 34.6398 68.1262 34.3932 68.4199 34.1032C68.7088 33.8132 68.9591 33.4942 69.1661 33.1413C69.3731 32.7885 69.532 32.4115 69.6427 32.0055C69.7534 31.5994 69.8112 31.1789 69.8112 30.7391V23.5273H68.184V30.7391H68.1647Z" fill="white"/>
<path d="M81.1727 32.7247C81.139 32.396 81.0475 32.1205 80.9031 31.9079L75.1837 24.0001C75.0682 23.8406 74.9141 23.7246 74.7168 23.6473C74.5194 23.5699 74.2883 23.5312 74.0235 23.5312H72.8633V35.3687H74.4905V25.4308C74.5049 25.5227 74.5242 25.6145 74.5483 25.6967C74.5723 25.774 74.5964 25.8514 74.6253 25.9239C74.6542 25.9964 74.6927 26.064 74.736 26.1269L81.476 35.3735H82.7999V23.5361H81.1727V32.7296V32.7247Z" fill="white"/>
<path d="M88.3081 26.3266C88.7077 25.9254 89.1699 25.6112 89.7043 25.3792C90.2338 25.1472 90.8067 25.0312 91.4133 25.0312C91.8803 25.0312 92.3232 25.0988 92.742 25.239C93.1609 25.3743 93.5508 25.5677 93.9167 25.819C94.1237 25.964 94.3548 26.0317 94.6003 26.0317C94.7929 26.0317 94.9614 25.9979 95.1107 25.9302C95.2599 25.8625 95.3947 25.7659 95.5199 25.6354L95.8232 25.3308C95.5488 25.0312 95.2455 24.7653 94.9133 24.5236C94.5811 24.282 94.2296 24.0838 93.8541 23.9146C93.4786 23.7503 93.0887 23.6198 92.6795 23.5279C92.2702 23.4361 91.8466 23.3926 91.4133 23.3926C90.8597 23.3926 90.3253 23.4651 89.815 23.6053C89.2999 23.7503 88.8233 23.9533 88.3755 24.2143C87.9278 24.4801 87.5234 24.7943 87.1575 25.1617C86.7916 25.529 86.4787 25.935 86.2139 26.3846C85.9491 26.8341 85.7469 27.3175 85.6073 27.8298C85.4629 28.347 85.3955 28.8787 85.3955 29.4346C85.3955 30.2708 85.5544 31.0586 85.8673 31.7885C86.185 32.5232 86.6135 33.1613 87.1575 33.7074C87.7015 34.2536 88.3418 34.6887 89.0688 35.0029C89.8005 35.3219 90.5805 35.4765 91.4133 35.4765C91.8466 35.4765 92.2702 35.433 92.6795 35.3412C93.0887 35.2494 93.4834 35.1237 93.8541 34.9593C94.2248 34.795 94.5811 34.592 94.9133 34.3503C95.2455 34.1086 95.5488 33.8428 95.8232 33.5431L95.5199 33.2386C95.3947 33.1129 95.2599 33.0162 95.1107 32.9486C94.9662 32.8809 94.7929 32.8471 94.5955 32.8471C94.3452 32.8471 94.1141 32.9147 93.9119 33.0549C93.5508 33.3014 93.1609 33.4948 92.742 33.6349C92.3232 33.7703 91.8803 33.8428 91.4085 33.8428C90.8019 33.8428 90.229 33.7268 89.6994 33.4948C89.1699 33.2628 88.7029 32.9486 88.3033 32.5474C87.9037 32.1462 87.5908 31.6822 87.3597 31.1457C87.1286 30.6091 87.0131 30.0388 87.0131 29.4249C87.0131 28.811 87.1286 28.2407 87.3597 27.709C87.5908 27.1773 87.9037 26.7084 88.3033 26.3072" fill="white"/>
<path d="M106.342 28.5929H99.9924V23.5273H98.3604V35.3696H99.9924V30.2267H106.342V35.3696H107.97V23.5273H106.342V28.5929Z" fill="white"/>
<path d="M111.262 35.3696H118.55V33.731H112.889V30.2122H117.472V28.5784H112.889V25.1659H118.55V23.5273H111.262V35.3696Z" fill="white"/>
<path d="M126.773 29.2742C126.609 29.1486 126.436 29.0374 126.253 28.9455C126.07 28.8537 125.887 28.7667 125.7 28.6845C125.512 28.6024 125.324 28.5299 125.127 28.4622C124.929 28.3945 124.737 28.322 124.544 28.2447C124.154 28.1142 123.822 27.9885 123.552 27.8725C123.283 27.7565 123.061 27.6356 122.888 27.5051C122.72 27.3746 122.594 27.2296 122.517 27.0653C122.44 26.9009 122.402 26.6979 122.402 26.4611C122.402 26.2581 122.45 26.0696 122.556 25.8955C122.657 25.7215 122.797 25.5717 122.965 25.446C123.134 25.3204 123.336 25.2188 123.567 25.1463C123.793 25.0738 124.039 25.04 124.294 25.04C124.486 25.04 124.693 25.0883 124.91 25.1802C125.131 25.272 125.348 25.3977 125.56 25.5524C125.762 25.6829 125.993 25.7457 126.253 25.7457C126.557 25.7457 126.821 25.6442 127.052 25.446L127.471 25.1318C127.322 24.9482 127.134 24.7597 126.913 24.5518C126.686 24.3488 126.436 24.1603 126.157 23.9911C125.878 23.8219 125.579 23.6818 125.261 23.5706C124.944 23.4594 124.621 23.4062 124.299 23.4062C123.856 23.4062 123.422 23.4739 122.999 23.6141C122.575 23.7494 122.2 23.9524 121.872 24.2135C121.545 24.4745 121.28 24.7935 121.078 25.1753C120.876 25.5572 120.779 25.9874 120.779 26.4707C120.779 26.9976 120.871 27.4423 121.054 27.7951C121.237 28.148 121.482 28.4525 121.786 28.6942C122.089 28.9407 122.436 29.1486 122.821 29.3177C123.206 29.4869 123.605 29.6512 124.01 29.8156C124.284 29.9268 124.563 30.0331 124.843 30.1394C125.127 30.2458 125.382 30.3714 125.608 30.5213C125.834 30.6711 126.022 30.85 126.162 31.0578C126.306 31.2657 126.374 31.5315 126.374 31.8505C126.374 32.1695 126.297 32.4741 126.147 32.7206C125.998 32.9671 125.805 33.1798 125.57 33.3489C125.334 33.5181 125.079 33.6438 124.79 33.7308C124.506 33.8178 124.226 33.8613 123.957 33.8613C123.629 33.8613 123.336 33.813 123.081 33.7163C122.825 33.6196 122.594 33.4843 122.387 33.3054L122.257 33.1991C122.012 32.9381 121.709 32.8124 121.352 32.8124C121.126 32.8124 120.909 32.8752 120.702 33.0009L120.308 33.2088C120.341 33.2764 120.385 33.3586 120.438 33.4553C120.491 33.5568 120.558 33.6631 120.64 33.784C120.717 33.9048 120.813 34.0305 120.924 34.161C121.035 34.2915 121.16 34.4172 121.304 34.5428C122.017 35.176 122.902 35.4951 123.962 35.4951C124.491 35.4951 125.002 35.4032 125.493 35.2244C125.979 35.0455 126.412 34.7942 126.783 34.4703C127.153 34.1465 127.452 33.7646 127.673 33.3151C127.895 32.8704 128.001 32.3774 128.001 31.836C128.001 30.763 127.587 29.9074 126.759 29.2742" fill="white"/>
<path d="M171.993 11.6898L161.869 1.51505C161.224 0.867353 160.348 0.5 159.433 0.5H141.582C139.68 0.5 138.14 2.04675 138.14 3.95601V21.8645C138.14 22.7828 138.501 23.6625 139.146 24.3102L149.28 34.4849C149.925 35.1326 150.801 35.4952 151.716 35.4952H169.553C171.454 35.4952 172.995 33.9484 172.995 32.0392V14.1307C172.995 13.2172 172.634 12.3375 171.989 11.6898M164.541 27.0509C164.541 28.3173 163.52 29.342 162.259 29.342H158.138C157.267 29.342 156.472 28.849 156.078 28.0708L155.553 27.0316C155.553 27.0316 159.303 27.0316 161.258 27.0316C161.893 27.0316 162.403 26.5144 162.403 25.8812V18.1378C162.403 17.4997 161.888 16.9825 161.258 16.9825H155.572L155.071 17.9831C154.672 18.7806 153.863 19.2882 152.972 19.2882H147.749C147.113 19.2882 146.603 18.771 146.603 18.1329V9.09412C146.603 8.45608 147.118 7.94372 147.749 7.94372H152.972C153.858 7.94372 154.672 8.44642 155.071 9.24396L155.572 10.2493H149.886C149.251 10.2493 148.736 10.7665 148.736 11.4046V15.8321C148.736 16.4702 149.251 16.9825 149.886 16.9825H155.567L156.068 15.9771C156.467 15.1796 157.276 14.6769 158.167 14.6769H162.259C163.52 14.6769 164.541 15.7016 164.541 16.968V27.0557V27.0509Z" fill="white"/>
</g>
<defs>
<clipPath id="clip0_1078_2259">
<rect width="173" height="35" fill="white" transform="translate(0 0.5)"/>
</clipPath>
</defs>
</svg>
