<?xml version="1.0" encoding="UTF-8"?>
<svg id="Layer_1" xmlns="http://www.w3.org/2000/svg" version="1.1" viewBox="0 0 30.8 36">
  <!-- Generator: Adobe Illustrator 29.3.1, SVG Export Plug-In . SVG Version: 2.1.0 Build 151)  -->
  <defs>
    <style>
      .st0 {
        fill: #fff;
      }

      .st1 {
        fill: #baafa0;
      }
    </style>
  </defs>
  <path class="st1" d="M12.1,33.4h-3.5v-14.6s0,0,0,0v14.6s0,0,0,0h3.5s0,0,0,0,0,0,0,0Z"/>
  <path class="st1" d="M8.6,13.7v-3.3s0,0,0,0,0,0,0,0v3.3s0,0,0,0Z"/>
  <path class="st1" d="M11.6,20.7c0,0,.1,0,.2,0,0,0,.1,0,.2,0v-.2s-.1,0-.2,0v.2Z"/>
  <path class="st1" d="M12.2,19.7s0,0,0,0c0,0,0,0,0,0,0,0,0,0,0,0,0,0,0,0,0-.2,0,0,0-.2,0-.2v.2c0,0,0,0,0,.1,0,0,0,0,0,0,0,0,0,0,0,0s0,0,0,0c0,0,0,0,0,0,0,0,0,0,0,0,0,0,0,0,0,0h0s0,0,0,0h0s0,0,0,0c0,0,0,0,0,0,0,0,0,0,0,0,0,0,0,0,.1,0,0,0,0,0,.1,0,0,0,0,0,0,0,0,0,0,0,0,0,0,0-.1,0-.2,0,0,0-.1,0-.2,0,0,0-.1,0-.2,0,0,0-.1,0-.1,0,0,0,0,0,0-.1,0,0,0,0,0-.1,0,0,0,0,0-.1,0,0,0,0,0-.1,0,0,0,0,0,0,0,0,0,0,0,0,0,0,0,0,0,.2,0,0,0,.1,0,.2s0,.1,0,.2c0,0,0,.1.1.2,0,0,.1,0,.2,0,0,0,.1,0,.2,0,0,0,.1,0,.2-.1,0,0,.1,0,.1-.1,0,0,0,0,0,0,0,0,0,0,0,0,0,0,0,0,0,0,0,0,0,0,0,0,0,0,0,0,0,0,0,0,0,0,0,0,0,0,0,0,0,0"/>
  <path class="st1" d="M12.2,19s0,0,0,0h-.1c0,0,0,0,0,0,0,0,0,0,0,0h.1c0,0,0,0,0,0"/>
  <polygon class="st1" points="12.9 19.9 12.9 19.4 12.8 19.6 12.8 20.1 12.9 19.9"/>
  <path class="st1" d="M14.2,19.1v-.2s-.1,0-.2,0v.2s0,0,0,0c0,0,.1,0,.2,0"/>
  <path class="st1" d="M14.5,19.1s0,0,0,0c0,0,0,0,0,.1,0,0,0,.1,0,.2,0,0,0,.1,0,.2,0,0-.1,0-.2,0,0,0-.1,0-.2,0,0,0,0,0,0,0,0,0,0-.1.1-.2,0,0,0-.2,0-.2,0,0-.1,0-.2,0,0,0-.1.2-.2.3,0,0-.1,0-.2,0,0,0,0,0-.1.1,0,0,0,.2-.1.2,0,0,0,0,0,0,0,0,0,0,0,0,0,0,0,0,.1,0,0,0,0,0,.1,0,0,0,0,0,0,0,0,0,0,0,0,0,0,0,0,0,0,0s0,0-.1,0c0,0-.2,0-.3,0-.1,0-.2,0-.3,0,0,0-.1,0-.2,0,0,0,0,0,0,0,0,0,0,0,.1,0,.2,0,.3-.1.3-.2,0,0,0,0,0-.1,0,0,0,0,0,0,0,0,0,0,0,0,0,0,0,0,0,0s0,0,0,0c0,0,0,0-.1,0,0,0-.1,0-.1.2,0,0,0,.1-.1.2,0,0-.1,0-.2,0v-.9c0,0-.2.2-.2.2v.9c0,0,0,0,0,0,0,0,0,0,0,0,0,0,0,0,0,0h0c0,0,.1,0,.2,0,0,0,0,0,0,0,0,0,0,.1,0,.2,0,0,0,0,.1,0,.2,0,.4,0,.6,0,.2,0,.4-.2.4-.4,0,0,0,0,0,0,0,0,0,0,0,0,0,0,0,0-.2,0,0,0,0,0,0,0,0,0,0,0,0,0,0,0,0,0,.1,0,0,0,0,0,0,0,0,0,0,0,0,0,0,0,0,0,0,0,0,0,.2,0,.3,0,.1,0,.2,0,.3,0,.1,0,.2-.2.2-.3,0,0,0-.1,0-.2v-.5s-.2.2-.2.2ZM12.9,20s0,0,.1,0c0,0,0,0,0,0s0,0,0,0c0,0,0,0,0,0,0,0,0,0,0,0s0,0,0,0c0,0,0,0-.1,0,0,0-.1,0-.2,0,0,0,0,0,0,0M13.9,19.7s0,0,0,0c0,0,0,0,0,0,0,0,0,0,0,0s0,0,0,0c0,0,0,0-.1,0,0,0,0,0,0,0,0,0,0,0,0,0"/>
  <polygon class="st1" points="15 19.3 14.9 19.5 14.9 20.1 15.1 19.9 15 19.3"/>
  <path class="st0" d="M21.8,25.8c-.2-1.7-2.1-3.1-3.8-3.1-1.6,0-2,3.5-1.2,4.5.9,1.2,2.7-.4,3.9-.2.3,0,.4.4.2.6-1.4,1.2-3.3,2.1-5.1,1.7-.8-.1-1.8-.8-1.9-1.7,0-.5,1.6-5.1,1.6-5.2l.6-2.1s0,0,0,0l.3-1.7s0,0,0,0c0,0,0-.2.1-.5.2-1,.4-2,.4-3v-1.6c0-.3.3-.4.5-.3,1.5,1.1,1.9,2.9,1.3,4.7,0,0,0,.3,0,.4,0,0,0,0,0,.1,0,0,0,0,0,0,0,0,0,0,0,0,0-.6.4-1.2.6-1.9.5-2.5.5-4.2-1.8-5.7-.4-.3-1.2-.5-1.4-.8-.3-.3-.6-1.4-.9-1.9-1.5-2.6-4.2-4.8-7.2-5.6-.6-.2-2.7-.6-3.4-.4-.1,0-.2.1-.2.2-2.7,7.2,6.1,8,10.9,9.6,0,0,.2.1.2.2.5,1.3.8,2.6.6,4,0,0,0,0,0,0-.1.5-1.3,6.2-1.4,6.5-.8,2.6-3.3,8.1,1.1,8.6,1.7.2,4.8-1.2,5.7-2.7.3-.5.3-2.4.3-3M19.3,25.6c-.6.3-1.1.4-1.7,0-.1-.1-.2-.3,0-.5.3-.4,1.1-.3,1.7-.1.3,0,.3.5,0,.6M13.5,9.5c-3.2-.8-7.4-1.5-8.7-4.8,0-.2,0-.5.3-.5,3.4.2,6.6,2,8.7,4.7,0,0,0,0,0,0,.2.3,0,.6-.4.5"/>
  <path class="st1" d="M24.7,33.5h-3.3s0,0,0,0,0,0,0,0h3.3V14.7s0,0,0,0,0,0,0,0v18.8s0,0,0,0"/>
  <path class="st1" d="M24.7,7.8s0,0,0,0V2.6H8.6s0,0,0,0,0,0,0,0h16.1s0,0,0,0v5.3s0,0,0,0"/>
  <path class="st1" d="M8.6,2.8s0,0,0,0v-.3s0,0,0,0h16.1s0,0,0,0,0,0,0,0H8.6v.2s0,0,0,0"/>
  <path class="st0" d="M27.4,10.4c-.1-.5-.4-1-.7-1.4-.2-.2-.5-.4-.7-.6h0c-.3-.2-.7-.2-1.1-.2h0c-1.1.1-2.2.6-3.1,1.4-1.1,1-2.4,2.6-2.7,3.9-.1.5,0,1.1-.1,1.5-.1.4-1.1,1.6-1.4,2.3-.3.9-.2,1.6-.4,2.4-.3,1.3-2.7,1.7-3.9,1.6-2.7-.2-5.5-3.7-8.1-1.5-.9.8-1.5,2-1.9,3.2,0,.3.3.5.5.2,0,0,0,0,0,0,2.9-4.8,6.3.8,9.9.4,2.3-.2,3.9-2.9,6.3-.9.3.3.4.7.7.8.1,0,.2,0,.3-.2.3-.9.5-2.1,0-2.9-.7-1.2-2.7-1-2.9-1.8-.3-1.1,3.1-3.1,4-3.5.1,0,4.9-1.2,4.9-1.2,0,0,.1,0,.2-.1.6-1.2.3-3.4.3-3.5M26.8,11.7c0,.1,0,.2-.2.3l-2,.4c-.5.1-1,.2-1.5.4-1.1.4-2.1.9-3,1.5-.2.1-.5,0-.4-.3.7-2,2.5-4,4.7-3.9,0,0,0,0,0,0,.2,0,2.4.3,2.4,1.6"/>
  <path class="st1" d="M20.9,19.8c.3-.8-.6-1.2-1.3-1.5-.2-.3.9-1.2,1.2-1.3,1.9.7,1.6,1.9,0,2.8"/>
  <path class="st1" d="M8.5,18.7c.3-.8-.6-1.2-1.3-1.5-.2-.3.9-1.2,1.2-1.3,1.9.7,1.6,1.9,0,2.8"/>
  <path class="st1" d="M8.3,13.1c-.3.8.6,1.2,1.3,1.5.2.3-.9,1.2-1.2,1.3-1.9-.7-1.6-1.9,0-2.8"/>
  <path class="st0" d="M13.3,32.7h0c0,.2.1.4.1.7h-.6c0,0,.1-.2.1-.3s0,0,0-.1c0-.2-.2-.3-.4-.3h0s0,0-.1,0c-.2,0-.3.2-.3.4v.4s0,0,0,0h1.3s0,0,0,0h0c0-.4,0-.6-.1-.8h0ZM12.6,33.4h-.3v-.2s0,0,0-.1c0-.2.1-.3.3-.3s0,0,0,0c.2,0,.2.2.2.3h0c0,.2-.1.3-.3.3"/>
  <path class="st0" d="M13.4,33.6s0,0,0,0c0,0,0,0,0,0s0,0,0,0c0,0,0,0,0,0s0,0,0,0c0,0,0,0,0,0s0,0,0,0c0,0,0,0,0,0"/>
  <path class="st0" d="M15.9,32.7s0,0,0,0c0,0,0,0,0,0s0,0,0,0c0,0,0,0,0,0s0,0,0,0c0,0,0,0,0,0s0,0,0,0c0,0,0,0,0,0"/>
  <path class="st0" d="M16.7,32.7s0,0,0,0c0,0,0,0,0,0s0,0,0,0c0,0,0,0,0,0s0,0,0,0c0,0,0,0,0,0s0,0,0,0,0,0,0,0"/>
  <path class="st0" d="M16.9,32.7s0,0,0,0c0,0,0,0,0,0s0,0,0,0c0,0,0,0,0,0s0,0,0,0c0,0,0,0,0,0s0,0,0,0c0,0,0,0,0,0"/>
  <path class="st0" d="M17.4,32.7s0,0,0,0c0,0,0,0,0,0s0,0,0,0c0,0,0,0,0,0s0,0,0,0c0,0,0,0,0,0s0,0,0,0c0,0,0,0,0,0"/>
  <path class="st0" d="M17.7,32.4c.2,0,.3-.2.3-.2h0c0,0,0-.1,0-.1h0s0,0,0,0h0s0,0,0,0c0,0,0,0-.1,0,0,0,0,0,0,0M17.9,32.1s0,0,0,0c0,0,0,0,0,0,0,0,0,0,0,0,0,0,0,0,0,0"/>
  <path class="st0" d="M17.9,33.6s0,0,0,0c0,0,0,0,0,0s0,0,0,0c0,0,0,0,0,0s0,0,0,0c0,0,0,0,0,0s0,0,0,0c0,0,0,0,0,0"/>
  <path class="st0" d="M17.8,32.7h0c0,.2.1.4.1.7h-.6c0,0,0-.1,0-.2v-.4s0,0,0,0h0s0,0,0,0v.4c0,.1,0,.2,0,.2h-.4c0,0,0-.1,0-.2v-.4s0,0,0,0h0s0,0,0,0v.4c0,.1,0,.2,0,.2h-.4v-.3s0,0,0-.1c0-.2-.2-.3-.4-.3h0s0,0-.1,0c-.2,0-.3.2-.3.4s0,.2.1.3h-.7c0,0,.1,0,.1,0,0,0,.1-.2.1-.5h0c0-.1,0-.1,0-.1h-.9s0,0,0,0v.2c0,.2,0,.4.2.5h0s-.4,0-.4,0h-.3c0,0,.3,0,.3,0h3.9s0,0,0,0h0c0-.4,0-.6-.1-.8h0ZM14.7,33.4c-.2,0-.3-.2-.3-.5h0c0-.1.8-.1.8-.1h0c0,.2,0,.3,0,.4-.1.1-.2.2-.3.2h0ZM16.2,33.4h-.3s0,0,0,0c-.1,0-.2-.2-.2-.3s0,0,0,0c0-.2.1-.2.3-.2h0s0,0,0,0c.1,0,.2.2.2.3v.3Z"/>
  <path class="st0" d="M17.7,33.6s0,0,0,0c0,0,0,0,0,0s0,0,0,0c0,0,0,0,0,0s0,0,0,0c0,0,0,0,0,0s0,0,0,0c0,0,0,0,0,0"/>
  <path class="st0" d="M19.2,32.3s0,0,0,0c0,0,0,0,0,0,.2,0,.3-.1.3-.2h0c0,0,0,0,0,0h0s0,0,0,0h0s0,0,0,0c0,0,0,0,0,0h0s0,0,0,0,0,0,0,0h0c0,0,0,0,0,0M19.3,32.1s0,0,0,0c0,0,0,0,0,0,0,0,0,0,0,0,0,0,0,0,0,0"/>
  <path class="st0" d="M21.2,33.4h-.4s0,0,0,0c-.1,0-.2-.2-.2-.3s0,0,0,0c0-.2.1-.2.3-.2h.3s0,0,0,0h0c0,0,0,0,0,0h-.3s0,0-.1,0c-.2,0-.3.2-.3.4s0,.2.1.3h-.5c0,0,0-.1,0-.2v-.7s0,0,0,0h0s0,0,0,0v.7c0,.1,0,.2,0,.2h-.2s0,0,0,0h-.3c0,0,.1-.2.1-.3h0s0,0,0-.1c0-.2-.2-.3-.3-.3h-.1c-.2,0-.3.2-.3.4s0,.2.1.3h-.4s0,0,0,0h-.3c0,0,.3,0,.3,0h.6s0,0,0,0h.1s.4,0,.4,0h1.5s0,0,0,0h0c0,0,0,0,0,0M19.3,33.4h0s0,0,0,0c-.2,0-.2-.1-.2-.3s0,0,0,0c0-.2.2-.2.3-.2h0c.2,0,.2.2.2.3h0s0,0,0,0c0,.2-.1.2-.3.2"/>
</svg>