<svg width="19" height="24" viewBox="0 0 19 24" fill="none" xmlns="http://www.w3.org/2000/svg">
<path d="M0.901513 16.3538H17.9446C18.2874 16.3538 18.6002 16.4757 18.8465 16.6735V0.952482C18.8465 0.425174 18.4138 0 17.8814 0H0.968078C0.435607 0 0.00292969 0.425174 0.00292969 0.952482V16.6735C0.245873 16.4724 0.558721 16.3538 0.901513 16.3538Z" fill="#005B47"/>
<path d="M16.2016 1.99735C16.2016 1.84247 16.0718 1.7205 15.9053 1.7205C15.7389 1.7205 15.6091 1.84242 15.6091 1.99735C15.6091 2.15554 15.7356 2.2742 15.9053 2.2742C16.0751 2.27751 16.2016 2.15559 16.2016 1.99735ZM14.9402 4.31101H16.927V3.65517C16.927 3.47719 16.8938 3.35853 16.8139 3.26295C16.7273 3.16077 16.5909 3.10807 16.4045 3.10807H14.9402V4.31101ZM11.1129 5.65901C11.0164 5.65901 10.9233 5.64584 10.8268 5.61944L10.7702 5.60626L10.8866 5.18109L10.9399 5.19426C11.0164 5.21405 11.0431 5.21736 11.0963 5.21736C11.2927 5.21736 11.3559 5.15144 11.3559 4.76914V2.40935H11.8052V4.31101H14.4876V2.40604H14.9369V2.66642H16.4012C16.744 2.66642 16.967 2.75543 17.1533 2.96631C17.2931 3.1245 17.373 3.36839 17.373 3.65842V4.75592H11.7586V4.77901C11.7752 5.11517 11.712 5.35576 11.5722 5.50077C11.4225 5.65901 11.2127 5.65901 11.1129 5.65901ZM10.3807 5.34264C10.3807 5.18776 10.2543 5.06909 10.0912 5.06909C9.93146 5.06909 9.80501 5.19101 9.80501 5.34264C9.80501 5.49752 9.92812 5.61288 10.0912 5.61288C10.2576 5.61288 10.3807 5.49752 10.3807 5.34264ZM9.56869 5.34264C9.56869 5.18776 9.44223 5.06909 9.2825 5.06909C9.12276 5.06909 8.99631 5.19101 8.99631 5.34264C8.99631 5.49752 9.11942 5.61288 9.2825 5.61288C9.44557 5.61288 9.56869 5.49752 9.56869 5.34264ZM7.05266 5.33272C7.05266 5.17784 6.92286 5.05917 6.75645 5.05917C6.59004 5.05917 6.46024 5.18109 6.46024 5.33272C6.46024 5.4909 6.5867 5.60957 6.75645 5.60957C6.9262 5.60957 7.05266 5.49421 7.05266 5.33272ZM2.74948 1.62498C2.74948 1.47335 2.62302 1.35474 2.46329 1.35474C2.30355 1.35474 2.1771 1.4734 2.1771 1.62498C2.1771 1.77986 2.30021 1.89852 2.46329 1.89852C2.62636 1.89852 2.74948 1.77986 2.74948 1.62498ZM3.55818 1.62498C3.55818 1.47335 3.43172 1.35474 3.26865 1.35474C3.10891 1.35474 2.98246 1.4734 2.98246 1.62498C2.98246 1.77986 3.10557 1.89852 3.26865 1.89852C3.43506 1.89852 3.55818 1.77986 3.55818 1.62498ZM2.77942 2.8477C2.37006 2.8477 1.93076 3.12786 1.93076 3.58269C1.93076 4.08695 2.35676 4.31106 2.77942 4.31106H3.05231V2.8477H2.77942ZM2.83931 4.75266C1.83754 4.75266 1.48145 4.12317 1.48145 3.58263C1.48145 2.89053 2.07052 2.40604 2.91584 2.40604H3.05231V2.20172H3.50157V4.31106H6.53343V2.40604H6.97941V4.31101H9.80495V2.40604H10.2443V4.75266H2.83931Z" fill="white"/>
<path d="M17.3724 6.23877H16.9232V9.68619H17.3724V6.23877ZM3.04175 7.78453V9.24784H2.76886C2.3462 9.24784 1.9202 9.02373 1.9202 8.51947C1.9202 8.06795 2.35951 7.78448 2.76886 7.78448L3.04175 7.78453ZM13.4952 7.78453V9.24784H12.8363L12.8296 9.24453C12.5367 9.07317 12.367 8.80949 12.367 8.51285C12.367 8.03824 12.7863 7.78448 13.1823 7.78448L13.4952 7.78453ZM7.30836 8.8128C7.30836 9.27093 6.95227 9.61696 6.47968 9.61696C6.0337 9.61696 5.68095 9.26432 5.68095 8.8128C5.68095 8.35797 6.03042 8.00203 6.47968 8.00203C6.95889 8.00203 7.30836 8.3448 7.30836 8.8128ZM7.39485 9.69606L7.40153 9.68944H16.0845V6.23877H15.6352V9.24453H13.9412V7.34288H13.3222C12.4702 7.34288 11.9211 7.80101 11.9211 8.51291C11.9211 8.77989 12.0076 9.01387 12.1773 9.20832L12.2106 9.24459H10.0806V7.34293H9.63137V9.24784H7.67781L7.68777 9.21819C7.73102 9.09296 7.75434 8.95781 7.75434 8.81941C7.75434 8.10421 7.20523 7.56043 6.47968 7.56043C5.7808 7.56043 5.23497 8.11413 5.23497 8.81941C5.23497 8.95456 5.25829 9.08965 5.2982 9.21819L5.30816 9.24784H3.49101V7.1385H3.04175V7.34282H2.90528C2.05996 7.34282 1.47089 7.82731 1.47089 8.51941C1.47089 9.08629 1.84696 9.68944 2.90528 9.68944H5.58105L5.58772 9.69606C5.82404 9.93334 6.14018 10.0652 6.47634 10.0652C6.82576 10.0619 7.16187 9.93008 7.39485 9.69606ZM13.828 6.71994C13.828 6.56832 13.7016 6.4497 13.5385 6.4497C13.3788 6.4497 13.2523 6.56837 13.2523 6.71994C13.2523 6.87482 13.3754 6.99349 13.5385 6.99349C13.7016 6.99354 13.828 6.87488 13.828 6.71994ZM13.0193 6.71994C13.0193 6.56832 12.8929 6.4497 12.7331 6.4497C12.5734 6.4497 12.4469 6.56837 12.4469 6.71994C12.4469 6.87482 12.5701 6.99349 12.7331 6.99349C12.8962 6.99354 13.0193 6.87488 13.0193 6.71994ZM10.5199 10.2794C10.5199 10.1245 10.3935 10.0059 10.2304 10.0059C10.0707 10.0059 9.94422 10.1278 9.94422 10.2794C9.94422 10.4343 10.0673 10.5497 10.2304 10.5497C10.3968 10.5497 10.5199 10.4344 10.5199 10.2794ZM9.7079 10.2794C9.7079 10.1245 9.58145 10.0059 9.42171 10.0059C9.26198 10.0059 9.13552 10.1278 9.13552 10.2794C9.13552 10.4343 9.25864 10.5497 9.42171 10.5497C9.58473 10.5497 9.7079 10.431 9.7079 10.2794ZM2.73887 6.55845C2.73887 6.40682 2.61241 6.28821 2.45268 6.28821C2.29294 6.28821 2.16649 6.40688 2.16649 6.55845C2.16649 6.71333 2.2896 6.832 2.45268 6.832C2.61575 6.83205 2.73887 6.71669 2.73887 6.55845ZM3.25809 6.83205C3.09501 6.83205 2.9719 6.71338 2.9719 6.5585C2.9719 6.40688 3.09835 6.28826 3.25809 6.28826C3.42116 6.28826 3.54762 6.40693 3.54762 6.5585C3.54762 6.71669 3.42445 6.83205 3.25809 6.83205Z" fill="white"/>
<path d="M17.373 11.1762H16.9237V14.6236H17.373V11.1762ZM8.89307 12.9789H10.3075C10.4939 12.9789 10.6336 13.0317 10.7168 13.1338C10.7934 13.2294 10.83 13.3481 10.83 13.526V14.1819H8.88973V12.9789H8.89307V12.9789ZM14.1714 13.7502C14.1714 14.2083 13.8153 14.5544 13.3427 14.5544C12.8967 14.5544 12.5439 14.2017 12.5439 13.7502C12.5439 13.2954 12.8934 12.9394 13.3427 12.9394C13.8252 12.9394 14.1714 13.2789 14.1714 13.7502ZM14.2612 14.6301L14.2679 14.6235H16.0851V11.1761H15.6358V14.1819H14.5442L14.5542 14.1522C14.5974 14.027 14.6207 13.8918 14.6207 13.7534C14.6207 13.0382 14.0716 12.4945 13.3461 12.4945C12.6472 12.4945 12.1014 13.0482 12.1014 13.7534C12.1014 13.8886 12.1213 14.0237 12.1646 14.1522L12.1746 14.1819H11.2793V13.526C11.2793 13.236 11.2028 12.9921 11.0596 12.8339C10.8732 12.623 10.6503 12.534 10.3075 12.534H8.89307V12.2737H8.4438V14.1786H7.3655V11.1729H6.91624V14.6203H12.4475L12.4542 14.6269C12.6905 14.8642 13.0066 14.996 13.3428 14.996C13.6921 14.9993 14.0249 14.8642 14.2612 14.6301ZM10.1078 11.8683C10.1078 11.7134 9.97799 11.5914 9.81158 11.5914C9.64516 11.5914 9.51537 11.7133 9.51537 11.8683C9.51537 12.0265 9.64182 12.1451 9.81158 12.1451C9.98133 12.1484 10.1078 12.0298 10.1078 11.8683ZM5.71806 11.6508C5.71806 11.4959 5.58827 11.3739 5.42185 11.3739C5.25544 11.3739 5.12565 11.4958 5.12565 11.6508C5.12565 11.809 5.2521 11.9276 5.42185 11.9276C5.59161 11.9309 5.71806 11.809 5.71806 11.6508ZM3.05225 12.7186V14.182H2.77937C2.35671 14.182 1.93071 13.9579 1.93071 13.4536C1.93071 13.0021 2.37001 12.7186 2.77937 12.7186H3.05225ZM5.79125 12.7186V14.182H5.13227L5.12559 14.1787C4.83272 14.0073 4.66297 13.7436 4.66297 13.447C4.66297 13.0943 4.94916 12.7186 5.47835 12.7186H5.79125ZM6.24057 14.6236V12.277H5.62155C4.76955 12.277 4.22044 12.7351 4.22044 13.447C4.22044 13.7139 4.30698 13.9479 4.47668 14.1424L4.50997 14.1787H3.50491V12.0693H3.05231V12.2737H2.91584C2.07052 12.2737 1.48145 12.7581 1.48145 13.4502C1.48145 14.0171 1.85752 14.6203 2.91584 14.6203H6.24057V14.6236ZM2.74942 11.4958C2.74942 11.3442 2.62297 11.2256 2.46323 11.2256C2.3035 11.2256 2.17705 11.3443 2.17705 11.4958C2.17705 11.6507 2.30016 11.7694 2.46323 11.7694C2.62631 11.7694 2.74942 11.6508 2.74942 11.4958ZM3.26859 11.7694C3.10552 11.7694 2.9824 11.6507 2.9824 11.4958C2.9824 11.3442 3.10886 11.2256 3.26859 11.2256C3.43167 11.2256 3.55812 11.3443 3.55812 11.4958C3.55812 11.6508 3.43501 11.7694 3.26859 11.7694Z" fill="white"/>
<path d="M17.8818 23.9999H0.965148C0.432677 23.9999 0 23.5714 0 23.0441V17.8071C0 17.2798 0.432677 16.8513 0.965148 16.8513H17.8818C18.4142 16.8513 18.8469 17.2798 18.8469 17.8071V23.0441C18.8469 23.5714 18.4142 23.9999 17.8818 23.9999Z" fill="#D4A007"/>
<path d="M4.14018 21.7554L5.2817 17.9487H6.87917C6.34998 19.5274 5.2118 22.9089 5.1985 22.9089H3.08186C3.06856 22.9089 1.93037 19.5274 1.40118 17.9487H2.99865L4.14018 21.7554Z" fill="white"/>
<path d="M17.4459 17.9487H12.1476L12.547 19.0858H14.2376V22.9056H15.7586V19.0858H17.4459V17.9487Z" fill="white"/>
<path d="M12.0715 19.7651L11.9084 19.4158C11.0764 19.9563 9.69857 21.5778 9.69857 21.5778L9.1927 21.0142L9.00965 21.6272L8.98633 21.7163C9.17935 21.9898 9.70519 22.906 9.70519 22.906C10.9266 20.7143 12.0715 19.7651 12.0715 19.7651Z" fill="#005B47"/>
<path d="M9.51474 19.099L10.0339 20.8391C10.3501 20.4931 10.7694 20.0548 11.1688 19.6955C10.8393 18.7199 10.5764 17.9487 10.5698 17.9487H8.45314C8.43983 17.9487 7.30165 21.3302 6.77246 22.9089H8.36993L9.51474 19.099Z" fill="white"/>
<path d="M10.4346 22.1608L10.6575 22.9057H12.255C12.0586 22.3256 11.7824 21.5017 11.5095 20.6909C11.21 21.0469 10.834 21.5346 10.4346 22.1608Z" fill="white"/>
</svg>
