<svg width="166" height="166" viewBox="0 0 166 166" fill="none" xmlns="http://www.w3.org/2000/svg">
<path fill-rule="evenodd" clip-rule="evenodd" d="M61.4473 0.00316818C88.8985 -0.221676 109.362 11.5213 122.839 35.2322C126.042 41.4615 128.2 48.024 129.315 54.919C129.555 56.4639 129.727 58.0182 129.833 59.5817C129.833 61.3085 129.833 63.0357 129.833 64.7625C129.833 66.3167 129.833 67.8709 129.833 69.4251C129.773 71.1659 129.6 72.8926 129.315 74.6059C128.969 76.1601 128.624 77.7143 128.279 79.2685C125.89 89.7616 121.227 99.0869 114.291 107.245C112.046 109.835 109.628 112.253 107.038 114.498C98.2399 122.101 88.0509 126.937 76.4714 129.004C74.8193 129.189 73.2651 129.535 71.8088 130.04C70.082 130.04 68.3547 130.04 66.628 130.04C65.5919 130.04 64.5557 130.04 63.5196 130.04C86.6531 125.813 103.491 113.207 114.032 92.2204C114.538 91.0599 114.797 89.8512 114.809 88.5939C121.501 73.1237 121.674 57.5814 115.327 41.9672C108.596 24.0968 96.3349 11.5767 78.5437 4.4068C72.9159 2.38128 67.2171 0.913373 61.4473 0.00316818Z" fill="#324846"/>
<path fill-rule="evenodd" clip-rule="evenodd" d="M61.4471 0.00390625C67.2169 0.914111 72.9157 2.38202 78.5435 4.40754C96.3347 11.5775 108.595 24.0976 115.327 41.9679C103.54 19.7538 85.0619 9.21967 59.8928 10.3654C35.3512 13.7508 19.2048 27.2207 11.4529 50.7752C6.54047 74.7263 13.5345 94.3266 32.4349 109.577C40.6236 115.571 49.7764 118.938 59.8928 119.679C84.7656 120.886 103.071 110.525 114.809 88.5946C114.797 89.852 114.538 91.0606 114.032 92.2211C103.49 113.207 86.6529 125.814 63.5194 130.041C63.0013 130.041 62.4832 130.041 61.9651 130.041C60.4109 130.041 58.8567 130.041 57.3025 130.041C55.7021 129.375 53.9754 129.03 52.1217 129.004C23.9711 121.835 6.78826 104.048 0.573338 75.6428C-2.63748 47.1 7.63764 24.909 31.3988 9.07021C40.6909 3.63882 50.7074 0.616736 61.4471 0.00390625Z" fill="#324846"/>
<path fill-rule="evenodd" clip-rule="evenodd" d="M59.8927 10.3652C82.5128 13.3819 98.1416 25.4703 106.778 46.6304C113.789 70.4878 108.177 90.7792 89.941 107.504C81.1658 114.547 71.1499 118.605 59.8927 119.679C49.7762 118.938 40.6234 115.571 32.4347 109.576C13.5343 94.3264 6.54029 74.7261 11.4527 50.775C19.2047 27.2206 35.351 13.7506 59.8927 10.3652Z" fill="#F2F2F2"/>
<path fill-rule="evenodd" clip-rule="evenodd" d="M59.8926 10.3655C85.0617 9.21982 103.54 19.754 115.327 41.9681C121.674 57.5823 121.501 73.1245 114.808 88.5948C103.07 110.525 84.7653 120.886 59.8926 119.679C71.1498 118.605 81.1657 114.547 89.9409 107.504C108.177 90.7795 113.789 70.4881 106.778 46.6307C98.1415 25.4706 82.5127 13.3822 59.8926 10.3655Z" fill="#E2E3E3"/>
<path fill-rule="evenodd" clip-rule="evenodd" d="M65.5915 22.7982C65.5915 36.4408 65.5915 50.0836 65.5915 63.7261C62.3105 63.7261 59.029 63.7261 55.7481 63.7261C55.7481 54.4007 55.7481 45.0754 55.7481 35.7501C55.6621 31.6019 55.7481 27.4573 56.0071 23.3163C59.1549 22.8104 62.3494 22.6377 65.5915 22.7982Z" fill="#F68E36"/>
<path fill-rule="evenodd" clip-rule="evenodd" d="M65.5918 22.7979C68.7049 22.7118 71.8134 22.7981 74.9171 23.0569C75.1762 23.3159 75.4352 23.575 75.6942 23.834C75.9533 32.1214 76.0398 40.4108 75.9533 48.7016C75.9533 53.7098 75.9533 58.7175 75.9533 63.7257C72.4993 63.7257 69.0458 63.7257 65.5918 63.7257C65.5918 50.0833 65.5918 36.4405 65.5918 22.7979Z" fill="#F77220"/>
<path fill-rule="evenodd" clip-rule="evenodd" d="M54.7119 35.7508C51.776 35.7508 48.8406 35.7508 45.9047 35.7508C45.9047 45.0761 45.9047 54.4014 45.9047 63.7268C42.4507 63.7268 38.9972 63.7268 35.5432 63.7268C35.4567 54.5724 35.5432 45.4201 35.8022 36.2688C36.0613 36.0098 36.3203 35.7508 36.5793 35.4917C42.7139 35.0637 48.7577 35.15 54.7119 35.7508Z" fill="#32CEF5"/>
<path fill-rule="evenodd" clip-rule="evenodd" d="M54.7116 35.75C54.8841 35.75 55.0571 35.75 55.2296 35.75C55.2296 45.0753 55.2296 54.4007 55.2296 63.726C52.1212 63.726 49.0127 63.726 45.9043 63.726C45.9043 54.4007 45.9043 45.0753 45.9043 35.75C48.8402 35.75 51.7756 35.75 54.7116 35.75Z" fill="#22B5ED"/>
<path fill-rule="evenodd" clip-rule="evenodd" d="M85.7965 48.1836C85.7965 53.3643 85.7965 58.5451 85.7965 63.7258C82.5156 63.7258 79.2341 63.7258 75.9531 63.7258C75.9531 58.7176 75.9531 53.7099 75.9531 48.7017C79.188 48.2053 82.4689 48.0328 85.7965 48.1836Z" fill="#324846"/>
<path fill-rule="evenodd" clip-rule="evenodd" d="M85.7969 48.1849C89.039 48.0243 92.2334 48.1974 95.3812 48.703C95.6403 53.7081 95.7263 58.7164 95.6403 63.7272C92.3593 63.7272 89.0778 63.7272 85.7969 63.7272C85.7969 58.5464 85.7969 53.3657 85.7969 48.1849Z" fill="#324846"/>
<path fill-rule="evenodd" clip-rule="evenodd" d="M129.314 54.9192C135.706 54.8327 142.096 54.9192 148.483 55.1782C149.961 56.7822 149.789 58.1639 147.965 59.3228C141.923 59.5818 135.879 59.6684 129.833 59.5818C129.727 58.0183 129.554 56.4641 129.314 54.9192Z" fill="#324846"/>
<path fill-rule="evenodd" clip-rule="evenodd" d="M55.2301 35.75C55.4026 35.75 55.5756 35.75 55.7482 35.75C55.7482 45.0753 55.7482 54.4007 55.7482 63.726C59.0291 63.726 62.3106 63.726 65.5916 63.726C69.0456 63.726 72.499 63.726 75.953 63.726C79.234 63.726 82.5155 63.726 85.7965 63.726C89.0774 63.726 92.3589 63.726 95.6399 63.726C98.2966 63.525 100.887 63.784 103.411 64.5031C104.252 66.1641 103.907 67.5453 102.375 68.6477C77.8528 68.9933 53.3303 68.9933 28.8083 68.6477C26.8256 67.0443 26.8256 65.4901 28.8083 63.985C31.0469 63.7265 33.2917 63.64 35.5433 63.726C38.9973 63.726 42.4507 63.726 45.9047 63.726C49.0132 63.726 52.1216 63.726 55.2301 63.726C55.2301 54.4007 55.2301 45.0753 55.2301 35.75Z" fill="#324846"/>
<path fill-rule="evenodd" clip-rule="evenodd" d="M129.833 64.7629C139.85 64.6764 149.867 64.7629 159.881 65.022C161.954 66.4037 161.954 67.7848 159.881 69.1666C149.867 69.4256 139.85 69.5121 129.833 69.4256C129.833 67.8714 129.833 66.3171 129.833 64.7629Z" fill="#324846"/>
<path fill-rule="evenodd" clip-rule="evenodd" d="M129.314 74.6067C135.706 74.5202 142.096 74.6067 148.483 74.8657C149.972 76.4464 149.8 77.8281 147.965 79.0103C141.405 79.2693 134.843 79.3559 128.278 79.2693C128.624 77.7151 128.969 76.1609 129.314 74.6067Z" fill="#324846"/>
<path fill-rule="evenodd" clip-rule="evenodd" d="M73.3631 74.6052C74.5142 74.4384 75.4644 74.7839 76.2125 75.6413C78.2858 80.3947 80.0991 85.2299 81.6523 90.1474C86.1455 90.0614 90.6357 90.1474 95.1222 90.4065C96.5039 91.7882 96.5039 93.1693 95.1222 94.5511C89.7689 94.8966 84.4152 94.8966 79.0619 94.5511C77.2139 91.2867 75.5732 87.9192 74.1402 84.4486C71.6643 91.5322 68.9874 98.5262 66.11 105.431C63.7564 106.267 62.2887 105.49 61.7064 103.099C60.1781 98.1682 58.4514 93.3325 56.5257 88.5932C55.4237 90.7116 54.1285 92.6979 52.6401 94.5511C47.4594 94.8966 42.2786 94.8966 37.0979 94.5511C35.2634 93.3688 35.0909 91.9871 36.5798 90.4065C41.0798 90.3194 45.5694 90.0604 50.0497 89.6293C51.6905 86.6934 53.3307 83.758 54.9714 80.8221C56.9862 79.2104 58.5405 79.5559 59.6341 81.8582C61.2236 86.367 62.8638 90.8572 64.5558 95.3282C67.211 88.8315 69.7148 82.2691 72.0679 75.6413C72.5834 75.3481 73.0149 75.0026 73.3631 74.6052Z" fill="#324846"/>
<path fill-rule="evenodd" clip-rule="evenodd" d="M114.29 107.244C118.262 111.389 122.234 115.533 126.206 119.678C125.17 120.887 124.134 122.096 123.097 123.304C121.889 124.341 120.68 125.377 119.471 126.413C115.326 122.441 111.182 118.469 107.037 114.497C109.627 112.252 112.045 109.835 114.29 107.244Z" fill="#324846"/>
<path fill-rule="evenodd" clip-rule="evenodd" d="M137.604 123.823C135.241 125.968 132.995 128.213 130.869 130.558C127.963 128.517 125.373 126.099 123.098 123.305C124.134 122.096 125.17 120.887 126.206 119.678C127.137 119.009 128 118.231 128.796 117.347C129.66 117.002 130.523 117.002 131.387 117.347C133.565 119.438 135.637 121.596 137.604 123.823Z" fill="#324846"/>
<path fill-rule="evenodd" clip-rule="evenodd" d="M123.098 123.305C125.373 126.099 127.964 128.517 130.869 130.558C130.869 130.73 130.869 130.903 130.869 131.076C128.451 133.321 126.034 135.566 123.616 137.811C121.389 135.844 119.231 133.772 117.14 131.594C116.794 130.73 116.794 129.867 117.14 129.004C118.024 128.207 118.801 127.344 119.471 126.413C120.68 125.377 121.889 124.341 123.098 123.305Z" fill="#324846"/>
<path fill-rule="evenodd" clip-rule="evenodd" d="M137.604 123.822C140.194 126.067 142.612 128.485 144.857 131.075C142.439 133.148 140.194 135.392 138.122 137.81C137.95 137.81 137.777 137.81 137.604 137.81C135.186 135.738 132.941 133.493 130.869 131.075C130.869 130.903 130.869 130.73 130.869 130.557C132.996 128.212 135.241 125.967 137.604 123.822Z" fill="#E2E3E3"/>
<path fill-rule="evenodd" clip-rule="evenodd" d="M52.1213 129.004C53.975 129.029 55.7017 129.374 57.3021 130.04C57.3886 135.741 57.3021 141.44 57.043 147.137C55.7333 148.994 54.1791 149.166 52.3804 147.655C52.1213 141.44 52.0348 135.223 52.1213 129.004Z" fill="#324846"/>
<path fill-rule="evenodd" clip-rule="evenodd" d="M76.4715 129.004C76.6383 135.521 76.4658 141.997 75.9534 148.432C74.4785 148.921 73.1833 148.662 72.0679 147.655C71.8088 141.786 71.7223 135.914 71.8088 130.04C73.2651 129.535 74.8193 129.189 76.4715 129.004Z" fill="#324846"/>
<path fill-rule="evenodd" clip-rule="evenodd" d="M61.9651 130.039C62.4831 130.039 63.0012 130.039 63.5193 130.039C64.5554 130.039 65.5916 130.039 66.6277 130.039C66.7143 139.884 66.6277 149.727 66.3687 159.569C64.7337 161.071 63.3525 160.898 62.2241 159.051C61.9651 149.382 61.8786 139.712 61.9651 130.039Z" fill="#324846"/>
<path fill-rule="evenodd" clip-rule="evenodd" d="M130.869 131.076C132.942 133.494 135.186 135.739 137.604 137.811C135.359 140.229 133.114 142.646 130.869 145.064C128.279 142.819 125.861 140.402 123.616 137.811C126.034 135.566 128.451 133.321 130.869 131.076Z" fill="#EBEFEF"/>
<path fill-rule="evenodd" clip-rule="evenodd" d="M144.857 131.076C151.746 137.706 158.568 144.441 165.321 151.281C165.667 151.972 165.667 152.663 165.321 153.353C163.058 155.704 160.726 157.949 158.327 160.088C158.404 159.543 158.318 159.025 158.068 158.534C151.071 151.8 144.423 144.892 138.122 137.811C140.194 135.393 142.439 133.148 144.857 131.076Z" fill="#324846"/>
<path fill-rule="evenodd" clip-rule="evenodd" d="M137.604 137.811C137.777 137.811 137.95 137.811 138.122 137.811C144.423 144.892 151.071 151.799 158.068 158.534C158.318 159.025 158.404 159.543 158.327 160.088C156.706 161.969 154.979 163.782 153.146 165.528C152.456 165.873 151.765 165.873 151.074 165.528C144.234 158.774 137.499 151.953 130.869 145.064C133.114 142.646 135.359 140.228 137.604 137.811Z" fill="#324846"/>
</svg>
