<svg width="166" height="142" viewBox="0 0 166 142" fill="none" xmlns="http://www.w3.org/2000/svg">
<path d="M99.0247 114.84H66.9763L64.3057 138.876H101.695L99.0247 114.84Z" fill="#401F92"/>
<path d="M99.9149 122.852L99.0246 114.84H66.9763L66.0859 122.852H99.9149Z" fill="#542ABC"/>
<path d="M157.78 117.511H8.22009C3.79523 117.511 0.208008 113.924 0.208008 109.499V8.01208C0.208008 3.58723 3.79523 0 8.22009 0H157.78C162.205 0 165.792 3.58723 165.792 8.01208V109.499C165.792 113.924 162.205 117.511 157.78 117.511Z" fill="#351E72"/>
<path d="M10.8908 96.1459V0H8.22009C3.79523 0 0.208008 3.58723 0.208008 8.01207V109.499C0.208008 113.924 3.79523 117.511 8.22009 117.511H157.78C162.205 117.511 165.792 113.924 165.792 109.499H24.2446C16.8696 109.499 10.8908 103.521 10.8908 96.1459Z" fill="#351E72"/>
<path d="M157.78 0H8.22009C3.79523 0 0.208008 3.58723 0.208008 8.01207V96.1455H165.792V8.01207C165.792 3.58723 162.205 0 157.78 0Z" fill="#351E72"/>
<path d="M157.781 90.8046H8.2205C6.74544 90.8046 5.5498 89.609 5.5498 88.1339V8.0125C5.5498 6.53743 6.74544 5.3418 8.2205 5.3418H157.781C159.256 5.3418 160.451 6.53743 160.451 8.0125V88.1339C160.451 89.609 159.256 90.8046 157.781 90.8046Z" fill="white"/>
<path d="M109.707 141.548H56.2927C54.8164 141.548 53.6221 140.352 53.6221 138.878C53.6221 137.403 54.8167 136.207 56.2927 136.207H109.707C111.183 136.207 112.378 137.403 112.378 138.878C112.378 140.352 111.183 141.548 109.707 141.548Z" fill="#5435A2"/>
<path d="M21.5739 24.0363H16.2322C14.7572 24.0363 13.5615 22.8407 13.5615 21.3656V16.0242C13.5615 14.5491 14.7572 13.3535 16.2322 13.3535H21.5736C23.0487 13.3535 24.2443 14.5491 24.2443 16.0242V21.3656C24.2446 22.8407 23.0487 24.0363 21.5739 24.0363Z" fill="#E1A546"/>
<path d="M42.9398 24.0363H37.5984C36.1234 24.0363 34.9277 22.8407 34.9277 21.3656V16.0242C34.9277 14.5491 36.1234 13.3535 37.5984 13.3535H42.9398C44.4149 13.3535 45.6105 14.5491 45.6105 16.0242V21.3656C45.6105 22.8407 44.4149 24.0363 42.9398 24.0363Z" fill="white"/>
<path d="M133.745 82.7921H128.403C126.928 82.7921 125.732 81.5966 125.732 80.1215V74.7801C125.732 73.3051 126.928 72.1094 128.403 72.1094H133.745C135.219 72.1094 136.415 73.3051 136.415 74.7801V80.1215C136.415 81.5966 135.219 82.7921 133.745 82.7921Z" fill="white"/>
<path d="M21.5739 45.4016H16.2322C14.7572 45.4016 13.5615 44.2059 13.5615 42.7308V37.3895C13.5615 35.9144 14.7572 34.7188 16.2322 34.7188H21.5736C23.0487 34.7188 24.2443 35.9144 24.2443 37.3895V42.7308C24.2446 44.2059 23.0487 45.4016 21.5739 45.4016Z" fill="#00AAF0"/>
<path d="M58.9633 82.7921H53.6218C52.1468 82.7921 50.9512 81.5966 50.9512 80.1215V74.7801C50.9512 73.3051 52.1468 72.1094 53.6218 72.1094H58.9633C60.4383 72.1094 61.6339 73.3051 61.6339 74.7801V80.1215C61.6339 81.5966 60.4383 82.7921 58.9633 82.7921Z" fill="#C0BCC1"/>
<path d="M101.695 82.7921H96.3533C94.8783 82.7921 93.6826 81.5966 93.6826 80.1215V74.7801C93.6826 73.3051 94.8783 72.1094 96.3533 72.1094H101.695C103.17 72.1094 104.365 73.3051 104.365 74.7801V80.1215C104.366 81.5966 103.17 82.7921 101.695 82.7921Z" fill="#66DBFF"/>
<path d="M80.3295 82.7921H74.9881C73.513 82.7921 72.3174 81.5966 72.3174 80.1215V74.7801C72.3174 73.3051 73.513 72.1094 74.9881 72.1094H80.3295C81.8046 72.1094 83.0002 73.3051 83.0002 74.7801V80.1215C83.0002 81.5966 81.8046 82.7921 80.3295 82.7921Z" fill="#E1A546"/>
<path d="M37.598 82.7921H32.2566C30.7816 82.7921 29.5859 81.5966 29.5859 80.1215V74.7801C29.5859 73.3051 30.7816 72.1094 32.2566 72.1094H37.598C39.0731 72.1094 40.2687 73.3051 40.2687 74.7801V80.1215C40.2687 81.5966 39.0731 82.7921 37.598 82.7921Z" fill="#B9E57D"/>
<path d="M115.049 85.4637C113.572 85.4637 112.378 84.2677 112.378 82.7929V72.1102C112.378 70.6355 113.573 69.4395 115.049 69.4395C116.525 69.4395 117.719 70.6355 117.719 72.1102V82.7929C117.719 84.268 116.525 85.4637 115.049 85.4637Z" fill="#B9E57D"/>
<path d="M84.3359 110.834H81.6652C79.4528 110.834 77.6592 109.041 77.6592 106.828C77.6592 104.616 79.4528 102.822 81.6652 102.822H84.3359C86.5484 102.822 88.342 104.616 88.342 106.828C88.342 109.041 86.5484 110.834 84.3359 110.834Z" fill="#EDEBED"/>
</svg>
