<svg width="166" height="166" viewBox="0 0 166 166" fill="none" xmlns="http://www.w3.org/2000/svg">
<path fill-rule="evenodd" clip-rule="evenodd" d="M44.819 3.28501C45.5699 6.89021 45.8417 10.5572 45.6339 14.286C38.9791 14.286 32.324 14.286 25.6691 14.286C22.9858 13.4368 21.1523 11.6713 20.1686 8.98924C19.965 6.00438 19.8971 3.01646 19.9648 0.0254499C26.7569 -0.0424305 33.5477 0.0254784 40.3371 0.229172C42.1176 0.860142 43.6117 1.87875 44.819 3.28501Z" fill="black"/>
<path fill-rule="evenodd" clip-rule="evenodd" d="M44.8184 3.28516C47.5079 3.88928 50.2239 4.36464 52.9673 4.71121C56.6807 6.94678 57.6317 9.9347 55.8194 13.675C55.3121 13.9975 54.769 14.2012 54.1896 14.2862C51.3375 14.2862 48.4854 14.2862 45.6332 14.2862C45.841 10.5574 45.5693 6.89035 44.8184 3.28516Z" fill="#404040"/>
<path fill-rule="evenodd" clip-rule="evenodd" d="M73.7477 8.58209C82.5766 8.51421 91.4047 8.58209 100.232 8.78582C102.755 9.67918 104.452 11.3769 105.325 13.8789C105.596 21.7561 105.596 29.6334 105.325 37.5107C104.442 40.0234 102.744 41.7208 100.232 42.6038C86.7859 42.8755 73.3402 42.8755 59.8945 42.6038C62.6786 39.0048 65.4631 35.4056 68.2472 31.8065C68.3828 25.8306 68.5189 19.8548 68.6546 13.8789C69.6133 11.359 71.3111 9.59337 73.7477 8.58209Z" fill="#B3E9FE"/>
<path fill-rule="evenodd" clip-rule="evenodd" d="M151.162 28.5458C141.655 28.5458 132.148 28.5458 122.641 28.5458C120.245 27.8479 118.548 26.3539 117.548 24.0639C116.978 19.8802 116.774 15.6699 116.937 11.4331C125.919 11.2519 134.883 11.4556 143.828 12.0443C146.994 13.1731 149.235 15.2783 150.551 18.3597C151.124 21.7208 151.328 25.1162 151.162 28.5458Z" fill="black"/>
<path fill-rule="evenodd" clip-rule="evenodd" d="M25.6685 14.2852C32.3234 14.2852 38.9785 14.2852 45.6333 14.2852C48.4854 14.2852 51.3375 14.2852 54.1896 14.2852C54.2577 20.9415 54.1896 27.5964 53.9859 34.25C53.6767 35.5883 53.1335 36.8106 52.3561 37.917C50.7129 39.0839 49.0155 40.1706 47.2631 41.1765C46.9021 41.5127 46.7664 41.9201 46.8556 42.3989C46.5908 42.275 46.319 42.1393 46.0407 41.9914C43.5247 44.0299 40.6726 44.7767 37.4844 44.2324C36.1155 43.195 34.6215 42.4482 33.0025 41.9914C31.4715 40.7459 29.8417 39.5916 28.1131 38.5281C27.4517 37.6807 26.8406 36.7981 26.2796 35.8798C25.691 28.7043 25.4873 21.5061 25.6685 14.2852Z" fill="#FED4CF"/>
<path fill-rule="evenodd" clip-rule="evenodd" d="M77.0068 17.1387C83.6616 17.1387 90.3168 17.1387 96.9717 17.1387C96.9717 19.0401 96.9717 20.9415 96.9717 22.8429C90.3168 22.8429 83.6616 22.8429 77.0068 22.8429C77.0068 20.9415 77.0068 19.0401 77.0068 17.1387Z" fill="#25B1FA"/>
<path fill-rule="evenodd" clip-rule="evenodd" d="M77.0068 28.5469C83.6616 28.5469 90.3168 28.5469 96.9717 28.5469C96.9717 30.4483 96.9717 32.3497 96.9717 34.2511C90.3168 34.2511 83.6616 34.2511 77.0068 34.2511C77.0068 32.3497 77.0068 30.4483 77.0068 28.5469Z" fill="#25B1FA"/>
<path fill-rule="evenodd" clip-rule="evenodd" d="M122.641 28.5469C132.148 28.5469 141.655 28.5469 151.162 28.5469C151.23 37.1044 151.162 45.6608 150.959 54.2159C150.137 57.1422 148.303 59.0433 145.458 59.9202C140.569 59.9202 135.679 59.9202 130.79 59.9202C128.659 59.0808 127.097 57.5871 126.104 55.4383C125.554 53.168 125.35 50.8594 125.493 48.5117C123.451 48.5793 121.414 48.5113 119.382 48.308C118.625 47.8264 118.217 47.1472 118.159 46.2707C119.527 43.331 120.953 40.4109 122.437 37.5107C122.641 34.5258 122.709 31.5379 122.641 28.5469Z" fill="#FED4CF"/>
<path fill-rule="evenodd" clip-rule="evenodd" d="M33.0026 41.9922C34.6216 42.4489 36.1156 43.1958 37.4845 44.2331C40.6728 44.7775 43.5249 44.0306 46.0409 41.9922C46.3191 42.1401 46.5909 42.2758 46.8557 42.3996C47.4934 43.2182 47.9008 44.1692 48.0781 45.2517C44.4266 48.504 40.2164 49.3869 35.4473 47.9001C33.9089 47.4075 32.6866 46.5246 31.7803 45.2517C32.0282 44.0999 32.4356 43.0137 33.0026 41.9922Z" fill="#FBB9B1"/>
<path fill-rule="evenodd" clip-rule="evenodd" d="M31.7808 45.252C32.6871 46.5248 33.9095 47.4077 35.4478 47.9003C40.217 49.3871 44.4271 48.5042 48.0786 45.252C49.7394 47.2057 50.69 49.3786 50.9308 51.7711C47.2723 55.2934 43.6053 58.8248 39.9297 62.3647C36.2543 58.8248 32.5873 55.2934 28.9287 51.7711C29.1695 49.3786 30.1202 47.2057 31.7808 45.252Z" fill="#FED3CF"/>
<path fill-rule="evenodd" clip-rule="evenodd" d="M28.9291 51.7715C32.5877 55.2938 36.2547 58.8252 39.9301 62.3651C43.6056 58.8252 47.2726 55.2938 50.9311 51.7715C51.6596 52.1219 52.3388 52.5293 52.9683 52.9938C52.6114 52.9404 52.3396 53.0761 52.1534 53.4013C53.8211 57.3844 55.4509 61.3913 57.0428 65.4209C51.2791 64.6586 45.5072 63.776 39.7264 62.7725C34.0379 63.5071 28.4016 64.3901 22.8174 65.4209C24.4091 61.3913 26.0389 57.3844 27.7067 53.4013C27.5206 53.0761 27.2489 52.9404 26.8918 52.9938C27.5215 52.5293 28.2006 52.1219 28.9291 51.7715Z" fill="#B0E7FE"/>
<path fill-rule="evenodd" clip-rule="evenodd" d="M26.8917 52.9937C27.2488 52.9403 27.5205 53.076 27.7066 53.4012C26.0388 57.3844 24.4091 61.3912 22.8173 65.4208C28.4015 64.39 34.0378 63.507 39.7263 62.7724C45.5071 63.7759 51.279 64.6585 57.0427 65.4208C55.4508 61.3912 53.821 57.3844 52.1533 53.4012C52.3395 53.076 52.6113 52.9403 52.9682 52.9937C58.3237 54.912 63.6205 57.0168 68.8586 59.3091C69.8593 60.2903 70.6061 61.4445 71.0995 62.7724C71.3033 75.131 71.3713 87.4901 71.3033 99.8499C67.5006 99.8499 63.6975 99.8499 59.8948 99.8499C60.5854 95.3362 59.3631 91.4655 56.2278 88.2377C54.5239 86.9787 52.6223 86.1638 50.5236 85.7931C46.9951 85.5893 43.4638 85.5217 39.93 85.5893C39.93 90.343 39.93 95.0963 39.93 99.8499C29.4722 99.8499 19.0145 99.8499 8.5567 99.8499C8.48882 87.4901 8.5567 75.131 8.76043 62.7724C9.32197 60.8542 10.4764 59.4281 12.2237 58.4942C17.0798 56.5365 21.9692 54.703 26.8917 52.9937Z" fill="#26B1F9"/>
<path fill-rule="evenodd" clip-rule="evenodd" d="M130.79 59.9206C135.679 59.9206 140.568 59.9206 145.458 59.9206C149.579 59.0589 153.043 60.1455 155.848 63.1802C156.199 63.8268 156.471 64.506 156.662 65.2174C156.866 80.5638 156.934 95.9111 156.866 111.259C147.359 111.259 137.852 111.259 128.345 111.259C128.345 106.505 128.345 101.752 128.345 96.9981C126.443 96.9981 124.542 96.9981 122.641 96.9981C122.573 89.6629 122.641 82.3289 122.844 74.9961C124.094 70.5676 125.588 66.2214 127.326 61.9578C128.153 60.6964 129.307 60.0176 130.79 59.9206Z" fill="#351E72"/>
<path fill-rule="evenodd" clip-rule="evenodd" d="M39.9292 85.5882C32.8656 85.6562 25.8032 85.5882 18.7421 85.3844C18.111 84.8898 17.6357 84.2786 17.316 83.5509C17.1124 80.4303 17.0445 77.3064 17.1123 74.1797C19.0137 74.1797 20.9151 74.1797 22.8165 74.1797C22.8165 76.0812 22.8165 77.9824 22.8165 79.8839C28.5208 79.8839 34.225 79.8839 39.9292 79.8839C39.9292 81.7855 39.9292 83.6866 39.9292 85.5882Z" fill="#127BB3"/>
<path fill-rule="evenodd" clip-rule="evenodd" d="M39.9297 85.5898C43.4635 85.5222 46.9948 85.5898 50.5233 85.7935C52.622 86.1643 54.5236 86.9792 56.2275 88.2382C59.3628 91.466 60.5851 95.3367 59.8945 99.8504C53.2397 99.8504 46.5845 99.8504 39.9297 99.8504C39.9297 95.0967 39.9297 90.3435 39.9297 85.5898Z" fill="#FED3CF"/>
<path fill-rule="evenodd" clip-rule="evenodd" d="M122.641 96.9968C124.543 96.9968 126.444 96.9968 128.345 96.9968C128.345 101.751 128.345 106.504 128.345 111.257C124.526 111.155 120.723 111.291 116.937 111.665C114.161 111.261 111.309 111.125 108.381 111.257C107.838 101.207 112.591 96.4537 122.641 96.9968Z" fill="#FED4CF"/>
<path fill-rule="evenodd" clip-rule="evenodd" d="M8.55635 99.8496C19.0141 99.8496 29.4719 99.8496 39.9296 99.8496C46.5844 99.8496 53.2396 99.8496 59.8944 99.8496C63.6971 99.8496 67.5002 99.8496 71.3029 99.8496C79.8593 99.8496 88.4156 99.8496 96.972 99.8496C96.972 103.652 96.972 107.455 96.972 111.258C95.0704 111.258 93.1693 111.258 91.2677 111.258C62.7466 111.258 34.2254 111.258 5.70423 111.258C3.80281 111.258 1.90142 111.258 0 111.258C0 107.455 0 103.652 0 99.8496C2.85212 99.8496 5.70423 99.8496 8.55635 99.8496Z" fill="#351E72"/>
<path fill-rule="evenodd" clip-rule="evenodd" d="M5.7041 111.258C34.2253 111.258 62.7464 111.258 91.2676 111.258C91.2676 125.654 91.2676 140.051 91.2676 154.447C85.827 156.086 82.9749 159.753 82.7112 165.448C57.0422 165.448 31.3731 165.448 5.7041 165.448C5.7041 147.385 5.7041 129.321 5.7041 111.258Z" fill="#351E72"/>
<path fill-rule="evenodd" clip-rule="evenodd" d="M128.346 111.258C137.853 111.258 147.36 111.258 156.867 111.258C157.029 115.494 156.826 119.705 156.256 123.889C155.235 126.202 153.538 127.696 151.163 128.37C141.654 128.302 132.147 128.37 122.641 128.574C121.189 133.271 119.695 137.957 118.159 142.631C116.391 148.103 114.625 153.535 112.863 158.929C113.064 157.309 113.471 155.747 114.085 154.243C109.198 154.039 104.308 153.971 99.417 154.039C101.682 142.444 104.195 130.9 106.955 119.407C109.15 115.38 112.477 112.799 116.937 111.665C120.724 111.291 124.527 111.155 128.346 111.258Z" fill="#26B1F9"/>
<path fill-rule="evenodd" clip-rule="evenodd" d="M19.9648 125.52C38.9791 125.52 57.9929 125.52 77.0072 125.52C77.0072 131.224 77.0072 136.928 77.0072 142.632C57.9929 142.632 38.9791 142.632 19.9648 142.632C19.9648 136.928 19.9648 131.224 19.9648 125.52Z" fill="#351E72"/>
<path fill-rule="evenodd" clip-rule="evenodd" d="M151.162 128.371C155.916 128.371 160.669 128.371 165.423 128.371C166.071 133.091 164.713 137.098 161.348 140.391C159.708 141.415 157.943 142.094 156.052 142.428C151.572 142.632 147.09 142.7 142.606 142.632C142.606 146.434 142.606 150.238 142.606 154.04C145.461 153.973 148.313 154.04 151.162 154.244C157.172 155.568 160.024 159.303 159.719 165.449C157.817 165.449 155.916 165.449 154.014 165.449C154.406 163.314 153.727 161.616 151.977 160.356C147.863 159.895 143.721 159.692 139.55 159.745C135.815 159.813 132.08 159.88 128.345 159.948C126.051 161.073 125.1 162.907 125.493 165.449C123.592 165.449 121.691 165.449 119.789 165.449C119.496 159.716 122.077 155.981 127.53 154.244C130.651 154.04 133.775 153.973 136.902 154.04C136.902 150.238 136.902 146.434 136.902 142.632C130.654 142.632 124.407 142.632 118.159 142.632C119.694 137.958 121.189 133.272 122.641 128.575C132.147 128.371 141.654 128.303 151.162 128.371Z" fill="#351E72"/>
<path fill-rule="evenodd" clip-rule="evenodd" d="M99.4162 154.04C104.308 153.972 109.197 154.04 114.084 154.244C113.47 155.747 113.063 157.309 112.862 158.929C112.602 161.114 112.058 163.219 111.232 165.245C101.726 165.448 92.2191 165.516 82.7109 165.448C82.9746 159.754 85.8267 156.087 91.2673 154.447C93.9475 154.056 96.6639 153.921 99.4162 154.04Z" fill="#127BB3"/>
</svg>
