<svg width="166" height="166" viewBox="0 0 166 166" fill="none" xmlns="http://www.w3.org/2000/svg">
<path fill-rule="evenodd" clip-rule="evenodd" d="M165.551 102.18C160.619 102.18 155.688 102.18 150.756 102.18C149.924 95.7379 149.308 89.265 148.906 82.7611C144.437 82.7611 139.968 82.7611 135.498 82.7611C135.642 77.8088 135.411 72.8769 134.805 67.9658C129.951 56.561 121.397 51.8607 109.144 53.8641C100.679 56.628 95.6702 62.4074 94.1176 71.2023C93.8864 75.0523 93.8097 78.9051 93.8864 82.7611C89.5713 82.7611 85.2557 82.7611 80.9406 82.7611C79.3995 82.7611 77.8581 82.7611 76.317 82.7611C75.6536 89.075 75.0372 95.3939 74.4676 101.718C49.6546 101.718 24.842 101.718 0.0289035 101.718C-0.0481706 71.2018 0.0289035 40.6866 0.26008 10.1718C2.03241 5.31706 5.34595 2.00352 10.2007 0.231188C58.4393 -0.0770626 106.678 -0.0770626 154.917 0.231188C160.234 1.84942 163.702 5.31706 165.32 10.6341C165.551 41.1489 165.628 71.6642 165.551 102.18Z" fill="white"/>
<path fill-rule="evenodd" clip-rule="evenodd" d="M54.5846 31.4389C54.5846 35.1378 54.5846 38.8366 54.5846 42.5354C54.5846 44.8472 54.5846 47.1589 54.5846 49.4707C52.9609 54.2126 49.8784 55.5224 45.3376 53.4007C44.1475 52.3289 43.3768 51.0191 43.0258 49.4707C43.0258 47.1589 43.0258 44.8472 43.0258 42.5354C43.0258 38.8366 43.0258 35.1378 43.0258 31.4389C42.9491 27.5829 43.0258 23.73 43.257 19.8801C45.5951 15.3702 48.9088 14.5226 53.1976 17.3372C53.6414 17.9934 54.0266 18.687 54.3535 19.4178C54.5846 23.4219 54.6614 27.4289 54.5846 31.4389Z" fill="#3C3F4E"/>
<path fill-rule="evenodd" clip-rule="evenodd" d="M94.8098 23.1167C99.1277 23.0398 103.443 23.1168 107.756 23.3479C109.605 24.8891 109.605 26.4303 107.756 27.9714C103.441 28.2797 99.125 28.2797 94.8098 27.9714C92.9905 26.3551 92.9905 24.7368 94.8098 23.1167Z" fill="#FD4D24"/>
<path fill-rule="evenodd" clip-rule="evenodd" d="M117.004 23.1168C129.334 23.0397 141.664 23.1168 153.992 23.348C155.615 24.7572 155.769 26.2984 154.455 27.9715C141.817 28.2797 129.179 28.2797 116.542 27.9715C115.24 26.2098 115.395 24.5916 117.004 23.1168Z" fill="#3E4150"/>
<path fill-rule="evenodd" clip-rule="evenodd" d="M32.393 31.4395C35.9379 31.4395 39.4823 31.4395 43.0271 31.4395C43.0271 35.1383 43.0271 38.8371 43.0271 42.5359C39.3251 42.6127 35.6262 42.5359 31.9307 42.3047C31.5455 41.9196 31.1599 41.534 30.7748 41.1489C30.0521 38.7363 29.8982 36.2706 30.3124 33.7512C30.7863 32.7401 31.4799 31.9695 32.393 31.4395Z" fill="#324846"/>
<path fill-rule="evenodd" clip-rule="evenodd" d="M54.5859 31.439C62.6017 31.362 70.6157 31.4391 78.6283 31.6702C79.5493 31.9357 80.2428 32.4752 80.7088 33.2884C81.604 35.9017 81.604 38.5213 80.7088 41.1484C79.8544 42.3233 78.6985 42.7856 77.2412 42.5355C69.6896 42.5355 62.1375 42.5355 54.5859 42.5355C54.5859 38.8367 54.5859 35.1379 54.5859 31.439Z" fill="#324846"/>
<path fill-rule="evenodd" clip-rule="evenodd" d="M32.3928 31.439C31.4797 31.969 30.7862 32.7396 30.3123 33.7508C29.898 36.2701 30.052 38.7359 30.7746 41.1484C31.1597 41.5335 31.5454 41.9191 31.9305 42.3043C35.6261 42.5355 39.3249 42.6122 43.0269 42.5355C43.0269 44.8472 43.0269 47.159 43.0269 49.4707C35.3015 48.6418 32.1422 52.0326 33.5487 59.6425C34.074 64.1273 34.6907 68.5969 35.3981 73.0507C36.2456 75.1313 37.7099 76.5956 39.7905 77.4431C36.4033 77.6742 33.0129 77.751 29.6187 77.6742C27.5192 76.8873 25.901 75.5003 24.764 73.5131C23.1171 63.2054 21.6529 52.8792 20.3717 42.5355C18.7714 42.6991 17.6155 42.0828 16.904 40.6861C16.5958 38.2203 16.5958 35.7541 16.904 33.2884C17.4435 32.749 17.9828 32.2096 18.5223 31.6702C23.143 31.4391 27.7665 31.362 32.3928 31.439Z" fill="#324846"/>
<path fill-rule="evenodd" clip-rule="evenodd" d="M94.8115 35.1381C99.1294 35.0614 103.445 35.1381 107.757 35.3693C109.713 37.1461 109.558 38.6876 107.295 39.9928C103.134 40.3012 98.9726 40.3012 94.8115 39.9928C92.999 38.3552 92.999 36.737 94.8115 35.1381Z" fill="#FE4B23"/>
<path fill-rule="evenodd" clip-rule="evenodd" d="M116.542 35.1383C129.18 35.0611 141.818 35.1383 154.455 35.3695C155.769 37.0428 155.615 38.5838 153.992 39.993C141.663 40.3014 129.334 40.3014 117.004 39.993C115.356 38.5061 115.202 36.8879 116.542 35.1383Z" fill="#272C44"/>
<path fill-rule="evenodd" clip-rule="evenodd" d="M54.5859 42.5371C62.1375 42.5371 69.6896 42.5371 77.2412 42.5371C76.8588 44.8382 76.5504 47.15 76.3165 49.4724C69.0728 49.4724 61.8296 49.4724 54.5859 49.4724C54.5859 47.1606 54.5859 44.8489 54.5859 42.5371Z" fill="#324846"/>
<path fill-rule="evenodd" clip-rule="evenodd" d="M43.0264 49.4718C43.3773 51.0202 44.148 52.33 45.3381 53.4017C49.8789 55.5235 52.9614 54.2136 54.5852 49.4718C61.8289 49.4718 69.0721 49.4718 76.3158 49.4718C75.5519 57.052 74.5505 64.6036 73.3105 72.127C72.6803 75.0704 70.9081 76.9965 67.9934 77.9064C55.1234 78.2902 42.3315 78.2134 29.6182 77.6752C33.0123 77.752 36.4027 77.6752 39.7899 77.4441C37.7093 76.5966 36.2451 75.1323 35.3976 73.0517C34.6902 68.5979 34.0734 64.1283 33.5482 59.6435C32.1417 52.0336 35.3009 48.6428 43.0264 49.4718Z" fill="#324846"/>
<path fill-rule="evenodd" clip-rule="evenodd" d="M135.497 82.7621C135.574 85.8483 135.497 88.9308 135.266 92.0091C133.512 93.9699 131.971 93.816 130.642 91.5468C130.411 88.6224 130.334 85.6943 130.411 82.7621C130.488 78.7521 130.411 74.7449 130.18 70.7409C127.329 61.5151 121.088 57.4312 111.455 58.4886C105.225 60.4027 101.141 64.4871 99.2023 70.7409C98.9711 74.7449 98.8943 78.7521 98.9711 82.7621C99.0478 85.8483 98.9711 88.9308 98.7399 92.0091C97.1989 93.8585 95.6574 93.8585 94.1164 92.0091C93.8852 88.9308 93.8085 85.8483 93.8852 82.7621C93.8085 78.906 93.8852 75.0533 94.1164 71.2033C95.669 62.4084 100.678 56.629 109.143 53.865C121.396 51.8617 129.95 56.5619 134.803 67.9668C135.41 72.8779 135.641 77.8098 135.497 82.7621Z" fill="#41424D"/>
<path fill-rule="evenodd" clip-rule="evenodd" d="M80.9411 82.7617C85.2562 82.7617 89.5718 82.7617 93.887 82.7617C93.8102 85.8479 93.887 88.9304 94.1181 92.0088C95.6592 93.8582 97.2007 93.8582 98.7417 92.0088C98.9728 88.9304 99.0496 85.8479 98.9728 82.7617C109.453 82.7617 119.933 82.7617 130.413 82.7617C130.336 85.694 130.413 88.622 130.644 91.5464C131.972 93.8156 133.513 93.9696 135.268 92.0088C135.499 88.9304 135.575 85.8479 135.499 82.7617C139.968 82.7617 144.437 82.7617 148.907 82.7617C149.308 89.2656 149.925 95.7386 150.756 102.181C151.251 107.442 151.868 112.682 152.606 117.9C154.064 133.935 155.605 149.963 157.229 165.985C143.05 165.985 128.872 165.985 114.693 165.985C113.024 147.78 111.175 129.594 109.145 111.428C109.145 110.811 109.145 110.194 109.145 109.578C98.8189 109.578 88.4927 109.578 78.167 109.578C78.3889 107.118 78.5429 104.652 78.6293 102.181C79.3035 95.7612 80.0742 89.2883 80.9411 82.7617Z" fill="#FE491F"/>
<path fill-rule="evenodd" clip-rule="evenodd" d="M0.028313 102.18C26.2284 102.18 52.4281 102.18 78.6282 102.18C78.5418 104.651 78.3878 107.117 78.1659 109.577C72.4419 109.279 66.8937 109.587 61.5212 110.502C61.3473 113.145 61.0389 115.765 60.5965 118.362C58.1428 118.119 55.831 118.427 53.6612 119.287C39.644 118.442 25.4651 118.056 11.1248 118.131C3.36354 115.68 -0.335281 110.363 0.028313 102.18Z" fill="#324846"/>
<path fill-rule="evenodd" clip-rule="evenodd" d="M150.756 102.18C155.688 102.18 160.619 102.18 165.551 102.18C165.751 111.221 161.435 116.461 152.605 117.9C151.867 112.682 151.251 107.441 150.756 102.18Z" fill="#324846"/>
<path fill-rule="evenodd" clip-rule="evenodd" d="M78.1671 109.577C78.1671 109.731 78.1671 109.885 78.1671 110.039C72.5819 109.895 67.0337 110.049 61.5225 110.502C66.895 109.587 72.4432 109.278 78.1671 109.577Z" fill="#CEB84C"/>
<path fill-rule="evenodd" clip-rule="evenodd" d="M78.167 110.04C78.167 109.887 78.167 109.732 78.167 109.578C88.4927 109.578 98.8189 109.578 109.145 109.578C109.145 110.194 109.145 110.811 109.145 111.428C108.727 111.1 108.573 110.637 108.682 110.04C98.5105 110.04 88.3387 110.04 78.167 110.04Z" fill="#FFBC41"/>
<path fill-rule="evenodd" clip-rule="evenodd" d="M78.1665 110.041C88.3383 110.041 98.51 110.041 108.682 110.041C108.572 110.638 108.726 111.1 109.144 111.428C111.174 129.594 113.024 147.78 114.692 165.985C95.1196 165.985 75.5464 165.985 55.9736 165.985C56.1808 161.661 56.4887 157.346 56.8983 153.039C58.388 141.528 59.6207 129.969 60.5972 118.363C61.0396 115.766 61.348 113.146 61.5219 110.503C67.0331 110.05 72.5813 109.896 78.1665 110.041Z" fill="#FDDF4D"/>
<path fill-rule="evenodd" clip-rule="evenodd" d="M73.5419 117.437C74.8481 117.244 75.8495 117.706 76.5472 118.824C76.7012 123.448 76.8556 128.072 77.0096 132.695C79.6736 139.419 84.2199 141.037 90.6489 137.55C92.0318 136.167 93.0333 134.549 93.6542 132.695C93.8082 128.072 93.9626 123.448 94.1166 118.824C95.3099 117.18 96.697 117.026 98.2778 118.362C99.2616 124.227 99.1077 130.083 97.8154 135.932C94.5581 142.27 89.395 144.967 82.3266 144.023C75.978 142.143 72.5104 137.905 71.9237 131.308C71.6153 127.147 71.6153 122.986 71.9237 118.824C72.4531 118.299 72.9926 117.837 73.5419 117.437Z" fill="#41424D"/>
<path fill-rule="evenodd" clip-rule="evenodd" d="M60.5972 118.362C59.6207 129.968 58.388 141.527 56.8983 153.038C47.8052 153.038 38.7126 153.038 29.6195 153.038C28.2796 146.713 30.283 141.858 35.6301 138.474C36.6995 138.168 37.7782 137.937 38.8666 137.781C42.4114 137.781 45.9558 137.781 49.5007 137.781C49.5007 137.318 49.5007 136.856 49.5007 136.393C50.6418 130.619 52.0288 124.917 53.6619 119.286C55.8317 118.426 58.1434 118.119 60.5972 118.362Z" fill="#324846"/>
<path fill-rule="evenodd" clip-rule="evenodd" d="M49.5013 136.395C49.5013 136.857 49.5013 137.319 49.5013 137.782C45.9564 137.782 42.412 137.782 38.8672 137.782C42.4527 137.596 45.9976 137.133 49.5013 136.395Z" fill="#93959A"/>
</svg>
