<svg width="112" height="189" viewBox="0 0 112 189" fill="none" xmlns="http://www.w3.org/2000/svg">
<path d="M13.6924 0H98.3073C105.497 0 111.325 5.82823 111.325 13.0176V175.739C111.325 182.928 105.497 188.757 98.3073 188.757H13.6924C6.50304 188.757 0.674805 182.928 0.674805 175.739V13.0176C0.674805 5.82823 6.50304 0 13.6924 0Z" fill="#351E72"/>
<path d="M101.562 13.0182V175.74C101.556 177.535 100.102 178.989 98.3071 178.994H13.6921C11.897 178.989 10.443 177.535 10.4375 175.74V13.0182C10.4427 11.2232 11.8967 9.7692 13.6921 9.76367H24.3664C25.771 9.774 27.0138 10.6765 27.4581 12.0092L28.4671 15.0684C29.3593 17.7265 31.8463 19.52 34.65 19.527H77.3484C80.1521 19.52 82.6395 17.7265 83.5317 15.0684L84.5407 12.0092C84.9849 10.6765 86.2277 9.774 87.6323 9.76367H98.3067C100.102 9.7692 101.556 11.2232 101.562 13.0182Z" fill="white"/>
<path d="M72.2719 13.0172C71.4063 13.0256 70.5735 12.6854 69.9615 12.0734C69.3495 11.4614 69.0092 10.6286 69.0177 9.76294C69.0299 8.90137 69.3668 8.07593 69.9615 7.45215C71.2662 6.24772 73.2777 6.24772 74.5823 7.45215C75.8409 8.73547 75.8409 10.79 74.5823 12.073C73.9582 12.6669 73.1331 13.0043 72.2719 13.0172Z" fill="#A5A5A4"/>
<path d="M29.9642 35.7982H20.2009C18.4036 35.7982 16.9463 34.3412 16.9463 32.5436C16.9463 30.7464 18.4032 29.2891 20.2009 29.2891H29.9642C31.7615 29.2891 33.2188 30.746 33.2188 32.5436C33.2188 34.3412 31.7618 35.7982 29.9642 35.7982Z" fill="#35495E"/>
<path d="M91.7982 35.7982H75.5261C73.7288 35.7982 72.2715 34.3412 72.2715 32.5436C72.2715 30.7464 73.7284 29.2891 75.5261 29.2891H91.7982C93.5954 29.2891 95.0527 30.746 95.0527 32.5436C95.0527 34.3412 93.5958 35.7982 91.7982 35.7982Z" fill="#35495E"/>
<circle cx="55.9997" cy="159.466" r="9.76336" fill="#3A393C"/>
<circle cx="29.9648" cy="162.722" r="6.50879" fill="#FFC269"/>
<circle cx="82.0361" cy="162.722" r="6.50879" fill="#FFC269"/>
</svg>
