<svg width="166" height="165" viewBox="0 0 166 165" fill="none" xmlns="http://www.w3.org/2000/svg">
<path fill-rule="evenodd" clip-rule="evenodd" d="M134.456 5.03173C137.808 8.99512 139.027 13.5694 138.115 18.7546C138.115 33.8498 138.115 48.9449 138.115 64.0401C134.303 64.0401 130.491 64.0401 126.679 64.0401C126.756 52.6034 126.679 41.1677 126.451 29.7329C126.07 28.7416 125.383 28.0555 124.392 27.6745C96.6414 27.3694 68.891 27.3694 41.1402 27.6745C40.4317 28.2298 39.898 28.9159 39.5392 29.7329C39.3108 32.015 39.2346 34.3021 39.3105 36.5943C35.4986 36.5943 31.6866 36.5943 27.8748 36.5943C27.8748 30.6477 27.8748 24.7012 27.8748 18.7546C26.9625 13.5694 28.1824 8.99512 31.5342 5.03173C33.8852 2.48307 36.7823 0.882072 40.2253 0.228726C68.4336 -0.0762419 96.6414 -0.0762419 124.85 0.228726C128.674 0.616214 131.876 2.21721 134.456 5.03173Z" fill="#DCD9EB"/>
<path fill-rule="evenodd" clip-rule="evenodd" d="M21.4706 5.48933C23.7629 5.41345 26.05 5.48965 28.3321 5.71805C17.5017 8.31538 11.0214 15.1006 8.89134 26.0736C8.66267 32.1707 8.58642 38.2701 8.66263 44.3708C8.66263 53.2143 8.66263 62.0582 8.66263 70.9017C8.66263 71.8165 8.66263 72.7314 8.66263 73.6462C8.58642 87.37 8.66263 101.093 8.89134 114.815C11.1284 125.816 17.6087 132.677 28.3321 135.399C26.1974 135.399 24.0627 135.399 21.9281 135.399C11.7295 133.667 4.94437 127.873 1.57248 118.017C1.05138 102.018 0.822665 86.0083 0.886334 69.9868C0.819504 54.2668 1.04822 38.5619 1.57248 22.8716C4.87937 13.2351 11.5121 7.44095 21.4706 5.48933Z" fill="#351E72"/>
<path fill-rule="evenodd" clip-rule="evenodd" d="M21.4704 5.48903C24.7399 5.03544 28.0943 4.88294 31.5338 5.0316C28.182 8.99499 26.9622 13.5693 27.8744 18.7545C21.1863 17.9423 16.6882 20.6869 14.3802 26.9882C14.1516 30.4916 14.0754 33.9987 14.1515 37.509C11.6404 39.2569 9.81073 41.544 8.66236 44.3705C8.58615 38.2698 8.6624 32.1704 8.89107 26.0733C11.0212 15.1003 17.5014 8.31507 28.3318 5.71775C26.0497 5.48935 23.7626 5.41314 21.4704 5.48903Z" fill="#351E72"/>
<path fill-rule="evenodd" clip-rule="evenodd" d="M134.455 5.03225C149.041 3.43742 159.028 9.384 164.417 22.872C164.569 23.7868 164.722 24.7017 164.874 25.6165C165.322 56.1261 165.17 86.6211 164.417 117.102C161.374 127.696 154.436 133.796 143.604 135.399C133.004 135.248 122.483 135.4 112.041 135.857C92.677 135.857 73.3122 135.857 53.9478 135.857C45.4886 135.401 36.9501 135.249 28.3318 135.399C17.6084 132.678 11.1281 125.816 8.89108 114.815C8.66237 101.093 8.58616 87.3704 8.66237 73.6466C9.90209 76.5874 11.8843 78.8745 14.6089 80.508C14.0769 91.4085 14.0007 102.387 14.3802 113.443C16.4284 120.074 20.9264 122.971 27.8744 122.134C31.6863 122.134 35.4982 122.134 39.3101 122.134C68.4332 122.134 97.5559 122.134 126.679 122.134C130.491 122.134 134.303 122.134 138.115 122.134C147.384 122.318 151.958 117.744 151.838 108.411C154.56 107.138 156.618 105.156 158.013 102.465C158.516 97.0701 158.744 91.6569 158.699 86.2259C158.754 81.0931 158.526 75.985 158.013 70.902C156.784 67.92 154.725 65.7852 151.838 64.498C151.914 51.9942 151.838 39.4908 151.609 26.9888C149.31 20.6914 144.812 17.9468 138.115 18.7551C139.027 13.5699 137.807 8.99564 134.455 5.03225Z" fill="#351E72"/>
<path fill-rule="evenodd" clip-rule="evenodd" d="M42.5122 8.69162C48.5142 8.66344 50.4198 11.408 48.2301 16.9253C44.3986 19.868 41.5016 19.1056 39.539 14.6382C39.3143 12.038 40.3054 10.0558 42.5122 8.69162Z" fill="#FFC269"/>
<path fill-rule="evenodd" clip-rule="evenodd" d="M59.4371 8.69141C66.0757 8.9343 67.7527 11.9076 64.4688 17.6113C60.9036 19.6015 58.235 18.7629 56.4638 15.0954C55.855 12.1968 56.8462 10.0621 59.4371 8.69141Z" fill="#FFC269"/>
<path fill-rule="evenodd" clip-rule="evenodd" d="M76.3611 8.69178C81.4111 8.32776 83.4696 10.6149 82.5364 15.5532C80.677 18.7355 78.1611 19.4217 74.9888 17.6116C72.1807 14.0695 72.6381 11.0963 76.3611 8.69178Z" fill="#FFC269"/>
<path fill-rule="evenodd" clip-rule="evenodd" d="M27.8744 18.7543C27.8744 24.7009 27.8744 30.6475 27.8744 36.5941C23.2381 36.3521 18.6638 36.6567 14.1516 37.5089C14.0754 33.9986 14.1517 30.4915 14.3803 26.988C16.6883 20.6867 21.1863 17.9422 27.8744 18.7543Z" fill="white"/>
<path fill-rule="evenodd" clip-rule="evenodd" d="M138.113 18.7551C144.81 17.9468 149.308 20.6914 151.607 26.9888C151.836 39.4908 151.913 51.9942 151.836 64.498C147.274 64.1019 142.7 63.9495 138.113 64.0406C138.113 48.9454 138.113 33.8503 138.113 18.7551Z" fill="white"/>
<path fill-rule="evenodd" clip-rule="evenodd" d="M138.114 64.0397C142.701 63.9487 147.275 64.101 151.837 64.4972C154.725 65.7844 156.783 67.9192 158.012 70.9012C158.525 75.9841 158.754 81.0922 158.699 86.225C158.744 91.6561 158.515 97.0693 158.012 102.464C156.618 105.155 154.559 107.137 151.837 108.41C147.3 108.856 142.726 109.008 138.114 108.868C125.915 108.944 113.717 108.868 101.52 108.639C97.6602 107.067 95.2967 104.246 94.4298 100.177C94.1247 91.1804 94.1247 82.1846 94.4298 73.1883C94.5684 72.096 94.9499 71.1047 95.5734 70.215C94.5465 70.3042 93.708 70.838 93.0575 71.816C92.0539 73.213 91.2914 74.7381 90.7704 76.3903C90.4653 85.9963 90.4653 95.6023 90.7704 105.208C92.0498 108.774 94.4134 111.29 97.8605 112.756C107.465 112.985 117.071 113.061 126.679 112.985C126.679 116.034 126.679 119.084 126.679 122.133C97.5554 122.133 68.4328 122.133 39.3096 122.133C39.3096 108.563 39.3096 94.9926 39.3096 81.422C43.8839 81.422 48.4582 81.422 53.0325 81.422C57.4806 81.5862 61.9025 81.3575 66.2979 80.7359C70.0937 79.1715 72.3045 76.351 72.9307 72.2735C73.1594 69.2279 73.2353 66.1782 73.1594 63.1249C73.2358 57.0241 73.1594 50.9248 72.9307 44.8277C71.831 40.8312 69.3151 38.1625 65.3831 36.8227C56.6933 36.594 48.0022 36.5176 39.3096 36.594C39.2338 34.3018 39.31 32.0147 39.5384 29.7326C39.8972 28.9156 40.4309 28.2295 41.1394 27.6741C68.8902 27.369 96.6406 27.369 124.391 27.6741C125.383 28.0552 126.069 28.7413 126.45 29.7326C126.679 41.1674 126.755 52.6031 126.679 64.0397C130.49 64.0397 134.303 64.0397 138.114 64.0397Z" fill="#F8F5F8"/>
<path fill-rule="evenodd" clip-rule="evenodd" d="M27.8751 36.594C31.687 36.594 35.4989 36.594 39.3108 36.594C48.0033 36.5176 56.6945 36.594 65.3843 36.8227C69.3163 38.1625 71.8322 40.8312 72.9318 44.8277C73.1606 50.9248 73.2369 57.0241 73.1606 63.1249C69.1645 60.1241 65.3522 56.8457 61.7248 53.2902C61.2962 52.9736 60.9916 53.05 60.81 53.5189C54.0922 58.8662 47.3835 64.203 40.6831 69.5289C36.5574 65.7084 32.2881 62.049 27.8751 58.5506C27.5976 58.6073 27.4451 58.7596 27.4177 59.008C21.1017 62.8532 14.8502 66.8177 8.66309 70.9012C8.66309 62.0577 8.66309 53.2138 8.66309 44.3703C9.81146 41.5438 11.6412 39.2567 14.1522 37.5089C18.6645 36.6567 23.2388 36.352 27.8751 36.594Z" fill="#B1E3F7"/>
<path fill-rule="evenodd" clip-rule="evenodd" d="M90.5411 38.8822C99.8434 38.8058 109.144 38.8822 118.444 39.1109C119.745 40.7663 119.592 42.2909 117.987 43.6852C108.838 43.9903 99.6897 43.9903 90.5411 43.6852C88.748 42.065 88.748 40.464 90.5411 38.8822Z" fill="#78717B"/>
<path fill-rule="evenodd" clip-rule="evenodd" d="M20.5559 43.4551C25.4586 43.7003 27.2121 46.1397 25.8164 50.7739C24.0057 52.9938 21.7948 53.5277 19.1836 52.3749C15.8094 48.7594 16.2668 45.7861 20.5559 43.4551Z" fill="#F7EE67"/>
<path fill-rule="evenodd" clip-rule="evenodd" d="M90.5424 48.0306C97.4056 47.9542 104.267 48.0306 111.127 48.2593C113.067 49.9948 112.914 51.5194 110.669 52.8336C103.96 53.1387 97.2515 53.1387 90.5424 52.8336C88.7424 51.2344 88.7424 49.6334 90.5424 48.0306Z" fill="#78717B"/>
<path fill-rule="evenodd" clip-rule="evenodd" d="M60.81 53.5195C58.4268 62.9032 55.8345 72.2046 53.0337 81.4227C48.4594 81.4227 43.8851 81.4227 39.3108 81.4227C35.4989 81.4227 31.687 81.4227 27.8751 81.4227C23.3971 81.6464 18.9753 81.3413 14.6097 80.5078C11.885 78.8744 9.90281 76.5872 8.66309 73.6464C8.66309 72.7315 8.66309 71.8167 8.66309 70.9018C14.8502 66.8184 21.1017 62.8538 27.4177 59.0087C24.6585 66.3504 21.9139 73.6693 19.1839 80.9653C22.085 81.0412 24.982 80.9653 27.8751 80.7365C32.2328 77.0625 36.5021 73.3271 40.6831 69.5295C47.3835 64.2037 54.0922 58.8669 60.81 53.5195Z" fill="#FED064"/>
<path fill-rule="evenodd" clip-rule="evenodd" d="M73.1591 63.1256C73.235 66.1789 73.1591 69.2286 72.9304 72.2742C72.3042 76.3517 70.0934 79.1722 66.2977 80.7366C61.9022 81.3583 57.4803 81.587 53.0322 81.4228C55.8331 72.2047 58.4253 62.9033 60.8085 53.5196C60.9901 53.0507 61.2948 52.9743 61.7234 53.2909C65.3508 56.8465 69.163 60.1249 73.1591 63.1256Z" fill="#F8EE64"/>
<path fill-rule="evenodd" clip-rule="evenodd" d="M40.6818 69.5291C36.5008 73.3266 32.2315 77.062 27.8738 80.7361C24.9807 80.9648 22.0837 81.0407 19.1826 80.9648C21.9126 73.6688 24.6571 66.3499 27.4163 59.0082C27.4438 58.7598 27.5962 58.6075 27.8738 58.5508C32.2867 62.0492 36.5561 65.7086 40.6818 69.5291Z" fill="#F8EE63"/>
<path fill-rule="evenodd" clip-rule="evenodd" d="M138.115 108.868C138.115 113.29 138.115 117.711 138.115 122.133C134.303 122.133 130.491 122.133 126.679 122.133C126.679 119.083 126.679 116.034 126.679 112.984C117.072 113.061 107.466 112.984 97.861 112.756C94.4138 111.29 92.0502 108.774 90.7708 105.208C90.4657 95.6021 90.4657 85.9961 90.7708 76.3901C91.2918 74.7379 92.0544 73.2128 93.058 71.8158C93.7084 70.8379 94.5469 70.304 95.5738 70.2148C94.9503 71.1045 94.5689 72.0958 94.4303 73.1881C94.1251 82.1844 94.1251 91.1802 94.4303 100.176C95.2971 104.246 97.6606 107.067 101.52 108.639C113.718 108.868 125.916 108.944 138.115 108.868Z" fill="#DDDAEC"/>
<path fill-rule="evenodd" clip-rule="evenodd" d="M103.351 75.0189C118.6 74.9425 133.847 75.0189 149.094 75.2476C150.197 75.5943 150.654 76.3569 150.467 77.5347C150.654 78.7126 150.197 79.4752 149.094 79.8219C133.999 80.127 118.904 80.127 103.809 79.8219C102.183 78.3709 102.03 76.7699 103.351 75.0189Z" fill="#B3E4F9"/>
<path fill-rule="evenodd" clip-rule="evenodd" d="M14.6084 80.5078C18.974 81.3412 23.3958 81.6464 27.8738 81.4227C27.8738 94.9932 27.8738 108.563 27.8738 122.134C20.9259 122.971 16.4278 120.074 14.3797 113.443C14.0001 102.387 14.0763 91.4083 14.6084 80.5078Z" fill="white"/>
<path fill-rule="evenodd" clip-rule="evenodd" d="M27.874 81.4219C31.6859 81.4219 35.4979 81.4219 39.3097 81.4219C39.3097 94.9924 39.3097 108.562 39.3097 122.133C35.4979 122.133 31.6859 122.133 27.874 122.133C27.874 108.562 27.874 94.9924 27.874 81.4219Z" fill="#DDD9EB"/>
<path fill-rule="evenodd" clip-rule="evenodd" d="M103.35 84.1673C118.75 84.0909 134.151 84.1673 149.55 84.396C150.455 85.5382 150.684 86.8346 150.236 88.2842C149.893 88.5705 149.512 88.7993 149.093 88.9703C133.997 89.2754 118.902 89.2754 103.807 88.9703C102.176 87.4992 102.024 85.8982 103.35 84.1673Z" fill="#B2E4F9"/>
<path fill-rule="evenodd" clip-rule="evenodd" d="M103.35 93.3158C116.159 93.2394 128.967 93.3158 141.774 93.5445C143.714 95.28 143.561 96.8046 141.316 98.1188C128.813 98.4239 116.31 98.4239 103.807 98.1188C102.176 96.6477 102.024 95.0467 103.35 93.3158Z" fill="#B3E4F9"/>
<path fill-rule="evenodd" clip-rule="evenodd" d="M151.836 108.41C151.957 117.743 147.383 122.317 138.113 122.133C138.113 117.711 138.113 113.29 138.113 108.868C142.725 109.008 147.299 108.856 151.836 108.41Z" fill="white"/>
<path fill-rule="evenodd" clip-rule="evenodd" d="M21.9277 135.398C24.0624 135.398 26.1971 135.398 28.3317 135.398C36.9501 135.247 45.4885 135.4 53.9478 135.856C53.9478 139.058 53.9478 142.26 53.9478 145.462C50.7458 145.462 47.5437 145.462 44.3417 145.462C47.3054 145.008 50.3551 144.856 53.4903 145.004C53.4903 141.954 53.4903 138.905 53.4903 135.856C42.8905 136.007 32.3696 135.855 21.9277 135.398Z" fill="#948F96"/>
<path fill-rule="evenodd" clip-rule="evenodd" d="M143.605 135.398C133.315 135.854 122.947 136.007 112.499 135.856C112.499 138.906 112.499 141.955 112.499 145.004C115.331 144.857 118.075 145.009 120.733 145.462C117.75 145.61 114.853 145.457 112.042 145.004C112.042 141.955 112.042 138.906 112.042 135.856C122.484 135.399 133.005 135.247 143.605 135.398Z" fill="#9B969D"/>
<path fill-rule="evenodd" clip-rule="evenodd" d="M53.9483 135.855C73.3127 135.855 92.6775 135.855 112.042 135.855C112.042 138.905 112.042 141.954 112.042 145.004C97.2508 144.928 82.4608 145.004 67.6712 145.233C60.3537 148.657 58.6004 153.918 62.4108 161.014C63.8517 162.757 65.605 163.977 67.6712 164.673C59.7408 164.75 51.8121 164.673 43.8849 164.445C37.8237 162.178 35.4603 157.833 36.7948 151.408C38.3287 148.115 40.8446 146.133 44.3423 145.461C47.5443 145.461 50.7463 145.461 53.9483 145.461C53.9483 142.259 53.9483 139.057 53.9483 135.855Z" fill="#351E72"/>
<path fill-rule="evenodd" clip-rule="evenodd" d="M112.041 145.005C114.852 145.458 117.749 145.61 120.732 145.463C127.609 146.696 130.43 150.813 129.195 157.813C127.812 161.332 125.296 163.543 121.647 164.446C103.656 164.675 85.6637 164.751 67.6707 164.675C65.6045 163.978 63.8512 162.758 62.4103 161.015C58.5999 153.919 60.3532 148.658 67.6707 145.234C82.4603 145.005 97.2504 144.929 112.041 145.005Z" fill="#351E72"/>
</svg>
