<?xml version="1.0" encoding="UTF-8"?>
<svg id="Layer_1" data-name="Layer 1" xmlns="http://www.w3.org/2000/svg" viewBox="0 0 2608.8 288">
  <defs>
    <style>
      .cls-1 {
        fill: #baafa0;
      }

      .cls-2 {
        fill: #2a4543;
      }

      .cls-3 {
        fill: none;
        stroke: #baafa0;
        stroke-miterlimit: 10;
      }
    </style>
  </defs>
  <rect class="cls-2" width="2608.8" height="288"/>
  <g>
    <line class="cls-3" x1="2078.41" y1="217.72" x2="415.8" y2="217.72"/>
    <g>
      <path class="cls-1" d="M400.18,213.17c-20.11-6.38-30.21,14.67-36.17,30.67-6.33,3.76-28.94-21.33-31.8-28.27,15.86-46.78,45.46-39.46,67.97-2.4"/>
      <path class="cls-1" d="M263.02,219.32c20.11,6.38,30.21-14.67,36.17-30.67,6.33-3.76,28.94,21.33,31.8,28.27-15.86,46.78-45.46,39.46-67.97,2.4"/>
    </g>
    <g>
      <path class="cls-1" d="M2124.33,190.62l-.34.17c2.41,4.65,3.62,10.93,3.62,18.83h-17.06c2.53-2.51,3.79-5.25,3.79-8.22,0-.74-.11-1.77-.35-3.08-2.18-5.25-5.62-7.88-10.34-7.88h-.34c-1.03,0-2.01.17-2.93.51-5.05,2.03-7.58,5.45-7.58,10.27v10.44c0,.23.11.34.34.34h36.52c.23,0,.34-.11.34-.34v-2.4c0-8.19-1.15-14.41-3.44-18.66h-2.24ZM2103.66,209.63h-8.61v-6.34c0-1.34.06-2.42.17-3.25,1.35-4.79,4.16-7.19,8.44-7.19.66,0,1.29.06,1.9.17,4.25,1.66,6.38,4.28,6.38,7.88v1.54c-1.32,4.79-4.08,7.19-8.27,7.19"/>
      <path class="cls-1" d="M2125.15,214.77c-.46,0-.83.14-1.12.43-.29.28-.43.63-.43,1.03,0,.43.14.79.43,1.07.29.28.66.43,1.12.43.43,0,.79-.14,1.08-.43.32-.31.47-.67.47-1.07,0-.37-.16-.71-.47-1.03-.29-.28-.65-.43-1.08-.43"/>
      <path class="cls-1" d="M2196.94,188.96c.43,0,.79-.14,1.08-.43.32-.31.47-.67.47-1.07,0-.37-.16-.71-.47-1.03-.29-.29-.65-.43-1.08-.43-.46,0-.83.14-1.12.43-.29.28-.43.63-.43,1.03,0,.43.14.79.43,1.07.29.28.66.43,1.12.43"/>
      <path class="cls-1" d="M2219.6,188.96c.43,0,.79-.14,1.08-.43.32-.31.47-.67.47-1.07,0-.37-.16-.71-.47-1.03-.29-.29-.64-.43-1.08-.43-.46,0-.83.14-1.12.43-.29.28-.43.63-.43,1.03,0,.43.14.79.43,1.07.29.28.66.43,1.12.43"/>
      <path class="cls-1" d="M2225.19,188.96c.43,0,.79-.14,1.08-.43.32-.31.47-.67.47-1.07,0-.37-.16-.71-.47-1.03-.29-.29-.64-.43-1.08-.43-.46,0-.83.14-1.12.43-.29.28-.43.63-.43,1.03,0,.43.14.79.43,1.07.28.28.66.43,1.12.43"/>
      <path class="cls-1" d="M2237.34,188.96c.43,0,.79-.14,1.08-.43.32-.31.47-.67.47-1.07,0-.37-.16-.71-.47-1.03-.29-.29-.65-.43-1.08-.43-.46,0-.83.14-1.12.43-.29.28-.43.63-.43,1.03,0,.43.14.79.43,1.07.29.28.66.43,1.12.43"/>
      <path class="cls-1" d="M2247.16,181.52c4.94-2.57,7.41-4.6,7.41-6.08v-.77c-.43-1.37-1.18-2.05-2.24-2.05h-1.12c-1.06,0-1.75.73-2.07,2.18v.21c0,.97.5,1.63,1.51,1.97-.95.74-2.25,1.6-3.92,2.57.11,1.06.26,1.71.43,1.97M2251.94,173.73c.83,0,1.25.36,1.25,1.07-.14.74-.52,1.11-1.12,1.11-.95-.14-1.42-.47-1.42-.98.11-.8.55-1.2,1.29-1.2"/>
      <path class="cls-1" d="M2252.5,214.77c-.46,0-.83.14-1.12.43-.29.28-.43.63-.43,1.03,0,.43.14.79.43,1.07.29.28.66.43,1.12.43.43,0,.79-.14,1.08-.43.32-.31.47-.67.47-1.07,0-.37-.16-.71-.47-1.03-.29-.28-.65-.43-1.08-.43"/>
      <path class="cls-1" d="M2250.39,190.62l-.34.17c2.41,4.65,3.62,10.93,3.62,18.83h-16.88v-.17c1.14-1.65,1.72-3.82,1.72-6.5v-11.98c0-.17-.11-.29-.34-.34h-1.72c-.17,0-.29.12-.34.34v12.16c0,2.88-.86,5.05-2.58,6.51h-11.89v-.17c1.15-1.65,1.72-3.82,1.72-6.5v-11.98c0-.17-.11-.29-.35-.34h-1.72c-.17,0-.29.12-.34.34v12.16c0,2.88-.86,5.05-2.59,6.51h-10.33v-8.22c0-.74-.11-1.77-.34-3.08-2.15-5.25-5.54-7.88-10.16-7.88h-.34c-.75,0-1.78.11-3.1.34-5.17,2.26-7.75,5.68-7.75,10.28,0,3.17,1.32,6.02,3.96,8.56h-18.43c1.95-1.68,2.93-2.6,2.93-2.74,2.53-2.4,3.79-6.68,3.79-12.84v-3.08c0-.17-.11-.29-.34-.34h-26.35c-.17,0-.29.12-.34.34v4.45c0,6.56,2.24,11.24,6.72,14.04v.17h-19.47v2.4h116.97c.23,0,.34-.11.34-.34v-2.4c0-8.19-1.15-14.41-3.45-18.66h-2.24ZM2163.22,209.29c-6.2-2.2-9.3-6.48-9.3-12.84v-3.42h21.88l.34.17c0,4.85-.58,8.28-1.72,10.27-3.19,4.11-6.29,6.16-9.3,6.16l-1.9-.34ZM2205.6,209.63h-8.27c-.63,0-1.44-.12-2.41-.34-4.14-1.6-6.2-4.28-6.2-8.05,0-.66.06-1.23.18-1.71,1.52-4.45,4.16-6.68,7.92-6.68h.69c.66,0,1.29.06,1.9.17,4.13,1.48,6.2,4.4,6.2,8.73v7.88Z"/>
      <path class="cls-1" d="M2246.9,214.77c-.46,0-.83.14-1.12.43-.29.28-.43.63-.43,1.03,0,.43.14.79.43,1.07.28.28.66.43,1.12.43.43,0,.79-.14,1.08-.43.32-.31.47-.67.47-1.07,0-.37-.16-.71-.47-1.03-.29-.28-.64-.43-1.08-.43"/>
      <path class="cls-1" d="M2287.32,179.03c0,.14-.32.36-.95.64.11.85.26,1.42.43,1.71,4.79-2.23,7.19-4,7.19-5.31v-.64c-.46-1.2-1.18-1.8-2.15-1.8h-1.12c-1.03,0-1.71.64-2.02,1.93v.17c0,.83.5,1.4,1.51,1.71,0,.14-.36.4-1.08.77h-.17c-.58-1-1.47-1.5-2.67-1.5-.72,0-1.41.29-2.07.86l.82-.13c1.52.23,2.29.75,2.29,1.58M2291.41,174.58c.8,0,1.21.33,1.21.99-.12.63-.47.94-1.08.94-.89-.08-1.34-.37-1.34-.85.09-.71.49-1.07,1.21-1.07"/>
      <path class="cls-1" d="M2345.44,209.63h-10.34c-.63,0-1.44-.12-2.41-.34-4.13-1.6-6.2-4.28-6.2-8.05,0-.66.06-1.23.17-1.71,1.52-4.45,4.16-6.68,7.92-6.68h8.79c.23,0,.34-.11.34-.34v-1.71c0-.17-.11-.28-.34-.34h-8.44c-.75,0-1.78.11-3.1.34-5.17,2.26-7.75,5.68-7.75,10.27,0,3.17,1.32,6.02,3.96,8.56h-14.65v-.17c1.15-1.71,1.72-3.88,1.72-6.51v-20.2c0-.2-.11-.31-.34-.34h-1.72c-.2,0-.31.12-.34.34v20.37c0,2.88-.86,5.05-2.58,6.51h-4.61s-.02-.04-.04-.05h-8.1c2.3-2.45,3.44-5.11,3.44-7.96v-.17c0-.91-.11-1.9-.35-2.95-2.3-5.19-5.45-7.79-9.47-7.79h-1.9l-1.72.17c-5.51,2.06-8.27,5.64-8.27,10.74,0,2.91,1.21,5.56,3.62,7.96h-9.99s-.02.04-.04.05h-7.88v2.4h21.36l3.27.34h1.03l3.27-.34h51.68c.23,0,.35-.11.35-.34v-1.71c0-.17-.11-.28-.35-.34M2290.31,209.93h-.52c-.69,0-1.2-.06-1.55-.17-4.48-1.43-6.71-4.14-6.71-8.13,0-.63.06-1.27.17-1.93,1.55-4.48,4.3-6.72,8.27-6.72l2.07.34c4.25,1.57,6.37,4.11,6.37,7.62v.68c0,.68-.06,1.27-.17,1.75-1.49,4.37-4.13,6.55-7.92,6.55"/>
    </g>
  </g>
</svg>